M48
;GenerationSoftware,Autodesk,EAGLE,9.6.2*%
;CreationDate,2020-11-03T01:17:22Z*%
FMAT,2
ICI,OFF
METRIC,TZ,000.000
T8C0.381
T7C0.400
T6C0.450
T5C0.800
T4C0.914
T3C1.000
T2C1.016
T1C1.100
%
G90
M71
T1
X43180Y43180
X45720Y45720
X35560Y43180
X45720Y43180
X53340Y43180
X53340Y45720
T2
X95250Y13970
X105410Y13970
X100330Y8890
X95250Y3810
X105410Y3810
T3
X16510Y58700
X13510Y63500
X19610Y63500
T4
X27940Y3810
X30480Y3810
X40640Y3810
X38100Y3810
X52070Y11430
X54610Y11430
X52070Y8890
X54610Y8890
X52070Y6350
X54610Y6350
X54610Y3810
X52070Y3810
X10160Y7620
X10160Y5080
X5080Y7620
X5080Y5080
X86360Y12700
X83820Y12700
X81280Y12700
X76200Y12700
X73660Y12700
X71120Y12700
X25400Y3810
T5
X16510Y5080
X16510Y7620
X19050Y5080
X19050Y7620
X13970Y7620
X13970Y5080
T6
X2540Y2540
X2540Y71120
T7
X97790Y60960
T8
X97790Y22860
X73660Y21590
X71120Y20320
X86360Y21590
X91440Y20320
X68580Y25400
X69990Y26810
X35560Y6350
X58420Y3810
X20320Y22860
X33020Y44450
X12700Y17780
X25400Y25400
X95250Y21590
X74930Y38100
X26743Y12052
X24130Y11430
X17780Y33020
X21590Y23730
X78740Y36830
X68580Y34290
X76200Y27940
X76200Y16510
X58420Y41910
X72390Y30480
X96520Y27940
X57150Y39370
X64770Y27940
X82550Y27940
X16510Y22174
X11430Y22174
X16510Y21286
X11430Y21286
X40640Y12700
X28575Y18415
X27946Y17786
X17780Y10541
X17780Y9652
X29204Y19044
X17780Y11430
X29210Y22860
X36830Y29210
X32379Y27311
X36830Y30480
X31750Y27940
X48260Y31750
X13970Y15240
M30