G04 EAGLE Gerber RS-274X export*
G75*
%MOMM*%
%FSLAX34Y34*%
%LPD*%
%INBottom Copper*%
%IPPOS*%
%AMOC8*
5,1,8,0,0,1.08239X$1,22.5*%
G01*
%ADD10C,1.700000*%
%ADD11C,2.000000*%
%ADD12C,1.422400*%
%ADD13P,1.539592X8X292.500000*%
%ADD14C,1.778000*%
%ADD15P,1.415766X8X202.500000*%
%ADD16C,0.685800*%
%ADD17C,0.203200*%
%ADD18C,0.304800*%

G36*
X685858Y2549D02*
X685858Y2549D01*
X685916Y2547D01*
X685998Y2569D01*
X686082Y2581D01*
X686135Y2604D01*
X686191Y2619D01*
X686264Y2662D01*
X686341Y2697D01*
X686386Y2735D01*
X686436Y2764D01*
X686494Y2826D01*
X686558Y2880D01*
X686590Y2929D01*
X686630Y2972D01*
X686669Y3047D01*
X686716Y3117D01*
X686733Y3173D01*
X686760Y3225D01*
X686771Y3293D01*
X686801Y3388D01*
X686804Y3488D01*
X686815Y3556D01*
X686815Y254000D01*
X686815Y274828D01*
X686807Y274886D01*
X686809Y274944D01*
X686787Y275026D01*
X686775Y275110D01*
X686752Y275163D01*
X686737Y275219D01*
X686694Y275292D01*
X686659Y275369D01*
X686621Y275414D01*
X686592Y275464D01*
X686530Y275522D01*
X686476Y275586D01*
X686427Y275618D01*
X686384Y275658D01*
X686309Y275697D01*
X686239Y275744D01*
X686183Y275761D01*
X686131Y275788D01*
X686063Y275799D01*
X685968Y275829D01*
X685868Y275832D01*
X685800Y275843D01*
X652288Y275843D01*
X652201Y275831D01*
X652114Y275828D01*
X652061Y275811D01*
X652006Y275803D01*
X651927Y275768D01*
X651843Y275741D01*
X651804Y275713D01*
X651747Y275687D01*
X651634Y275591D01*
X651570Y275546D01*
X650794Y274770D01*
X648786Y273938D01*
X646614Y273938D01*
X644606Y274770D01*
X643070Y276306D01*
X642238Y278314D01*
X642238Y280486D01*
X643070Y282494D01*
X643846Y283270D01*
X643898Y283340D01*
X643958Y283404D01*
X643984Y283453D01*
X644017Y283497D01*
X644048Y283579D01*
X644088Y283657D01*
X644096Y283704D01*
X644118Y283763D01*
X644130Y283911D01*
X644143Y283988D01*
X644143Y315606D01*
X644131Y315693D01*
X644128Y315780D01*
X644111Y315833D01*
X644103Y315888D01*
X644068Y315968D01*
X644041Y316051D01*
X644013Y316090D01*
X643987Y316147D01*
X643891Y316260D01*
X643846Y316324D01*
X572229Y387941D01*
X572159Y387993D01*
X572095Y388053D01*
X572046Y388079D01*
X572002Y388112D01*
X571920Y388143D01*
X571842Y388183D01*
X571795Y388191D01*
X571736Y388213D01*
X571589Y388225D01*
X571511Y388238D01*
X570414Y388238D01*
X568406Y389070D01*
X566870Y390606D01*
X566038Y392614D01*
X566038Y394786D01*
X566870Y396794D01*
X568406Y398330D01*
X570414Y399162D01*
X572586Y399162D01*
X574594Y398330D01*
X576130Y396794D01*
X576962Y394786D01*
X576962Y393689D01*
X576974Y393602D01*
X576977Y393515D01*
X576994Y393462D01*
X577002Y393407D01*
X577037Y393327D01*
X577064Y393244D01*
X577092Y393205D01*
X577118Y393148D01*
X577214Y393035D01*
X577259Y392971D01*
X651257Y318973D01*
X651257Y283988D01*
X651269Y283901D01*
X651272Y283814D01*
X651289Y283761D01*
X651297Y283706D01*
X651332Y283627D01*
X651359Y283543D01*
X651387Y283504D01*
X651413Y283447D01*
X651472Y283377D01*
X651496Y283336D01*
X651528Y283306D01*
X651554Y283270D01*
X651570Y283254D01*
X651587Y283242D01*
X651596Y283230D01*
X651642Y283200D01*
X651704Y283142D01*
X651753Y283116D01*
X651797Y283083D01*
X651879Y283052D01*
X651957Y283012D01*
X652004Y283004D01*
X652063Y282982D01*
X652210Y282970D01*
X652288Y282957D01*
X685800Y282957D01*
X685858Y282965D01*
X685916Y282963D01*
X685998Y282985D01*
X686082Y282997D01*
X686135Y283020D01*
X686191Y283035D01*
X686264Y283078D01*
X686341Y283113D01*
X686386Y283151D01*
X686436Y283180D01*
X686494Y283242D01*
X686558Y283296D01*
X686590Y283345D01*
X686630Y283388D01*
X686669Y283463D01*
X686716Y283533D01*
X686733Y283589D01*
X686760Y283641D01*
X686771Y283709D01*
X686801Y283804D01*
X686804Y283904D01*
X686815Y283972D01*
X686815Y311034D01*
X686803Y311121D01*
X686800Y311208D01*
X686783Y311261D01*
X686775Y311316D01*
X686740Y311396D01*
X686713Y311479D01*
X686685Y311518D01*
X686659Y311575D01*
X686563Y311688D01*
X686518Y311752D01*
X584929Y413341D01*
X584859Y413393D01*
X584795Y413453D01*
X584746Y413479D01*
X584702Y413512D01*
X584620Y413543D01*
X584542Y413583D01*
X584495Y413591D01*
X584436Y413613D01*
X584289Y413625D01*
X584211Y413638D01*
X583114Y413638D01*
X581106Y414470D01*
X579570Y416006D01*
X578738Y418014D01*
X578738Y420186D01*
X579570Y422194D01*
X581106Y423730D01*
X583114Y424562D01*
X585286Y424562D01*
X587294Y423730D01*
X588830Y422194D01*
X589662Y420186D01*
X589662Y419089D01*
X589674Y419002D01*
X589677Y418915D01*
X589694Y418862D01*
X589702Y418807D01*
X589737Y418727D01*
X589764Y418644D01*
X589792Y418605D01*
X589818Y418548D01*
X589914Y418435D01*
X589959Y418371D01*
X685082Y323248D01*
X685106Y323230D01*
X685125Y323208D01*
X685219Y323145D01*
X685309Y323077D01*
X685337Y323067D01*
X685361Y323050D01*
X685469Y323016D01*
X685575Y322976D01*
X685604Y322973D01*
X685632Y322964D01*
X685746Y322962D01*
X685858Y322952D01*
X685887Y322958D01*
X685916Y322957D01*
X686026Y322986D01*
X686137Y323008D01*
X686163Y323022D01*
X686191Y323029D01*
X686289Y323087D01*
X686389Y323139D01*
X686411Y323159D01*
X686436Y323174D01*
X686513Y323257D01*
X686595Y323335D01*
X686610Y323360D01*
X686630Y323382D01*
X686682Y323482D01*
X686739Y323580D01*
X686746Y323609D01*
X686760Y323635D01*
X686773Y323712D01*
X686809Y323856D01*
X686807Y323918D01*
X686815Y323966D01*
X686815Y336423D01*
X686807Y336481D01*
X686809Y336539D01*
X686787Y336621D01*
X686775Y336705D01*
X686752Y336758D01*
X686737Y336814D01*
X686694Y336887D01*
X686659Y336964D01*
X686621Y337009D01*
X686592Y337059D01*
X686530Y337117D01*
X686476Y337181D01*
X686427Y337213D01*
X686384Y337253D01*
X686309Y337292D01*
X686239Y337339D01*
X686183Y337356D01*
X686131Y337383D01*
X686063Y337394D01*
X685968Y337424D01*
X685868Y337427D01*
X685800Y337438D01*
X684714Y337438D01*
X682706Y338270D01*
X681170Y339806D01*
X680338Y341814D01*
X680338Y343986D01*
X681170Y345994D01*
X682706Y347530D01*
X684714Y348362D01*
X685800Y348362D01*
X685858Y348370D01*
X685916Y348368D01*
X685998Y348390D01*
X686082Y348402D01*
X686135Y348425D01*
X686191Y348440D01*
X686264Y348483D01*
X686341Y348518D01*
X686386Y348556D01*
X686436Y348585D01*
X686494Y348647D01*
X686558Y348701D01*
X686590Y348750D01*
X686630Y348793D01*
X686669Y348868D01*
X686716Y348938D01*
X686733Y348994D01*
X686760Y349046D01*
X686771Y349114D01*
X686801Y349209D01*
X686804Y349309D01*
X686815Y349377D01*
X686815Y729744D01*
X686807Y729802D01*
X686809Y729860D01*
X686787Y729942D01*
X686775Y730026D01*
X686751Y730079D01*
X686737Y730135D01*
X686694Y730208D01*
X686659Y730285D01*
X686621Y730330D01*
X686591Y730380D01*
X686530Y730438D01*
X686475Y730502D01*
X686427Y730534D01*
X686384Y730574D01*
X686309Y730613D01*
X686239Y730660D01*
X686183Y730677D01*
X686131Y730704D01*
X686063Y730715D01*
X685968Y730745D01*
X685868Y730748D01*
X685800Y730759D01*
X12700Y730759D01*
X12644Y730751D01*
X12600Y730754D01*
X10817Y730579D01*
X10540Y730511D01*
X10534Y730508D01*
X10528Y730506D01*
X7231Y729141D01*
X7205Y729125D01*
X7175Y729116D01*
X7111Y729070D01*
X6987Y728996D01*
X6942Y728950D01*
X6902Y728921D01*
X4379Y726398D01*
X4361Y726373D01*
X4337Y726353D01*
X4295Y726286D01*
X4208Y726171D01*
X4185Y726111D01*
X4159Y726069D01*
X2794Y722772D01*
X2736Y722547D01*
X2727Y722521D01*
X2727Y722514D01*
X2723Y722497D01*
X2723Y722490D01*
X2721Y722483D01*
X2546Y720700D01*
X2548Y720643D01*
X2541Y720600D01*
X2541Y12700D01*
X2549Y12644D01*
X2546Y12601D01*
X2721Y10817D01*
X2789Y10540D01*
X2792Y10534D01*
X2794Y10528D01*
X4159Y7231D01*
X4175Y7205D01*
X4184Y7175D01*
X4230Y7111D01*
X4304Y6987D01*
X4307Y6983D01*
X4308Y6981D01*
X4352Y6941D01*
X4379Y6902D01*
X6902Y4379D01*
X6927Y4361D01*
X6947Y4337D01*
X7014Y4295D01*
X7129Y4208D01*
X7189Y4185D01*
X7231Y4159D01*
X10528Y2794D01*
X10803Y2723D01*
X10810Y2723D01*
X10817Y2721D01*
X12600Y2546D01*
X12657Y2548D01*
X12700Y2541D01*
X685800Y2541D01*
X685858Y2549D01*
G37*
G36*
X1104756Y2549D02*
X1104756Y2549D01*
X1104799Y2546D01*
X1106583Y2721D01*
X1106860Y2789D01*
X1106866Y2792D01*
X1106872Y2794D01*
X1110169Y4159D01*
X1110195Y4175D01*
X1110225Y4184D01*
X1110289Y4230D01*
X1110413Y4304D01*
X1110458Y4350D01*
X1110498Y4379D01*
X1113021Y6902D01*
X1113038Y6924D01*
X1113058Y6941D01*
X1113060Y6944D01*
X1113063Y6947D01*
X1113086Y6983D01*
X1113115Y7028D01*
X1113192Y7129D01*
X1113203Y7160D01*
X1113216Y7178D01*
X1113224Y7204D01*
X1113241Y7231D01*
X1114606Y10528D01*
X1114677Y10803D01*
X1114677Y10810D01*
X1114679Y10817D01*
X1114854Y12600D01*
X1114852Y12657D01*
X1114859Y12700D01*
X1114859Y550431D01*
X1114857Y550445D01*
X1114859Y550457D01*
X1114728Y555485D01*
X1114723Y555514D01*
X1114725Y555538D01*
X1114332Y560552D01*
X1114329Y560566D01*
X1114330Y560578D01*
X1114259Y561254D01*
X1113402Y569441D01*
X1113351Y569921D01*
X1113248Y570906D01*
X1113245Y570920D01*
X1113245Y570933D01*
X1112591Y575919D01*
X1112583Y575947D01*
X1112583Y575971D01*
X1111670Y580917D01*
X1111665Y580931D01*
X1111665Y580943D01*
X1111540Y581531D01*
X1111540Y581532D01*
X1111360Y582384D01*
X1106143Y607029D01*
X1106135Y607050D01*
X1106134Y607068D01*
X1104284Y614380D01*
X1104258Y614443D01*
X1104248Y614494D01*
X1098866Y628575D01*
X1098821Y628656D01*
X1098798Y628718D01*
X1091287Y641789D01*
X1091245Y641842D01*
X1091222Y641889D01*
X1086724Y647944D01*
X1086708Y647959D01*
X1086700Y647975D01*
X1068441Y670646D01*
X1067539Y671765D01*
X1067517Y671793D01*
X1067501Y671808D01*
X1067492Y671823D01*
X1062534Y677508D01*
X1062500Y677537D01*
X1062479Y677566D01*
X1057093Y682846D01*
X1057075Y682859D01*
X1057064Y682874D01*
X1056966Y682962D01*
X1054294Y685384D01*
X1054293Y685385D01*
X1053324Y686263D01*
X1053202Y686374D01*
X1053188Y686383D01*
X1053179Y686394D01*
X1048675Y690231D01*
X1048646Y690250D01*
X1048626Y690270D01*
X1043896Y693824D01*
X1043881Y693832D01*
X1043870Y693842D01*
X1042666Y694690D01*
X1023206Y708396D01*
X1023187Y708406D01*
X1023174Y708418D01*
X1016969Y712441D01*
X1016908Y712469D01*
X1016867Y712499D01*
X1003625Y719063D01*
X1003539Y719091D01*
X1003481Y719121D01*
X989391Y723585D01*
X989325Y723596D01*
X989278Y723613D01*
X982018Y725023D01*
X981997Y725024D01*
X981980Y725029D01*
X953778Y729390D01*
X952322Y729615D01*
X952301Y729615D01*
X952284Y729620D01*
X944937Y730469D01*
X944894Y730468D01*
X944860Y730475D01*
X937470Y730759D01*
X937449Y730756D01*
X937431Y730759D01*
X698500Y730759D01*
X698442Y730751D01*
X698384Y730753D01*
X698302Y730731D01*
X698219Y730719D01*
X698165Y730696D01*
X698109Y730681D01*
X698036Y730638D01*
X697959Y730603D01*
X697914Y730565D01*
X697864Y730536D01*
X697806Y730474D01*
X697742Y730420D01*
X697710Y730371D01*
X697670Y730328D01*
X697631Y730253D01*
X697585Y730183D01*
X697567Y730127D01*
X697540Y730075D01*
X697529Y730007D01*
X697499Y729912D01*
X697496Y729812D01*
X697485Y729744D01*
X697485Y347472D01*
X697493Y347414D01*
X697491Y347356D01*
X697513Y347274D01*
X697525Y347190D01*
X697549Y347137D01*
X697563Y347081D01*
X697606Y347008D01*
X697641Y346931D01*
X697679Y346886D01*
X697709Y346836D01*
X697770Y346778D01*
X697825Y346714D01*
X697873Y346682D01*
X697916Y346642D01*
X697991Y346603D01*
X698061Y346556D01*
X698117Y346539D01*
X698169Y346512D01*
X698237Y346501D01*
X698332Y346471D01*
X698432Y346468D01*
X698500Y346457D01*
X760106Y346457D01*
X760193Y346469D01*
X760280Y346472D01*
X760333Y346489D01*
X760388Y346497D01*
X760468Y346532D01*
X760551Y346559D01*
X760590Y346587D01*
X760647Y346613D01*
X760760Y346709D01*
X760824Y346754D01*
X781641Y367571D01*
X781693Y367641D01*
X781753Y367705D01*
X781779Y367754D01*
X781812Y367798D01*
X781843Y367880D01*
X781883Y367958D01*
X781891Y368005D01*
X781913Y368064D01*
X781925Y368211D01*
X781938Y368289D01*
X781938Y369386D01*
X782770Y371394D01*
X784306Y372930D01*
X786314Y373762D01*
X788486Y373762D01*
X790494Y372930D01*
X792030Y371394D01*
X792862Y369386D01*
X792862Y367214D01*
X792030Y365206D01*
X790494Y363670D01*
X788486Y362838D01*
X787389Y362838D01*
X787302Y362826D01*
X787215Y362823D01*
X787162Y362806D01*
X787107Y362798D01*
X787027Y362763D01*
X786944Y362736D01*
X786905Y362708D01*
X786848Y362682D01*
X786735Y362586D01*
X786671Y362541D01*
X763473Y339343D01*
X698500Y339343D01*
X698442Y339335D01*
X698384Y339337D01*
X698302Y339315D01*
X698219Y339303D01*
X698165Y339280D01*
X698109Y339265D01*
X698036Y339222D01*
X697959Y339187D01*
X697914Y339149D01*
X697864Y339120D01*
X697806Y339058D01*
X697742Y339004D01*
X697710Y338955D01*
X697670Y338912D01*
X697631Y338837D01*
X697585Y338767D01*
X697567Y338711D01*
X697540Y338659D01*
X697529Y338591D01*
X697499Y338496D01*
X697496Y338396D01*
X697485Y338328D01*
X697485Y311266D01*
X697497Y311179D01*
X697500Y311092D01*
X697517Y311039D01*
X697525Y310984D01*
X697560Y310904D01*
X697587Y310821D01*
X697615Y310782D01*
X697641Y310725D01*
X697737Y310612D01*
X697782Y310548D01*
X699676Y308654D01*
X699746Y308602D01*
X699810Y308542D01*
X699859Y308516D01*
X699903Y308483D01*
X699985Y308452D01*
X700063Y308412D01*
X700110Y308404D01*
X700169Y308382D01*
X700316Y308370D01*
X700394Y308357D01*
X719312Y308357D01*
X719399Y308369D01*
X719486Y308372D01*
X719539Y308389D01*
X719594Y308397D01*
X719673Y308432D01*
X719757Y308459D01*
X719796Y308487D01*
X719853Y308513D01*
X719966Y308609D01*
X720030Y308654D01*
X720806Y309430D01*
X722814Y310262D01*
X724986Y310262D01*
X726994Y309430D01*
X728530Y307894D01*
X729362Y305886D01*
X729362Y303714D01*
X728530Y301706D01*
X726994Y300170D01*
X724986Y299338D01*
X722814Y299338D01*
X720806Y300170D01*
X720030Y300946D01*
X719960Y300998D01*
X719896Y301058D01*
X719847Y301084D01*
X719803Y301117D01*
X719721Y301148D01*
X719643Y301188D01*
X719596Y301196D01*
X719537Y301218D01*
X719389Y301230D01*
X719312Y301243D01*
X698500Y301243D01*
X698442Y301235D01*
X698384Y301237D01*
X698302Y301215D01*
X698219Y301203D01*
X698165Y301180D01*
X698109Y301165D01*
X698036Y301122D01*
X697959Y301087D01*
X697914Y301049D01*
X697864Y301020D01*
X697806Y300958D01*
X697742Y300904D01*
X697710Y300855D01*
X697670Y300812D01*
X697631Y300737D01*
X697585Y300667D01*
X697567Y300611D01*
X697540Y300559D01*
X697529Y300491D01*
X697499Y300396D01*
X697496Y300296D01*
X697485Y300228D01*
X697485Y283972D01*
X697493Y283914D01*
X697491Y283856D01*
X697513Y283774D01*
X697525Y283690D01*
X697549Y283637D01*
X697563Y283581D01*
X697606Y283508D01*
X697641Y283431D01*
X697679Y283386D01*
X697709Y283336D01*
X697770Y283278D01*
X697825Y283214D01*
X697873Y283182D01*
X697916Y283142D01*
X697991Y283103D01*
X698061Y283056D01*
X698117Y283039D01*
X698169Y283012D01*
X698237Y283001D01*
X698332Y282971D01*
X698432Y282968D01*
X698500Y282957D01*
X750228Y282957D01*
X750315Y282969D01*
X750402Y282972D01*
X750455Y282989D01*
X750509Y282997D01*
X750589Y283032D01*
X750672Y283059D01*
X750712Y283087D01*
X750769Y283113D01*
X750882Y283209D01*
X750946Y283254D01*
X757633Y289942D01*
X766367Y289942D01*
X773054Y283254D01*
X773124Y283202D01*
X773188Y283142D01*
X773237Y283116D01*
X773281Y283083D01*
X773363Y283052D01*
X773441Y283012D01*
X773489Y283004D01*
X773547Y282982D01*
X773695Y282970D01*
X773772Y282957D01*
X820912Y282957D01*
X820999Y282969D01*
X821086Y282972D01*
X821139Y282989D01*
X821194Y282997D01*
X821273Y283032D01*
X821357Y283059D01*
X821396Y283087D01*
X821453Y283113D01*
X821566Y283209D01*
X821630Y283254D01*
X822406Y284030D01*
X824414Y284862D01*
X826586Y284862D01*
X828594Y284030D01*
X830130Y282494D01*
X830962Y280486D01*
X830962Y278314D01*
X830130Y276306D01*
X828594Y274770D01*
X826586Y273938D01*
X824414Y273938D01*
X822406Y274770D01*
X821630Y275546D01*
X821560Y275598D01*
X821496Y275658D01*
X821447Y275684D01*
X821403Y275717D01*
X821321Y275748D01*
X821243Y275788D01*
X821196Y275796D01*
X821137Y275818D01*
X820989Y275830D01*
X820912Y275843D01*
X773038Y275843D01*
X773009Y275839D01*
X772979Y275842D01*
X772868Y275819D01*
X772756Y275803D01*
X772730Y275791D01*
X772701Y275786D01*
X772600Y275734D01*
X772497Y275687D01*
X772474Y275668D01*
X772448Y275655D01*
X772366Y275577D01*
X772280Y275504D01*
X772264Y275479D01*
X772242Y275459D01*
X772185Y275361D01*
X772122Y275267D01*
X772113Y275239D01*
X772099Y275214D01*
X772071Y275104D01*
X772036Y274996D01*
X772036Y274966D01*
X772028Y274938D01*
X772032Y274825D01*
X772029Y274712D01*
X772037Y274683D01*
X772038Y274654D01*
X772072Y274546D01*
X772101Y274437D01*
X772116Y274411D01*
X772125Y274383D01*
X772170Y274320D01*
X772246Y274192D01*
X772292Y274149D01*
X772320Y274110D01*
X813976Y232454D01*
X814046Y232402D01*
X814110Y232342D01*
X814159Y232316D01*
X814203Y232283D01*
X814285Y232252D01*
X814363Y232212D01*
X814410Y232204D01*
X814469Y232182D01*
X814616Y232170D01*
X814694Y232157D01*
X912506Y232157D01*
X912593Y232169D01*
X912680Y232172D01*
X912733Y232189D01*
X912788Y232197D01*
X912868Y232232D01*
X912951Y232259D01*
X912990Y232287D01*
X913047Y232313D01*
X913160Y232409D01*
X913224Y232454D01*
X959441Y278671D01*
X959493Y278741D01*
X959553Y278805D01*
X959579Y278854D01*
X959612Y278898D01*
X959643Y278980D01*
X959683Y279058D01*
X959691Y279105D01*
X959713Y279164D01*
X959725Y279311D01*
X959738Y279389D01*
X959738Y280486D01*
X960570Y282494D01*
X962106Y284030D01*
X964114Y284862D01*
X966286Y284862D01*
X968294Y284030D01*
X969830Y282494D01*
X970662Y280486D01*
X970662Y278314D01*
X969830Y276306D01*
X968294Y274770D01*
X966286Y273938D01*
X965189Y273938D01*
X965102Y273926D01*
X965015Y273923D01*
X964962Y273906D01*
X964907Y273898D01*
X964827Y273863D01*
X964744Y273836D01*
X964705Y273808D01*
X964648Y273782D01*
X964535Y273686D01*
X964471Y273641D01*
X915873Y225043D01*
X811327Y225043D01*
X808946Y227424D01*
X767290Y269080D01*
X767266Y269098D01*
X767247Y269120D01*
X767153Y269183D01*
X767063Y269251D01*
X767035Y269261D01*
X767011Y269278D01*
X766903Y269312D01*
X766797Y269352D01*
X766768Y269355D01*
X766740Y269364D01*
X766626Y269366D01*
X766514Y269376D01*
X766485Y269370D01*
X766456Y269371D01*
X766346Y269342D01*
X766235Y269320D01*
X766209Y269306D01*
X766181Y269299D01*
X766083Y269241D01*
X765983Y269189D01*
X765961Y269169D01*
X765936Y269154D01*
X765859Y269071D01*
X765777Y268993D01*
X765762Y268968D01*
X765742Y268946D01*
X765690Y268846D01*
X765633Y268748D01*
X765626Y268719D01*
X765612Y268693D01*
X765599Y268616D01*
X765563Y268472D01*
X765565Y268410D01*
X765557Y268362D01*
X765557Y169688D01*
X765569Y169601D01*
X765572Y169514D01*
X765589Y169461D01*
X765597Y169406D01*
X765632Y169327D01*
X765659Y169243D01*
X765687Y169204D01*
X765713Y169147D01*
X765809Y169034D01*
X765854Y168970D01*
X766630Y168194D01*
X767462Y166186D01*
X767462Y164014D01*
X766630Y162006D01*
X765094Y160470D01*
X763086Y159638D01*
X760914Y159638D01*
X758906Y160470D01*
X757370Y162006D01*
X756538Y164014D01*
X756538Y166186D01*
X757370Y168194D01*
X758146Y168970D01*
X758198Y169040D01*
X758258Y169104D01*
X758284Y169153D01*
X758317Y169197D01*
X758348Y169279D01*
X758388Y169357D01*
X758396Y169404D01*
X758418Y169463D01*
X758430Y169611D01*
X758443Y169688D01*
X758443Y274812D01*
X758431Y274899D01*
X758428Y274986D01*
X758411Y275039D01*
X758403Y275094D01*
X758368Y275173D01*
X758341Y275257D01*
X758313Y275296D01*
X758287Y275353D01*
X758191Y275466D01*
X758146Y275530D01*
X757370Y276306D01*
X756981Y277244D01*
X756923Y277343D01*
X756870Y277445D01*
X756851Y277465D01*
X756837Y277489D01*
X756753Y277568D01*
X756674Y277651D01*
X756650Y277665D01*
X756630Y277684D01*
X756528Y277737D01*
X756429Y277795D01*
X756402Y277802D01*
X756377Y277815D01*
X756264Y277837D01*
X756153Y277865D01*
X756126Y277864D01*
X756098Y277870D01*
X755984Y277860D01*
X755869Y277856D01*
X755843Y277847D01*
X755815Y277845D01*
X755708Y277804D01*
X755599Y277769D01*
X755578Y277754D01*
X755550Y277743D01*
X755337Y277582D01*
X755325Y277574D01*
X753595Y275843D01*
X698500Y275843D01*
X698442Y275835D01*
X698384Y275837D01*
X698302Y275815D01*
X698219Y275803D01*
X698165Y275780D01*
X698109Y275765D01*
X698036Y275722D01*
X697959Y275687D01*
X697914Y275649D01*
X697864Y275620D01*
X697806Y275558D01*
X697742Y275504D01*
X697710Y275455D01*
X697670Y275412D01*
X697631Y275337D01*
X697585Y275267D01*
X697567Y275211D01*
X697540Y275159D01*
X697529Y275091D01*
X697499Y274996D01*
X697496Y274896D01*
X697485Y274828D01*
X697485Y274531D01*
X697501Y274417D01*
X697511Y274302D01*
X697521Y274276D01*
X697525Y274249D01*
X697572Y274144D01*
X697613Y274037D01*
X697630Y274015D01*
X697641Y273990D01*
X697715Y273902D01*
X697784Y273810D01*
X697807Y273794D01*
X697825Y273773D01*
X697920Y273709D01*
X698012Y273640D01*
X698038Y273630D01*
X698061Y273615D01*
X698171Y273580D01*
X698278Y273540D01*
X698306Y273538D01*
X698332Y273529D01*
X698447Y273526D01*
X698562Y273517D01*
X698586Y273523D01*
X698616Y273522D01*
X698767Y273561D01*
X700986Y273561D01*
X702994Y272730D01*
X704530Y271194D01*
X705361Y269186D01*
X705361Y267013D01*
X704530Y265006D01*
X702994Y263469D01*
X700986Y262638D01*
X699170Y262638D01*
X699083Y262626D01*
X698996Y262623D01*
X698943Y262606D01*
X698889Y262598D01*
X698809Y262562D01*
X698726Y262535D01*
X698686Y262507D01*
X698629Y262482D01*
X698516Y262386D01*
X698452Y262341D01*
X697782Y261671D01*
X697730Y261601D01*
X697670Y261537D01*
X697644Y261487D01*
X697611Y261443D01*
X697580Y261362D01*
X697540Y261284D01*
X697532Y261236D01*
X697510Y261178D01*
X697498Y261030D01*
X697485Y260953D01*
X697485Y3556D01*
X697493Y3498D01*
X697491Y3440D01*
X697513Y3358D01*
X697525Y3274D01*
X697549Y3221D01*
X697563Y3165D01*
X697606Y3092D01*
X697641Y3015D01*
X697679Y2970D01*
X697709Y2920D01*
X697770Y2862D01*
X697825Y2798D01*
X697873Y2766D01*
X697916Y2726D01*
X697991Y2687D01*
X698061Y2640D01*
X698117Y2623D01*
X698169Y2596D01*
X698237Y2585D01*
X698332Y2555D01*
X698432Y2552D01*
X698500Y2541D01*
X1104700Y2541D01*
X1104756Y2549D01*
G37*
%LPC*%
G36*
X811537Y98551D02*
X811537Y98551D01*
X786435Y123654D01*
X786365Y123706D01*
X786301Y123766D01*
X786251Y123792D01*
X786207Y123825D01*
X786126Y123856D01*
X786048Y123896D01*
X786000Y123904D01*
X785942Y123926D01*
X785794Y123938D01*
X785717Y123951D01*
X772160Y123951D01*
X772102Y123943D01*
X772044Y123945D01*
X771962Y123923D01*
X771878Y123911D01*
X771825Y123888D01*
X771769Y123873D01*
X771696Y123830D01*
X771619Y123795D01*
X771574Y123757D01*
X771524Y123728D01*
X771466Y123666D01*
X771402Y123612D01*
X771370Y123563D01*
X771330Y123520D01*
X771291Y123445D01*
X771244Y123375D01*
X771227Y123319D01*
X771200Y123267D01*
X771189Y123199D01*
X771159Y123104D01*
X771156Y123004D01*
X771145Y122936D01*
X771145Y118069D01*
X769753Y114708D01*
X767180Y112135D01*
X763819Y110743D01*
X760181Y110743D01*
X756820Y112135D01*
X754247Y114708D01*
X752855Y118069D01*
X752855Y135931D01*
X754247Y139292D01*
X756820Y141865D01*
X760181Y143257D01*
X763819Y143257D01*
X767180Y141865D01*
X769753Y139292D01*
X771145Y135931D01*
X771145Y131064D01*
X771153Y131006D01*
X771151Y130948D01*
X771173Y130866D01*
X771185Y130782D01*
X771208Y130729D01*
X771223Y130673D01*
X771266Y130600D01*
X771301Y130523D01*
X771339Y130478D01*
X771368Y130428D01*
X771430Y130370D01*
X771484Y130306D01*
X771533Y130274D01*
X771576Y130234D01*
X771651Y130195D01*
X771721Y130148D01*
X771777Y130131D01*
X771829Y130104D01*
X771897Y130093D01*
X771992Y130063D01*
X772092Y130060D01*
X772160Y130049D01*
X788663Y130049D01*
X802177Y116535D01*
X802245Y116483D01*
X802308Y116424D01*
X802358Y116398D01*
X802404Y116364D01*
X802484Y116334D01*
X802560Y116294D01*
X802616Y116283D01*
X802669Y116263D01*
X802755Y116256D01*
X802839Y116239D01*
X802896Y116244D01*
X802953Y116239D01*
X803037Y116256D01*
X803123Y116264D01*
X803176Y116284D01*
X803231Y116295D01*
X803308Y116335D01*
X803388Y116366D01*
X803433Y116400D01*
X803484Y116426D01*
X803546Y116485D01*
X803615Y116537D01*
X803649Y116583D01*
X803690Y116622D01*
X803733Y116696D01*
X803785Y116765D01*
X803805Y116818D01*
X803834Y116867D01*
X803855Y116951D01*
X803885Y117031D01*
X803890Y117088D01*
X803904Y117143D01*
X803901Y117229D01*
X803908Y117314D01*
X803898Y117358D01*
X803898Y117380D01*
X803896Y117390D01*
X803895Y117427D01*
X803851Y117562D01*
X803849Y117570D01*
X803832Y117641D01*
X803655Y118069D01*
X803655Y135931D01*
X805047Y139292D01*
X807620Y141865D01*
X810981Y143257D01*
X814619Y143257D01*
X817980Y141865D01*
X820553Y139292D01*
X821945Y135931D01*
X821945Y118069D01*
X820553Y114708D01*
X817980Y112135D01*
X814619Y110743D01*
X810981Y110743D01*
X810553Y110920D01*
X810470Y110942D01*
X810390Y110972D01*
X810333Y110977D01*
X810278Y110991D01*
X810192Y110989D01*
X810107Y110996D01*
X810051Y110985D01*
X809994Y110983D01*
X809912Y110957D01*
X809828Y110940D01*
X809777Y110914D01*
X809723Y110897D01*
X809652Y110849D01*
X809576Y110809D01*
X809534Y110770D01*
X809487Y110738D01*
X809432Y110673D01*
X809369Y110613D01*
X809341Y110564D01*
X809304Y110521D01*
X809269Y110442D01*
X809226Y110368D01*
X809212Y110313D01*
X809189Y110261D01*
X809177Y110176D01*
X809156Y110093D01*
X809157Y110036D01*
X809150Y109979D01*
X809162Y109894D01*
X809165Y109808D01*
X809182Y109754D01*
X809190Y109698D01*
X809226Y109620D01*
X809252Y109538D01*
X809281Y109498D01*
X809307Y109439D01*
X809402Y109328D01*
X809447Y109265D01*
X813765Y104946D01*
X813835Y104894D01*
X813899Y104834D01*
X813949Y104808D01*
X813993Y104775D01*
X814074Y104744D01*
X814152Y104704D01*
X814200Y104696D01*
X814258Y104674D01*
X814406Y104662D01*
X814483Y104649D01*
X857997Y104649D01*
X858084Y104661D01*
X858171Y104664D01*
X858224Y104681D01*
X858279Y104689D01*
X858358Y104724D01*
X858442Y104751D01*
X858481Y104779D01*
X858538Y104805D01*
X858651Y104901D01*
X858715Y104946D01*
X862779Y109010D01*
X862797Y109034D01*
X862819Y109053D01*
X862882Y109147D01*
X862950Y109237D01*
X862960Y109265D01*
X862977Y109289D01*
X863011Y109397D01*
X863051Y109503D01*
X863054Y109532D01*
X863062Y109560D01*
X863065Y109674D01*
X863075Y109786D01*
X863069Y109815D01*
X863070Y109844D01*
X863041Y109954D01*
X863019Y110065D01*
X863005Y110091D01*
X862998Y110119D01*
X862940Y110217D01*
X862888Y110317D01*
X862868Y110339D01*
X862853Y110364D01*
X862770Y110441D01*
X862692Y110523D01*
X862667Y110538D01*
X862645Y110558D01*
X862544Y110610D01*
X862447Y110667D01*
X862418Y110674D01*
X862392Y110688D01*
X862315Y110701D01*
X862171Y110737D01*
X862109Y110735D01*
X862061Y110743D01*
X861781Y110743D01*
X858420Y112135D01*
X855847Y114708D01*
X854455Y118069D01*
X854455Y132573D01*
X854451Y132602D01*
X854454Y132631D01*
X854431Y132742D01*
X854415Y132855D01*
X854403Y132881D01*
X854398Y132910D01*
X854346Y133011D01*
X854299Y133114D01*
X854280Y133136D01*
X854267Y133162D01*
X854189Y133245D01*
X854116Y133331D01*
X854091Y133347D01*
X854071Y133369D01*
X853973Y133426D01*
X853879Y133489D01*
X853851Y133498D01*
X853826Y133512D01*
X853716Y133540D01*
X853608Y133574D01*
X853578Y133575D01*
X853550Y133582D01*
X853437Y133579D01*
X853324Y133582D01*
X853295Y133574D01*
X853266Y133573D01*
X853158Y133538D01*
X853049Y133510D01*
X853023Y133495D01*
X852995Y133486D01*
X852932Y133440D01*
X852804Y133365D01*
X852761Y133319D01*
X852722Y133291D01*
X847642Y128211D01*
X847590Y128141D01*
X847530Y128077D01*
X847504Y128028D01*
X847471Y127984D01*
X847440Y127902D01*
X847400Y127824D01*
X847392Y127777D01*
X847370Y127718D01*
X847359Y127585D01*
X847359Y127584D01*
X847359Y127582D01*
X847358Y127570D01*
X847345Y127493D01*
X847345Y118069D01*
X845953Y114708D01*
X843380Y112135D01*
X840019Y110743D01*
X836381Y110743D01*
X833020Y112135D01*
X830447Y114708D01*
X829055Y118069D01*
X829055Y135931D01*
X830447Y139292D01*
X833020Y141865D01*
X836381Y143257D01*
X840019Y143257D01*
X843380Y141865D01*
X845953Y139292D01*
X846586Y137763D01*
X846644Y137664D01*
X846697Y137562D01*
X846716Y137542D01*
X846730Y137518D01*
X846814Y137439D01*
X846893Y137356D01*
X846917Y137342D01*
X846937Y137323D01*
X847039Y137270D01*
X847138Y137212D01*
X847165Y137206D01*
X847190Y137193D01*
X847303Y137171D01*
X847414Y137142D01*
X847441Y137143D01*
X847469Y137138D01*
X847583Y137148D01*
X847698Y137151D01*
X847724Y137160D01*
X847752Y137162D01*
X847859Y137204D01*
X847968Y137239D01*
X847989Y137253D01*
X848017Y137264D01*
X848230Y137425D01*
X848242Y137434D01*
X856045Y145237D01*
X856046Y145238D01*
X858129Y147321D01*
X879189Y147321D01*
X879275Y147333D01*
X879363Y147336D01*
X879415Y147353D01*
X879470Y147361D01*
X879550Y147396D01*
X879633Y147423D01*
X879672Y147451D01*
X879730Y147477D01*
X879843Y147573D01*
X879907Y147618D01*
X946741Y214452D01*
X946793Y214522D01*
X946853Y214586D01*
X946879Y214636D01*
X946912Y214680D01*
X946943Y214761D01*
X946983Y214839D01*
X946991Y214887D01*
X947013Y214945D01*
X947025Y215093D01*
X947038Y215170D01*
X947038Y216986D01*
X947870Y218994D01*
X949406Y220530D01*
X951414Y221362D01*
X953586Y221362D01*
X955594Y220530D01*
X957130Y218994D01*
X957962Y216986D01*
X957962Y215424D01*
X957966Y215395D01*
X957963Y215366D01*
X957986Y215255D01*
X958002Y215143D01*
X958014Y215116D01*
X958019Y215087D01*
X958071Y214987D01*
X958118Y214883D01*
X958137Y214861D01*
X958150Y214835D01*
X958228Y214753D01*
X958301Y214666D01*
X958326Y214650D01*
X958346Y214629D01*
X958444Y214572D01*
X958538Y214509D01*
X958566Y214500D01*
X958591Y214485D01*
X958701Y214457D01*
X958809Y214423D01*
X958839Y214422D01*
X958867Y214415D01*
X958980Y214419D01*
X959093Y214416D01*
X959122Y214423D01*
X959151Y214424D01*
X959259Y214459D01*
X959368Y214488D01*
X959394Y214503D01*
X959422Y214512D01*
X959485Y214557D01*
X959613Y214633D01*
X959656Y214678D01*
X959695Y214706D01*
X972141Y227152D01*
X972193Y227222D01*
X972253Y227286D01*
X972279Y227336D01*
X972312Y227380D01*
X972343Y227461D01*
X972383Y227539D01*
X972391Y227587D01*
X972413Y227645D01*
X972422Y227750D01*
X972424Y227758D01*
X972425Y227791D01*
X972425Y227793D01*
X972438Y227870D01*
X972438Y229686D01*
X973270Y231694D01*
X974806Y233230D01*
X976814Y234062D01*
X978986Y234062D01*
X980994Y233230D01*
X982530Y231694D01*
X983362Y229686D01*
X983362Y227514D01*
X982530Y225506D01*
X980994Y223970D01*
X978986Y223138D01*
X977170Y223138D01*
X977084Y223126D01*
X976996Y223123D01*
X976944Y223106D01*
X976889Y223098D01*
X976809Y223063D01*
X976726Y223036D01*
X976687Y223008D01*
X976629Y222982D01*
X976516Y222886D01*
X976452Y222841D01*
X877106Y123495D01*
X877054Y123425D01*
X876994Y123361D01*
X876968Y123311D01*
X876935Y123267D01*
X876904Y123186D01*
X876864Y123108D01*
X876856Y123060D01*
X876834Y123002D01*
X876822Y122854D01*
X876809Y122777D01*
X876809Y114417D01*
X874726Y112334D01*
X874725Y112333D01*
X860943Y98551D01*
X811537Y98551D01*
G37*
%LPD*%
%LPC*%
G36*
X291014Y223138D02*
X291014Y223138D01*
X289006Y223970D01*
X287470Y225506D01*
X286638Y227514D01*
X286638Y229686D01*
X287470Y231694D01*
X289006Y233230D01*
X291014Y234062D01*
X292830Y234062D01*
X292916Y234074D01*
X293004Y234077D01*
X293056Y234094D01*
X293111Y234102D01*
X293191Y234137D01*
X293274Y234164D01*
X293313Y234192D01*
X293371Y234218D01*
X293484Y234314D01*
X293548Y234359D01*
X325107Y265919D01*
X325125Y265942D01*
X325147Y265961D01*
X325210Y266056D01*
X325278Y266146D01*
X325289Y266174D01*
X325305Y266198D01*
X325339Y266306D01*
X325380Y266412D01*
X325382Y266441D01*
X325391Y266469D01*
X325394Y266582D01*
X325403Y266695D01*
X325397Y266724D01*
X325398Y266753D01*
X325369Y266863D01*
X325347Y266974D01*
X325334Y267000D01*
X325326Y267028D01*
X325268Y267126D01*
X325216Y267226D01*
X325196Y267247D01*
X325181Y267273D01*
X325098Y267350D01*
X325020Y267432D01*
X324995Y267447D01*
X324974Y267467D01*
X324873Y267519D01*
X324775Y267576D01*
X324747Y267583D01*
X324721Y267597D01*
X324643Y267610D01*
X324500Y267646D01*
X324437Y267644D01*
X324390Y267652D01*
X322700Y267652D01*
X320692Y268484D01*
X319156Y270020D01*
X318324Y272027D01*
X318324Y272923D01*
X318316Y272981D01*
X318318Y273039D01*
X318296Y273121D01*
X318285Y273205D01*
X318261Y273258D01*
X318246Y273314D01*
X318203Y273387D01*
X318168Y273464D01*
X318131Y273509D01*
X318101Y273559D01*
X318039Y273617D01*
X317985Y273681D01*
X317936Y273713D01*
X317893Y273753D01*
X317818Y273792D01*
X317748Y273839D01*
X317692Y273856D01*
X317640Y273883D01*
X317572Y273894D01*
X317477Y273924D01*
X317377Y273927D01*
X317309Y273938D01*
X316414Y273938D01*
X314406Y274770D01*
X312870Y276306D01*
X312038Y278314D01*
X312038Y280486D01*
X312870Y282494D01*
X314406Y284030D01*
X316414Y284862D01*
X318230Y284862D01*
X318316Y284874D01*
X318404Y284877D01*
X318456Y284894D01*
X318511Y284902D01*
X318591Y284937D01*
X318674Y284964D01*
X318713Y284992D01*
X318771Y285018D01*
X318884Y285114D01*
X318948Y285159D01*
X350527Y316739D01*
X476123Y316739D01*
X476181Y316747D01*
X476239Y316745D01*
X476321Y316767D01*
X476405Y316779D01*
X476458Y316802D01*
X476514Y316817D01*
X476587Y316860D01*
X476664Y316895D01*
X476709Y316933D01*
X476759Y316962D01*
X476817Y317024D01*
X476881Y317078D01*
X476913Y317127D01*
X476953Y317170D01*
X476992Y317245D01*
X477039Y317315D01*
X477056Y317371D01*
X477083Y317423D01*
X477094Y317491D01*
X477124Y317586D01*
X477127Y317686D01*
X477138Y317754D01*
X477138Y318586D01*
X477970Y320594D01*
X479506Y322130D01*
X481514Y322962D01*
X483686Y322962D01*
X485694Y322130D01*
X487230Y320594D01*
X488062Y318586D01*
X488062Y316414D01*
X487230Y314406D01*
X485694Y312870D01*
X483686Y312038D01*
X481870Y312038D01*
X481784Y312026D01*
X481696Y312023D01*
X481644Y312006D01*
X481589Y311998D01*
X481509Y311963D01*
X481426Y311936D01*
X481387Y311908D01*
X481329Y311882D01*
X481216Y311786D01*
X481152Y311741D01*
X480053Y310641D01*
X372634Y310641D01*
X372605Y310637D01*
X372576Y310640D01*
X372464Y310617D01*
X372352Y310601D01*
X372326Y310589D01*
X372297Y310584D01*
X372196Y310531D01*
X372093Y310485D01*
X372071Y310466D01*
X372044Y310453D01*
X371962Y310375D01*
X371876Y310302D01*
X371860Y310277D01*
X371838Y310257D01*
X371781Y310159D01*
X371718Y310065D01*
X371709Y310037D01*
X371695Y310012D01*
X371667Y309902D01*
X371633Y309794D01*
X371632Y309764D01*
X371625Y309736D01*
X371628Y309623D01*
X371625Y309510D01*
X371633Y309481D01*
X371634Y309452D01*
X371668Y309344D01*
X371697Y309235D01*
X371712Y309209D01*
X371721Y309181D01*
X371767Y309117D01*
X371842Y308990D01*
X371888Y308947D01*
X371916Y308908D01*
X372930Y307894D01*
X373762Y305886D01*
X373762Y303714D01*
X372930Y301706D01*
X371394Y300170D01*
X369506Y299388D01*
X369481Y299373D01*
X369453Y299364D01*
X369359Y299301D01*
X369262Y299243D01*
X369241Y299222D01*
X369217Y299206D01*
X369144Y299119D01*
X369066Y299037D01*
X369053Y299011D01*
X369034Y298988D01*
X368988Y298885D01*
X368936Y298784D01*
X368931Y298755D01*
X368919Y298728D01*
X368903Y298616D01*
X368881Y298505D01*
X368884Y298476D01*
X368880Y298447D01*
X368896Y298335D01*
X368906Y298222D01*
X368916Y298195D01*
X368920Y298165D01*
X368967Y298062D01*
X369008Y297957D01*
X369025Y297933D01*
X369037Y297906D01*
X369111Y297820D01*
X369179Y297730D01*
X369203Y297712D01*
X369222Y297690D01*
X369288Y297648D01*
X369407Y297560D01*
X369466Y297538D01*
X369506Y297512D01*
X371394Y296730D01*
X372930Y295194D01*
X373762Y293186D01*
X373762Y291014D01*
X372930Y289006D01*
X371394Y287470D01*
X369386Y286638D01*
X367214Y286638D01*
X365206Y287470D01*
X363922Y288754D01*
X363852Y288806D01*
X363788Y288866D01*
X363739Y288892D01*
X363695Y288925D01*
X363613Y288956D01*
X363535Y288996D01*
X363488Y289004D01*
X363429Y289026D01*
X363281Y289038D01*
X363204Y289051D01*
X357283Y289051D01*
X357197Y289039D01*
X357109Y289036D01*
X357057Y289019D01*
X357002Y289011D01*
X356922Y288976D01*
X356839Y288949D01*
X356800Y288921D01*
X356742Y288895D01*
X356629Y288799D01*
X356565Y288754D01*
X297859Y230048D01*
X297807Y229978D01*
X297747Y229914D01*
X297721Y229864D01*
X297688Y229820D01*
X297657Y229739D01*
X297617Y229661D01*
X297609Y229613D01*
X297587Y229555D01*
X297575Y229407D01*
X297562Y229330D01*
X297562Y227514D01*
X296730Y225506D01*
X295194Y223970D01*
X293186Y223138D01*
X291014Y223138D01*
G37*
%LPD*%
%LPC*%
G36*
X176714Y91058D02*
X176714Y91058D01*
X174706Y91890D01*
X173170Y93426D01*
X172338Y95434D01*
X172338Y97606D01*
X173170Y99614D01*
X173803Y100247D01*
X173838Y100294D01*
X173881Y100334D01*
X173923Y100407D01*
X173974Y100474D01*
X173995Y100529D01*
X174024Y100579D01*
X174045Y100661D01*
X174075Y100740D01*
X174080Y100798D01*
X174094Y100855D01*
X174092Y100939D01*
X174099Y101023D01*
X174087Y101081D01*
X174085Y101139D01*
X174059Y101219D01*
X174043Y101302D01*
X174016Y101354D01*
X173998Y101410D01*
X173958Y101466D01*
X173912Y101554D01*
X173843Y101627D01*
X173803Y101683D01*
X173170Y102316D01*
X172338Y104324D01*
X172338Y106496D01*
X173170Y108504D01*
X173803Y109137D01*
X173838Y109184D01*
X173881Y109224D01*
X173923Y109297D01*
X173974Y109364D01*
X173995Y109419D01*
X174024Y109469D01*
X174045Y109551D01*
X174075Y109630D01*
X174080Y109688D01*
X174094Y109745D01*
X174092Y109829D01*
X174099Y109913D01*
X174087Y109971D01*
X174085Y110029D01*
X174059Y110109D01*
X174043Y110192D01*
X174016Y110244D01*
X173998Y110300D01*
X173958Y110356D01*
X173912Y110444D01*
X173843Y110517D01*
X173803Y110573D01*
X173170Y111206D01*
X172338Y113214D01*
X172338Y115386D01*
X173170Y117394D01*
X174706Y118930D01*
X176714Y119762D01*
X178886Y119762D01*
X180894Y118930D01*
X182178Y117646D01*
X182248Y117594D01*
X182312Y117534D01*
X182361Y117508D01*
X182405Y117475D01*
X182487Y117444D01*
X182565Y117404D01*
X182612Y117396D01*
X182671Y117374D01*
X182819Y117362D01*
X182896Y117349D01*
X190022Y117349D01*
X190109Y117361D01*
X190196Y117364D01*
X190249Y117381D01*
X190303Y117389D01*
X190383Y117424D01*
X190466Y117451D01*
X190506Y117479D01*
X190563Y117505D01*
X190676Y117601D01*
X190740Y117646D01*
X266769Y193676D01*
X287131Y193676D01*
X287218Y193688D01*
X287305Y193691D01*
X287358Y193708D01*
X287413Y193715D01*
X287493Y193751D01*
X287576Y193778D01*
X287615Y193806D01*
X287672Y193832D01*
X287785Y193928D01*
X287849Y193973D01*
X288942Y195066D01*
X290950Y195898D01*
X293123Y195898D01*
X295130Y195066D01*
X296666Y193530D01*
X297498Y191523D01*
X297498Y189350D01*
X296666Y187342D01*
X295130Y185806D01*
X293123Y184974D01*
X292227Y184974D01*
X292169Y184966D01*
X292111Y184968D01*
X292029Y184946D01*
X291946Y184935D01*
X291892Y184911D01*
X291836Y184896D01*
X291763Y184853D01*
X291686Y184818D01*
X291641Y184781D01*
X291591Y184751D01*
X291533Y184689D01*
X291469Y184635D01*
X291437Y184586D01*
X291397Y184543D01*
X291358Y184468D01*
X291312Y184398D01*
X291294Y184342D01*
X291267Y184290D01*
X291256Y184222D01*
X291226Y184127D01*
X291223Y184027D01*
X291212Y183959D01*
X291212Y183064D01*
X290380Y181056D01*
X288844Y179520D01*
X286836Y178688D01*
X285941Y178688D01*
X285883Y178680D01*
X285825Y178682D01*
X285743Y178660D01*
X285659Y178648D01*
X285606Y178624D01*
X285549Y178610D01*
X285477Y178567D01*
X285400Y178532D01*
X285355Y178494D01*
X285305Y178464D01*
X285247Y178403D01*
X285183Y178348D01*
X285151Y178300D01*
X285111Y178257D01*
X285072Y178182D01*
X285025Y178112D01*
X285008Y178056D01*
X284981Y178004D01*
X284970Y177936D01*
X284940Y177841D01*
X284937Y177741D01*
X284926Y177673D01*
X284926Y176777D01*
X284094Y174770D01*
X282558Y173234D01*
X280550Y172402D01*
X278377Y172402D01*
X276370Y173234D01*
X275086Y174518D01*
X275016Y174570D01*
X274952Y174630D01*
X274903Y174655D01*
X274859Y174689D01*
X274777Y174720D01*
X274699Y174760D01*
X274652Y174767D01*
X274593Y174790D01*
X274445Y174802D01*
X274368Y174815D01*
X268447Y174815D01*
X268360Y174803D01*
X268273Y174800D01*
X268220Y174783D01*
X268166Y174775D01*
X268086Y174739D01*
X268003Y174713D01*
X267963Y174685D01*
X267906Y174659D01*
X267793Y174563D01*
X267729Y174518D01*
X186683Y93471D01*
X182896Y93471D01*
X182809Y93459D01*
X182722Y93456D01*
X182669Y93439D01*
X182614Y93431D01*
X182535Y93396D01*
X182451Y93369D01*
X182412Y93341D01*
X182355Y93315D01*
X182242Y93219D01*
X182178Y93174D01*
X180894Y91890D01*
X178886Y91058D01*
X176714Y91058D01*
G37*
%LPD*%
%LPC*%
G36*
X516912Y54355D02*
X516912Y54355D01*
X511555Y59712D01*
X511555Y67288D01*
X513146Y68878D01*
X513163Y68902D01*
X513186Y68921D01*
X513248Y69015D01*
X513316Y69105D01*
X513327Y69133D01*
X513343Y69157D01*
X513377Y69265D01*
X513418Y69371D01*
X513420Y69400D01*
X513429Y69428D01*
X513432Y69542D01*
X513441Y69654D01*
X513435Y69683D01*
X513436Y69712D01*
X513408Y69822D01*
X513385Y69933D01*
X513372Y69959D01*
X513364Y69987D01*
X513307Y70085D01*
X513254Y70185D01*
X513234Y70207D01*
X513219Y70232D01*
X513137Y70309D01*
X513059Y70391D01*
X513033Y70406D01*
X513012Y70426D01*
X512911Y70478D01*
X512813Y70535D01*
X512785Y70542D01*
X512759Y70556D01*
X512681Y70569D01*
X512538Y70605D01*
X512475Y70603D01*
X512428Y70611D01*
X458477Y70611D01*
X407848Y121241D01*
X407778Y121293D01*
X407714Y121353D01*
X407664Y121379D01*
X407620Y121412D01*
X407539Y121443D01*
X407461Y121483D01*
X407413Y121491D01*
X407355Y121513D01*
X407207Y121525D01*
X407130Y121538D01*
X405314Y121538D01*
X403306Y122370D01*
X401770Y123906D01*
X400938Y125914D01*
X400938Y128086D01*
X401770Y130094D01*
X403306Y131630D01*
X405314Y132462D01*
X407486Y132462D01*
X409494Y131630D01*
X411030Y130094D01*
X411862Y128086D01*
X411862Y126270D01*
X411874Y126184D01*
X411877Y126096D01*
X411894Y126044D01*
X411902Y125989D01*
X411937Y125909D01*
X411964Y125826D01*
X411992Y125787D01*
X412018Y125729D01*
X412114Y125616D01*
X412159Y125552D01*
X460705Y77006D01*
X460775Y76954D01*
X460839Y76894D01*
X460889Y76868D01*
X460933Y76835D01*
X461014Y76804D01*
X461092Y76764D01*
X461140Y76756D01*
X461198Y76734D01*
X461346Y76722D01*
X461423Y76709D01*
X526171Y76709D01*
X528254Y74626D01*
X528255Y74625D01*
X535556Y67324D01*
X535603Y67289D01*
X535643Y67247D01*
X535716Y67204D01*
X535783Y67153D01*
X535838Y67132D01*
X535888Y67103D01*
X535970Y67082D01*
X536049Y67052D01*
X536107Y67047D01*
X536164Y67033D01*
X536248Y67035D01*
X536332Y67028D01*
X536389Y67040D01*
X536448Y67042D01*
X536528Y67068D01*
X536611Y67084D01*
X536663Y67111D01*
X536718Y67129D01*
X536774Y67169D01*
X536863Y67215D01*
X536935Y67284D01*
X536992Y67324D01*
X542312Y72645D01*
X549888Y72645D01*
X555245Y67288D01*
X555245Y59712D01*
X549888Y54355D01*
X542312Y54355D01*
X536890Y59778D01*
X536877Y59827D01*
X536834Y59900D01*
X536799Y59977D01*
X536761Y60022D01*
X536732Y60072D01*
X536670Y60130D01*
X536616Y60194D01*
X536567Y60226D01*
X536524Y60266D01*
X536449Y60305D01*
X536379Y60352D01*
X536323Y60369D01*
X536271Y60396D01*
X536203Y60407D01*
X536108Y60437D01*
X536008Y60440D01*
X535940Y60451D01*
X533806Y60451D01*
X531578Y62679D01*
X531554Y62697D01*
X531535Y62719D01*
X531441Y62782D01*
X531351Y62850D01*
X531323Y62860D01*
X531299Y62877D01*
X531191Y62911D01*
X531085Y62951D01*
X531056Y62954D01*
X531028Y62962D01*
X530914Y62965D01*
X530802Y62975D01*
X530773Y62969D01*
X530744Y62970D01*
X530634Y62941D01*
X530523Y62919D01*
X530497Y62905D01*
X530469Y62898D01*
X530371Y62840D01*
X530271Y62788D01*
X530249Y62768D01*
X530224Y62753D01*
X530147Y62670D01*
X530065Y62592D01*
X530050Y62567D01*
X530030Y62545D01*
X529978Y62444D01*
X529921Y62347D01*
X529914Y62318D01*
X529900Y62292D01*
X529887Y62215D01*
X529851Y62071D01*
X529853Y62009D01*
X529845Y61961D01*
X529845Y59712D01*
X524488Y54355D01*
X516912Y54355D01*
G37*
%LPD*%
%LPC*%
G36*
X113214Y207393D02*
X113214Y207393D01*
X111206Y208225D01*
X109670Y209761D01*
X108838Y211769D01*
X108838Y213941D01*
X109670Y215949D01*
X110303Y216582D01*
X110338Y216629D01*
X110381Y216669D01*
X110423Y216742D01*
X110474Y216809D01*
X110495Y216864D01*
X110524Y216914D01*
X110545Y216996D01*
X110575Y217075D01*
X110580Y217133D01*
X110594Y217190D01*
X110592Y217274D01*
X110599Y217358D01*
X110587Y217416D01*
X110585Y217474D01*
X110559Y217554D01*
X110543Y217637D01*
X110516Y217689D01*
X110498Y217745D01*
X110458Y217801D01*
X110412Y217889D01*
X110343Y217962D01*
X110303Y218018D01*
X109670Y218651D01*
X108838Y220659D01*
X108838Y222831D01*
X109670Y224839D01*
X111206Y226375D01*
X113214Y227207D01*
X115386Y227207D01*
X117394Y226375D01*
X118678Y225091D01*
X118748Y225039D01*
X118812Y224979D01*
X118861Y224953D01*
X118905Y224920D01*
X118987Y224889D01*
X119065Y224849D01*
X119112Y224841D01*
X119171Y224819D01*
X119319Y224807D01*
X119396Y224794D01*
X160004Y224794D01*
X160091Y224806D01*
X160178Y224809D01*
X160231Y224826D01*
X160286Y224834D01*
X160365Y224869D01*
X160449Y224896D01*
X160488Y224924D01*
X160545Y224950D01*
X160658Y225046D01*
X160722Y225091D01*
X162006Y226375D01*
X164014Y227207D01*
X166186Y227207D01*
X168194Y226375D01*
X169730Y224839D01*
X170562Y222831D01*
X170562Y220659D01*
X169730Y218651D01*
X169097Y218018D01*
X169062Y217971D01*
X169019Y217931D01*
X168977Y217858D01*
X168926Y217791D01*
X168905Y217736D01*
X168876Y217686D01*
X168855Y217604D01*
X168825Y217525D01*
X168820Y217467D01*
X168806Y217410D01*
X168808Y217326D01*
X168801Y217242D01*
X168813Y217184D01*
X168815Y217126D01*
X168841Y217046D01*
X168857Y216963D01*
X168884Y216911D01*
X168902Y216855D01*
X168942Y216799D01*
X168988Y216711D01*
X169057Y216638D01*
X169097Y216582D01*
X169730Y215949D01*
X170562Y213941D01*
X170562Y211769D01*
X169730Y209761D01*
X168194Y208225D01*
X166186Y207393D01*
X164014Y207393D01*
X162006Y208225D01*
X160722Y209509D01*
X160652Y209561D01*
X160588Y209621D01*
X160539Y209647D01*
X160495Y209680D01*
X160413Y209711D01*
X160335Y209751D01*
X160288Y209759D01*
X160229Y209781D01*
X160081Y209793D01*
X160004Y209806D01*
X119396Y209806D01*
X119309Y209794D01*
X119222Y209791D01*
X119169Y209774D01*
X119114Y209766D01*
X119035Y209731D01*
X118951Y209704D01*
X118912Y209676D01*
X118855Y209650D01*
X118742Y209554D01*
X118678Y209509D01*
X117394Y208225D01*
X115386Y207393D01*
X113214Y207393D01*
G37*
%LPD*%
%LPC*%
G36*
X193707Y612967D02*
X193707Y612967D01*
X189284Y614799D01*
X185899Y618184D01*
X184067Y622607D01*
X184067Y647393D01*
X185899Y651816D01*
X189284Y655201D01*
X193707Y657033D01*
X198493Y657033D01*
X202916Y655201D01*
X206301Y651816D01*
X208133Y647393D01*
X208133Y622607D01*
X206301Y618184D01*
X202916Y614799D01*
X198493Y612967D01*
X193707Y612967D01*
G37*
%LPD*%
%LPC*%
G36*
X214814Y231838D02*
X214814Y231838D01*
X212806Y232670D01*
X211270Y234206D01*
X210438Y236214D01*
X210438Y237311D01*
X210426Y237398D01*
X210423Y237485D01*
X210406Y237538D01*
X210398Y237593D01*
X210363Y237673D01*
X210336Y237756D01*
X210308Y237795D01*
X210282Y237852D01*
X210186Y237965D01*
X210141Y238029D01*
X174243Y273927D01*
X174243Y325612D01*
X174231Y325699D01*
X174228Y325786D01*
X174211Y325839D01*
X174203Y325894D01*
X174168Y325973D01*
X174141Y326057D01*
X174113Y326096D01*
X174087Y326153D01*
X173991Y326266D01*
X173946Y326330D01*
X173170Y327106D01*
X172338Y329114D01*
X172338Y331286D01*
X173170Y333294D01*
X174706Y334830D01*
X176714Y335662D01*
X178886Y335662D01*
X180894Y334830D01*
X182430Y333294D01*
X183262Y331286D01*
X183262Y329114D01*
X182430Y327106D01*
X181654Y326330D01*
X181602Y326260D01*
X181542Y326196D01*
X181516Y326147D01*
X181483Y326103D01*
X181452Y326021D01*
X181412Y325943D01*
X181404Y325896D01*
X181382Y325837D01*
X181370Y325689D01*
X181357Y325612D01*
X181357Y277294D01*
X181369Y277207D01*
X181372Y277120D01*
X181389Y277067D01*
X181397Y277012D01*
X181432Y276932D01*
X181459Y276849D01*
X181487Y276810D01*
X181513Y276753D01*
X181609Y276640D01*
X181654Y276576D01*
X215171Y243059D01*
X215241Y243007D01*
X215305Y242947D01*
X215354Y242921D01*
X215398Y242888D01*
X215480Y242857D01*
X215558Y242817D01*
X215605Y242809D01*
X215664Y242787D01*
X215811Y242775D01*
X215889Y242762D01*
X216986Y242762D01*
X218994Y241930D01*
X220530Y240394D01*
X221362Y238386D01*
X221362Y236214D01*
X220530Y234206D01*
X218994Y232670D01*
X216986Y231838D01*
X214814Y231838D01*
G37*
%LPD*%
%LPC*%
G36*
X302981Y21843D02*
X302981Y21843D01*
X299620Y23235D01*
X297047Y25808D01*
X295655Y29169D01*
X295655Y47031D01*
X297047Y50392D01*
X299620Y52965D01*
X302981Y54357D01*
X306619Y54357D01*
X309980Y52965D01*
X312553Y50392D01*
X313945Y47031D01*
X313945Y29169D01*
X312553Y25808D01*
X309980Y23235D01*
X306619Y21843D01*
X302981Y21843D01*
G37*
%LPD*%
%LPC*%
G36*
X379181Y21843D02*
X379181Y21843D01*
X375820Y23235D01*
X373247Y25808D01*
X371855Y29169D01*
X371855Y47031D01*
X373247Y50392D01*
X375820Y52965D01*
X379181Y54357D01*
X382819Y54357D01*
X386180Y52965D01*
X388753Y50392D01*
X390145Y47031D01*
X390145Y29169D01*
X388753Y25808D01*
X386180Y23235D01*
X382819Y21843D01*
X379181Y21843D01*
G37*
%LPD*%
%LPC*%
G36*
X404581Y21843D02*
X404581Y21843D01*
X401220Y23235D01*
X398647Y25808D01*
X397255Y29169D01*
X397255Y47031D01*
X398647Y50392D01*
X401220Y52965D01*
X404581Y54357D01*
X408219Y54357D01*
X411580Y52965D01*
X414153Y50392D01*
X415545Y47031D01*
X415545Y29169D01*
X414153Y25808D01*
X411580Y23235D01*
X408219Y21843D01*
X404581Y21843D01*
G37*
%LPD*%
%LPC*%
G36*
X41869Y41655D02*
X41869Y41655D01*
X38508Y43047D01*
X35935Y45620D01*
X34543Y48981D01*
X34543Y52619D01*
X35935Y55980D01*
X38508Y58553D01*
X41869Y59945D01*
X59731Y59945D01*
X63092Y58553D01*
X65665Y55980D01*
X67057Y52619D01*
X67057Y48981D01*
X65665Y45620D01*
X63092Y43047D01*
X59731Y41655D01*
X41869Y41655D01*
G37*
%LPD*%
%LPC*%
G36*
X41869Y67055D02*
X41869Y67055D01*
X38508Y68447D01*
X35935Y71020D01*
X34543Y74381D01*
X34543Y78019D01*
X35935Y81380D01*
X38508Y83953D01*
X41869Y85345D01*
X59731Y85345D01*
X63092Y83953D01*
X65665Y81380D01*
X67057Y78019D01*
X67057Y74381D01*
X65665Y71020D01*
X63092Y68447D01*
X59731Y67055D01*
X41869Y67055D01*
G37*
%LPD*%
%LPC*%
G36*
X92669Y67055D02*
X92669Y67055D01*
X89308Y68447D01*
X86735Y71020D01*
X85343Y74381D01*
X85343Y78019D01*
X86735Y81380D01*
X89308Y83953D01*
X92669Y85345D01*
X110531Y85345D01*
X113892Y83953D01*
X116465Y81380D01*
X117857Y78019D01*
X117857Y74381D01*
X116465Y71020D01*
X113892Y68447D01*
X110531Y67055D01*
X92669Y67055D01*
G37*
%LPD*%
%LPC*%
G36*
X709381Y110743D02*
X709381Y110743D01*
X706020Y112135D01*
X703447Y114708D01*
X702055Y118069D01*
X702055Y135931D01*
X703447Y139292D01*
X706020Y141865D01*
X709381Y143257D01*
X713019Y143257D01*
X716380Y141865D01*
X718953Y139292D01*
X720345Y135931D01*
X720345Y118069D01*
X718953Y114708D01*
X716380Y112135D01*
X713019Y110743D01*
X709381Y110743D01*
G37*
%LPD*%
%LPC*%
G36*
X734781Y110743D02*
X734781Y110743D01*
X731420Y112135D01*
X728847Y114708D01*
X727455Y118069D01*
X727455Y135931D01*
X728847Y139292D01*
X731420Y141865D01*
X734781Y143257D01*
X738419Y143257D01*
X741780Y141865D01*
X744353Y139292D01*
X745745Y135931D01*
X745745Y118069D01*
X744353Y114708D01*
X741780Y112135D01*
X738419Y110743D01*
X734781Y110743D01*
G37*
%LPD*%
%LPC*%
G36*
X252181Y21843D02*
X252181Y21843D01*
X248820Y23235D01*
X246247Y25808D01*
X244855Y29169D01*
X244855Y47031D01*
X246247Y50392D01*
X248820Y52965D01*
X252181Y54357D01*
X255819Y54357D01*
X259180Y52965D01*
X261753Y50392D01*
X263145Y47031D01*
X263145Y29169D01*
X261753Y25808D01*
X259180Y23235D01*
X255819Y21843D01*
X252181Y21843D01*
G37*
%LPD*%
%LPC*%
G36*
X913314Y197738D02*
X913314Y197738D01*
X911306Y198570D01*
X909770Y200106D01*
X908938Y202114D01*
X908938Y203930D01*
X908926Y204016D01*
X908923Y204104D01*
X908906Y204156D01*
X908898Y204211D01*
X908863Y204291D01*
X908836Y204374D01*
X908808Y204413D01*
X908782Y204471D01*
X908686Y204584D01*
X908641Y204648D01*
X900735Y212554D01*
X900665Y212606D01*
X900601Y212666D01*
X900551Y212692D01*
X900507Y212725D01*
X900426Y212756D01*
X900348Y212796D01*
X900300Y212804D01*
X900242Y212826D01*
X900094Y212838D01*
X900017Y212851D01*
X868696Y212851D01*
X868609Y212839D01*
X868522Y212836D01*
X868469Y212819D01*
X868414Y212811D01*
X868335Y212776D01*
X868251Y212749D01*
X868212Y212721D01*
X868155Y212695D01*
X868042Y212599D01*
X867978Y212554D01*
X866694Y211270D01*
X864686Y210438D01*
X862514Y210438D01*
X860506Y211270D01*
X858970Y212806D01*
X858138Y214814D01*
X858138Y216986D01*
X858970Y218994D01*
X860506Y220530D01*
X862514Y221362D01*
X864686Y221362D01*
X866694Y220530D01*
X867978Y219246D01*
X868048Y219194D01*
X868112Y219134D01*
X868161Y219108D01*
X868205Y219075D01*
X868287Y219044D01*
X868365Y219004D01*
X868412Y218996D01*
X868471Y218974D01*
X868619Y218962D01*
X868696Y218949D01*
X902963Y218949D01*
X912952Y208959D01*
X913022Y208907D01*
X913086Y208847D01*
X913136Y208821D01*
X913180Y208788D01*
X913261Y208757D01*
X913339Y208717D01*
X913387Y208709D01*
X913445Y208687D01*
X913593Y208675D01*
X913670Y208662D01*
X915486Y208662D01*
X917494Y207830D01*
X919030Y206294D01*
X919862Y204286D01*
X919862Y202114D01*
X919030Y200106D01*
X917494Y198570D01*
X915486Y197738D01*
X913314Y197738D01*
G37*
%LPD*%
%LPC*%
G36*
X1001127Y77977D02*
X1001127Y77977D01*
X997113Y79640D01*
X994040Y82713D01*
X992377Y86727D01*
X992377Y91073D01*
X994040Y95087D01*
X997113Y98160D01*
X1001127Y99823D01*
X1005473Y99823D01*
X1009487Y98160D01*
X1012560Y95087D01*
X1014223Y91073D01*
X1014223Y86727D01*
X1012560Y82713D01*
X1009487Y79640D01*
X1005473Y77977D01*
X1001127Y77977D01*
G37*
%LPD*%
%LPC*%
G36*
X455105Y421267D02*
X455105Y421267D01*
X451234Y422871D01*
X448271Y425834D01*
X446667Y429705D01*
X446667Y433895D01*
X448271Y437766D01*
X451234Y440729D01*
X455105Y442333D01*
X459295Y442333D01*
X463166Y440729D01*
X466129Y437766D01*
X467733Y433895D01*
X467733Y429705D01*
X466129Y425834D01*
X463166Y422871D01*
X459295Y421267D01*
X455105Y421267D01*
G37*
%LPD*%
%LPC*%
G36*
X353505Y421267D02*
X353505Y421267D01*
X349634Y422871D01*
X346671Y425834D01*
X345067Y429705D01*
X345067Y433895D01*
X346671Y437766D01*
X349634Y440729D01*
X353505Y442333D01*
X357695Y442333D01*
X361566Y440729D01*
X364529Y437766D01*
X366133Y433895D01*
X366133Y429705D01*
X364529Y425834D01*
X361566Y422871D01*
X357695Y421267D01*
X353505Y421267D01*
G37*
%LPD*%
%LPC*%
G36*
X429705Y421267D02*
X429705Y421267D01*
X425834Y422871D01*
X422871Y425834D01*
X421267Y429705D01*
X421267Y433895D01*
X422871Y437766D01*
X425834Y440729D01*
X429705Y442333D01*
X433895Y442333D01*
X437766Y440729D01*
X440729Y437766D01*
X442333Y433895D01*
X442333Y429705D01*
X440729Y425834D01*
X437766Y422871D01*
X433895Y421267D01*
X429705Y421267D01*
G37*
%LPD*%
%LPC*%
G36*
X531305Y421267D02*
X531305Y421267D01*
X527434Y422871D01*
X524471Y425834D01*
X522867Y429705D01*
X522867Y433895D01*
X524471Y437766D01*
X527434Y440729D01*
X531305Y442333D01*
X535495Y442333D01*
X539366Y440729D01*
X542329Y437766D01*
X543933Y433895D01*
X543933Y429705D01*
X542329Y425834D01*
X539366Y422871D01*
X535495Y421267D01*
X531305Y421267D01*
G37*
%LPD*%
%LPC*%
G36*
X531305Y446667D02*
X531305Y446667D01*
X527434Y448271D01*
X524471Y451234D01*
X522867Y455105D01*
X522867Y459295D01*
X524471Y463166D01*
X527434Y466129D01*
X531305Y467733D01*
X535495Y467733D01*
X539366Y466129D01*
X542329Y463166D01*
X543933Y459295D01*
X543933Y455105D01*
X542329Y451234D01*
X539366Y448271D01*
X535495Y446667D01*
X531305Y446667D01*
G37*
%LPD*%
%LPC*%
G36*
X455105Y446667D02*
X455105Y446667D01*
X451234Y448271D01*
X448271Y451234D01*
X446667Y455105D01*
X446667Y459295D01*
X448271Y463166D01*
X451234Y466129D01*
X455105Y467733D01*
X459295Y467733D01*
X463166Y466129D01*
X466129Y463166D01*
X467733Y459295D01*
X467733Y455105D01*
X466129Y451234D01*
X463166Y448271D01*
X459295Y446667D01*
X455105Y446667D01*
G37*
%LPD*%
%LPC*%
G36*
X710114Y197738D02*
X710114Y197738D01*
X708106Y198570D01*
X706570Y200106D01*
X705738Y202114D01*
X705738Y204286D01*
X706570Y206294D01*
X708106Y207830D01*
X710114Y208662D01*
X712286Y208662D01*
X714294Y207830D01*
X715578Y206546D01*
X715648Y206494D01*
X715712Y206434D01*
X715761Y206408D01*
X715805Y206375D01*
X715887Y206344D01*
X715965Y206304D01*
X716012Y206296D01*
X716071Y206274D01*
X716219Y206262D01*
X716296Y206249D01*
X722217Y206249D01*
X722303Y206261D01*
X722391Y206264D01*
X722443Y206281D01*
X722498Y206289D01*
X722578Y206324D01*
X722661Y206351D01*
X722700Y206379D01*
X722758Y206405D01*
X722871Y206501D01*
X722935Y206546D01*
X730841Y214452D01*
X730893Y214522D01*
X730953Y214586D01*
X730979Y214636D01*
X731012Y214680D01*
X731043Y214761D01*
X731083Y214839D01*
X731091Y214887D01*
X731113Y214945D01*
X731125Y215093D01*
X731138Y215170D01*
X731138Y216986D01*
X731970Y218994D01*
X733506Y220530D01*
X735514Y221362D01*
X737686Y221362D01*
X739694Y220530D01*
X741230Y218994D01*
X742062Y216986D01*
X742062Y214814D01*
X741230Y212806D01*
X739694Y211270D01*
X737686Y210438D01*
X735870Y210438D01*
X735784Y210426D01*
X735696Y210423D01*
X735644Y210406D01*
X735589Y210398D01*
X735509Y210363D01*
X735426Y210336D01*
X735387Y210308D01*
X735329Y210282D01*
X735216Y210186D01*
X735152Y210141D01*
X725163Y200151D01*
X716296Y200151D01*
X716209Y200139D01*
X716122Y200136D01*
X716069Y200119D01*
X716014Y200111D01*
X715935Y200076D01*
X715851Y200049D01*
X715812Y200021D01*
X715755Y199995D01*
X715642Y199899D01*
X715578Y199854D01*
X714294Y198570D01*
X712286Y197738D01*
X710114Y197738D01*
G37*
%LPD*%
%LPC*%
G36*
X138614Y146938D02*
X138614Y146938D01*
X136606Y147770D01*
X135070Y149306D01*
X134238Y151314D01*
X134238Y153130D01*
X134226Y153216D01*
X134223Y153304D01*
X134206Y153356D01*
X134198Y153411D01*
X134163Y153491D01*
X134136Y153574D01*
X134108Y153613D01*
X134082Y153671D01*
X133986Y153784D01*
X133941Y153848D01*
X123951Y163837D01*
X123951Y172704D01*
X123939Y172791D01*
X123936Y172878D01*
X123919Y172931D01*
X123911Y172986D01*
X123876Y173065D01*
X123849Y173149D01*
X123821Y173188D01*
X123795Y173245D01*
X123699Y173358D01*
X123654Y173422D01*
X122370Y174706D01*
X121538Y176714D01*
X121538Y178886D01*
X122370Y180894D01*
X123906Y182430D01*
X125914Y183262D01*
X128086Y183262D01*
X130094Y182430D01*
X131630Y180894D01*
X132462Y178886D01*
X132462Y176714D01*
X131630Y174706D01*
X130346Y173422D01*
X130294Y173352D01*
X130234Y173288D01*
X130208Y173239D01*
X130175Y173195D01*
X130144Y173113D01*
X130104Y173035D01*
X130096Y172988D01*
X130074Y172929D01*
X130062Y172781D01*
X130049Y172704D01*
X130049Y166783D01*
X130061Y166697D01*
X130064Y166609D01*
X130081Y166557D01*
X130089Y166502D01*
X130124Y166422D01*
X130151Y166339D01*
X130179Y166300D01*
X130205Y166242D01*
X130301Y166129D01*
X130346Y166065D01*
X138252Y158159D01*
X138322Y158107D01*
X138386Y158047D01*
X138436Y158021D01*
X138480Y157988D01*
X138561Y157957D01*
X138639Y157917D01*
X138687Y157909D01*
X138745Y157887D01*
X138893Y157875D01*
X138970Y157862D01*
X140786Y157862D01*
X142794Y157030D01*
X144330Y155494D01*
X145162Y153486D01*
X145162Y151314D01*
X144330Y149306D01*
X142794Y147770D01*
X140786Y146938D01*
X138614Y146938D01*
G37*
%LPD*%
%LPC*%
G36*
X240214Y108838D02*
X240214Y108838D01*
X238206Y109670D01*
X236670Y111206D01*
X235838Y113214D01*
X235838Y115386D01*
X236670Y117394D01*
X238206Y118930D01*
X240214Y119762D01*
X242386Y119762D01*
X244394Y118930D01*
X245678Y117646D01*
X245748Y117594D01*
X245812Y117534D01*
X245861Y117508D01*
X245905Y117475D01*
X245987Y117444D01*
X246065Y117404D01*
X246112Y117396D01*
X246171Y117374D01*
X246319Y117362D01*
X246396Y117349D01*
X259523Y117349D01*
X259610Y117361D01*
X259697Y117364D01*
X259750Y117381D01*
X259805Y117389D01*
X259885Y117424D01*
X259968Y117451D01*
X260007Y117479D01*
X260064Y117505D01*
X260177Y117601D01*
X260241Y117646D01*
X261671Y119075D01*
X261723Y119145D01*
X261783Y119209D01*
X261808Y119259D01*
X261841Y119303D01*
X261873Y119384D01*
X261912Y119462D01*
X261920Y119510D01*
X261943Y119568D01*
X261955Y119716D01*
X261968Y119793D01*
X261968Y121609D01*
X262799Y123617D01*
X264336Y125153D01*
X266343Y125985D01*
X268516Y125985D01*
X270524Y125153D01*
X272060Y123617D01*
X272891Y121609D01*
X272891Y119437D01*
X272060Y117429D01*
X270524Y115893D01*
X268516Y115061D01*
X266700Y115061D01*
X266613Y115049D01*
X266526Y115046D01*
X266473Y115029D01*
X266418Y115021D01*
X266339Y114986D01*
X266255Y114959D01*
X266216Y114931D01*
X266159Y114905D01*
X266046Y114809D01*
X265982Y114764D01*
X262469Y111251D01*
X246396Y111251D01*
X246309Y111239D01*
X246222Y111236D01*
X246169Y111219D01*
X246114Y111211D01*
X246035Y111176D01*
X245951Y111149D01*
X245912Y111121D01*
X245855Y111095D01*
X245742Y110999D01*
X245678Y110954D01*
X244394Y109670D01*
X242386Y108838D01*
X240214Y108838D01*
G37*
%LPD*%
%LPC*%
G36*
X542312Y105155D02*
X542312Y105155D01*
X536955Y110512D01*
X536955Y118088D01*
X542312Y123445D01*
X549888Y123445D01*
X555245Y118088D01*
X555245Y110512D01*
X549888Y105155D01*
X542312Y105155D01*
G37*
%LPD*%
%LPC*%
G36*
X516912Y79755D02*
X516912Y79755D01*
X511555Y85112D01*
X511555Y92688D01*
X516912Y98045D01*
X524488Y98045D01*
X529845Y92688D01*
X529845Y85112D01*
X524488Y79755D01*
X516912Y79755D01*
G37*
%LPD*%
%LPC*%
G36*
X542312Y79755D02*
X542312Y79755D01*
X536955Y85112D01*
X536955Y92688D01*
X542312Y98045D01*
X549888Y98045D01*
X555245Y92688D01*
X555245Y85112D01*
X549888Y79755D01*
X542312Y79755D01*
G37*
%LPD*%
%LPC*%
G36*
X516912Y105155D02*
X516912Y105155D01*
X511555Y110512D01*
X511555Y118088D01*
X516912Y123445D01*
X524488Y123445D01*
X529845Y118088D01*
X529845Y110512D01*
X524488Y105155D01*
X516912Y105155D01*
G37*
%LPD*%
%LPC*%
G36*
X516912Y28955D02*
X516912Y28955D01*
X511555Y34312D01*
X511555Y41888D01*
X516912Y47245D01*
X524488Y47245D01*
X529845Y41888D01*
X529845Y34312D01*
X524488Y28955D01*
X516912Y28955D01*
G37*
%LPD*%
%LPC*%
G36*
X542312Y28955D02*
X542312Y28955D01*
X536955Y34312D01*
X536955Y41888D01*
X542312Y47245D01*
X549888Y47245D01*
X555245Y41888D01*
X555245Y34312D01*
X549888Y28955D01*
X542312Y28955D01*
G37*
%LPD*%
%LPC*%
G36*
X186949Y42227D02*
X186949Y42227D01*
X181927Y47249D01*
X181927Y54351D01*
X186949Y59373D01*
X194051Y59373D01*
X199073Y54351D01*
X199073Y47249D01*
X194051Y42227D01*
X186949Y42227D01*
G37*
%LPD*%
%LPC*%
G36*
X136149Y67627D02*
X136149Y67627D01*
X131127Y72649D01*
X131127Y79751D01*
X136149Y84773D01*
X143251Y84773D01*
X148273Y79751D01*
X148273Y72649D01*
X143251Y67627D01*
X136149Y67627D01*
G37*
%LPD*%
%LPC*%
G36*
X161549Y67627D02*
X161549Y67627D01*
X156527Y72649D01*
X156527Y79751D01*
X161549Y84773D01*
X168651Y84773D01*
X173673Y79751D01*
X173673Y72649D01*
X168651Y67627D01*
X161549Y67627D01*
G37*
%LPD*%
%LPC*%
G36*
X186949Y67627D02*
X186949Y67627D01*
X181927Y72649D01*
X181927Y79751D01*
X186949Y84773D01*
X194051Y84773D01*
X199073Y79751D01*
X199073Y72649D01*
X194051Y67627D01*
X186949Y67627D01*
G37*
%LPD*%
%LPC*%
G36*
X161549Y42227D02*
X161549Y42227D01*
X156527Y47249D01*
X156527Y54351D01*
X161549Y59373D01*
X168651Y59373D01*
X173673Y54351D01*
X173673Y47249D01*
X168651Y42227D01*
X161549Y42227D01*
G37*
%LPD*%
%LPC*%
G36*
X137131Y637031D02*
X137131Y637031D01*
X137131Y657375D01*
X138037Y657232D01*
X139914Y656622D01*
X141673Y655726D01*
X143270Y654565D01*
X144665Y653170D01*
X145826Y651573D01*
X146722Y649814D01*
X147332Y647937D01*
X147641Y645987D01*
X147641Y637031D01*
X137131Y637031D01*
G37*
%LPD*%
%LPC*%
G36*
X167131Y589031D02*
X167131Y589031D01*
X167131Y599541D01*
X176087Y599541D01*
X178037Y599232D01*
X179914Y598622D01*
X181673Y597726D01*
X183270Y596565D01*
X184665Y595170D01*
X185826Y593573D01*
X186722Y591814D01*
X187332Y589937D01*
X187475Y589031D01*
X167131Y589031D01*
G37*
%LPD*%
%LPC*%
G36*
X137131Y632969D02*
X137131Y632969D01*
X147641Y632969D01*
X147641Y624013D01*
X147332Y622063D01*
X146722Y620186D01*
X145826Y618427D01*
X144665Y616830D01*
X143270Y615435D01*
X141673Y614274D01*
X139914Y613378D01*
X138037Y612768D01*
X137131Y612625D01*
X137131Y632969D01*
G37*
%LPD*%
%LPC*%
G36*
X142725Y589031D02*
X142725Y589031D01*
X142868Y589937D01*
X143478Y591814D01*
X144374Y593573D01*
X145535Y595170D01*
X146930Y596565D01*
X148527Y597726D01*
X150286Y598622D01*
X152163Y599232D01*
X154113Y599541D01*
X163069Y599541D01*
X163069Y589031D01*
X142725Y589031D01*
G37*
%LPD*%
%LPC*%
G36*
X122559Y637031D02*
X122559Y637031D01*
X122559Y645987D01*
X122868Y647937D01*
X123478Y649814D01*
X124374Y651573D01*
X125535Y653170D01*
X126930Y654565D01*
X128527Y655726D01*
X130286Y656622D01*
X132163Y657232D01*
X133069Y657375D01*
X133069Y637031D01*
X122559Y637031D01*
G37*
%LPD*%
%LPC*%
G36*
X167131Y574459D02*
X167131Y574459D01*
X167131Y584969D01*
X187475Y584969D01*
X187332Y584063D01*
X186722Y582186D01*
X185826Y580427D01*
X184665Y578830D01*
X183270Y577435D01*
X181673Y576274D01*
X179914Y575378D01*
X178037Y574768D01*
X176087Y574459D01*
X167131Y574459D01*
G37*
%LPD*%
%LPC*%
G36*
X154113Y574459D02*
X154113Y574459D01*
X152163Y574768D01*
X150286Y575378D01*
X148527Y576274D01*
X146930Y577435D01*
X145535Y578830D01*
X144374Y580427D01*
X143478Y582186D01*
X142868Y584063D01*
X142725Y584969D01*
X163069Y584969D01*
X163069Y574459D01*
X154113Y574459D01*
G37*
%LPD*%
%LPC*%
G36*
X132163Y612768D02*
X132163Y612768D01*
X130286Y613378D01*
X128527Y614274D01*
X126930Y615435D01*
X125535Y616830D01*
X124374Y618427D01*
X123478Y620186D01*
X122868Y622063D01*
X122559Y624013D01*
X122559Y632969D01*
X133069Y632969D01*
X133069Y612625D01*
X132163Y612768D01*
G37*
%LPD*%
%LPC*%
G36*
X281431Y40131D02*
X281431Y40131D01*
X281431Y54663D01*
X281660Y54627D01*
X283105Y54158D01*
X284459Y53468D01*
X285688Y52575D01*
X286763Y51500D01*
X287656Y50271D01*
X288346Y48917D01*
X288815Y47472D01*
X289053Y45972D01*
X289053Y40131D01*
X281431Y40131D01*
G37*
%LPD*%
%LPC*%
G36*
X103631Y52831D02*
X103631Y52831D01*
X103631Y60453D01*
X109472Y60453D01*
X110972Y60215D01*
X112417Y59746D01*
X113771Y59056D01*
X115000Y58163D01*
X116075Y57088D01*
X116968Y55859D01*
X117658Y54505D01*
X118127Y53060D01*
X118163Y52831D01*
X103631Y52831D01*
G37*
%LPD*%
%LPC*%
G36*
X85037Y52831D02*
X85037Y52831D01*
X85073Y53060D01*
X85542Y54505D01*
X86232Y55859D01*
X87125Y57088D01*
X88200Y58163D01*
X89429Y59056D01*
X90783Y59746D01*
X92228Y60215D01*
X93728Y60453D01*
X99569Y60453D01*
X99569Y52831D01*
X85037Y52831D01*
G37*
%LPD*%
%LPC*%
G36*
X281431Y36069D02*
X281431Y36069D01*
X289053Y36069D01*
X289053Y30228D01*
X288815Y28728D01*
X288346Y27283D01*
X287656Y25929D01*
X286763Y24700D01*
X285688Y23625D01*
X284459Y22732D01*
X283105Y22042D01*
X281660Y21573D01*
X281431Y21537D01*
X281431Y36069D01*
G37*
%LPD*%
%LPC*%
G36*
X269747Y40131D02*
X269747Y40131D01*
X269747Y45972D01*
X269985Y47472D01*
X270454Y48917D01*
X271144Y50271D01*
X272037Y51500D01*
X273112Y52575D01*
X274341Y53468D01*
X275695Y54158D01*
X277140Y54627D01*
X277369Y54663D01*
X277369Y40131D01*
X269747Y40131D01*
G37*
%LPD*%
%LPC*%
G36*
X103631Y41147D02*
X103631Y41147D01*
X103631Y48769D01*
X118163Y48769D01*
X118127Y48540D01*
X117658Y47095D01*
X116968Y45741D01*
X116075Y44512D01*
X115000Y43437D01*
X113771Y42544D01*
X112417Y41854D01*
X110972Y41385D01*
X109472Y41147D01*
X103631Y41147D01*
G37*
%LPD*%
%LPC*%
G36*
X93728Y41147D02*
X93728Y41147D01*
X92228Y41385D01*
X90783Y41854D01*
X89429Y42544D01*
X88200Y43437D01*
X87125Y44512D01*
X86232Y45741D01*
X85542Y47095D01*
X85073Y48540D01*
X85037Y48769D01*
X99569Y48769D01*
X99569Y41147D01*
X93728Y41147D01*
G37*
%LPD*%
%LPC*%
G36*
X277140Y21573D02*
X277140Y21573D01*
X275695Y22042D01*
X274341Y22732D01*
X273112Y23625D01*
X272037Y24700D01*
X271144Y25929D01*
X270454Y27283D01*
X269985Y28728D01*
X269747Y30228D01*
X269747Y36069D01*
X277369Y36069D01*
X277369Y21537D01*
X277140Y21573D01*
G37*
%LPD*%
%LPC*%
G36*
X23416Y706409D02*
X23416Y706409D01*
X20609Y709216D01*
X20609Y713184D01*
X23416Y715991D01*
X27384Y715991D01*
X30191Y713184D01*
X30191Y709216D01*
X27384Y706409D01*
X23416Y706409D01*
G37*
%LPD*%
%LPC*%
G36*
X23416Y20609D02*
X23416Y20609D01*
X20609Y23416D01*
X20609Y27384D01*
X23416Y30191D01*
X27384Y30191D01*
X30191Y27384D01*
X30191Y23416D01*
X27384Y20609D01*
X23416Y20609D01*
G37*
%LPD*%
%LPC*%
G36*
X976019Y605059D02*
X976019Y605059D01*
X973359Y607719D01*
X973359Y611481D01*
X976019Y614141D01*
X979781Y614141D01*
X982441Y611481D01*
X982441Y607719D01*
X979781Y605059D01*
X976019Y605059D01*
G37*
%LPD*%
%LPC*%
G36*
X1056131Y141731D02*
X1056131Y141731D01*
X1056131Y150952D01*
X1056777Y150849D01*
X1058488Y150293D01*
X1060091Y149476D01*
X1061547Y148419D01*
X1062819Y147147D01*
X1063876Y145691D01*
X1064693Y144088D01*
X1065249Y142377D01*
X1065352Y141731D01*
X1056131Y141731D01*
G37*
%LPD*%
%LPC*%
G36*
X954531Y141731D02*
X954531Y141731D01*
X954531Y150952D01*
X955177Y150849D01*
X956888Y150293D01*
X958491Y149476D01*
X959947Y148419D01*
X961219Y147147D01*
X962276Y145691D01*
X963093Y144088D01*
X963649Y142377D01*
X963752Y141731D01*
X954531Y141731D01*
G37*
%LPD*%
%LPC*%
G36*
X1056131Y40131D02*
X1056131Y40131D01*
X1056131Y49352D01*
X1056777Y49249D01*
X1058488Y48693D01*
X1060091Y47876D01*
X1061547Y46819D01*
X1062819Y45547D01*
X1063876Y44091D01*
X1064693Y42488D01*
X1065249Y40777D01*
X1065352Y40131D01*
X1056131Y40131D01*
G37*
%LPD*%
%LPC*%
G36*
X954531Y40131D02*
X954531Y40131D01*
X954531Y49352D01*
X955177Y49249D01*
X956888Y48693D01*
X958491Y47876D01*
X959947Y46819D01*
X961219Y45547D01*
X962276Y44091D01*
X963093Y42488D01*
X963649Y40777D01*
X963752Y40131D01*
X954531Y40131D01*
G37*
%LPD*%
%LPC*%
G36*
X941248Y141731D02*
X941248Y141731D01*
X941351Y142377D01*
X941907Y144088D01*
X942724Y145691D01*
X943781Y147147D01*
X945053Y148419D01*
X946509Y149476D01*
X948112Y150293D01*
X949823Y150849D01*
X950469Y150952D01*
X950469Y141731D01*
X941248Y141731D01*
G37*
%LPD*%
%LPC*%
G36*
X1042848Y141731D02*
X1042848Y141731D01*
X1042951Y142377D01*
X1043507Y144088D01*
X1044324Y145691D01*
X1045381Y147147D01*
X1046653Y148419D01*
X1048109Y149476D01*
X1049712Y150293D01*
X1051423Y150849D01*
X1052069Y150952D01*
X1052069Y141731D01*
X1042848Y141731D01*
G37*
%LPD*%
%LPC*%
G36*
X954531Y36069D02*
X954531Y36069D01*
X963752Y36069D01*
X963649Y35423D01*
X963093Y33712D01*
X962276Y32109D01*
X961219Y30653D01*
X959947Y29381D01*
X958491Y28324D01*
X956888Y27507D01*
X955177Y26951D01*
X954531Y26848D01*
X954531Y36069D01*
G37*
%LPD*%
%LPC*%
G36*
X1056131Y36069D02*
X1056131Y36069D01*
X1065352Y36069D01*
X1065249Y35423D01*
X1064693Y33712D01*
X1063876Y32109D01*
X1062819Y30653D01*
X1061547Y29381D01*
X1060091Y28324D01*
X1058488Y27507D01*
X1056777Y26951D01*
X1056131Y26848D01*
X1056131Y36069D01*
G37*
%LPD*%
%LPC*%
G36*
X1056131Y137669D02*
X1056131Y137669D01*
X1065352Y137669D01*
X1065249Y137023D01*
X1064693Y135312D01*
X1063876Y133709D01*
X1062819Y132253D01*
X1061547Y130981D01*
X1060091Y129924D01*
X1058488Y129107D01*
X1056777Y128551D01*
X1056131Y128448D01*
X1056131Y137669D01*
G37*
%LPD*%
%LPC*%
G36*
X954531Y137669D02*
X954531Y137669D01*
X963752Y137669D01*
X963649Y137023D01*
X963093Y135312D01*
X962276Y133709D01*
X961219Y132253D01*
X959947Y130981D01*
X958491Y129924D01*
X956888Y129107D01*
X955177Y128551D01*
X954531Y128448D01*
X954531Y137669D01*
G37*
%LPD*%
%LPC*%
G36*
X941248Y40131D02*
X941248Y40131D01*
X941351Y40777D01*
X941907Y42488D01*
X942724Y44091D01*
X943781Y45547D01*
X945053Y46819D01*
X946509Y47876D01*
X948112Y48693D01*
X949823Y49249D01*
X950469Y49352D01*
X950469Y40131D01*
X941248Y40131D01*
G37*
%LPD*%
%LPC*%
G36*
X1042848Y40131D02*
X1042848Y40131D01*
X1042951Y40777D01*
X1043507Y42488D01*
X1044324Y44091D01*
X1045381Y45547D01*
X1046653Y46819D01*
X1048109Y47876D01*
X1049712Y48693D01*
X1051423Y49249D01*
X1052069Y49352D01*
X1052069Y40131D01*
X1042848Y40131D01*
G37*
%LPD*%
%LPC*%
G36*
X1051423Y128551D02*
X1051423Y128551D01*
X1049712Y129107D01*
X1048109Y129924D01*
X1046653Y130981D01*
X1045381Y132253D01*
X1044324Y133709D01*
X1043507Y135312D01*
X1042951Y137023D01*
X1042848Y137669D01*
X1052069Y137669D01*
X1052069Y128448D01*
X1051423Y128551D01*
G37*
%LPD*%
%LPC*%
G36*
X1051423Y26951D02*
X1051423Y26951D01*
X1049712Y27507D01*
X1048109Y28324D01*
X1046653Y29381D01*
X1045381Y30653D01*
X1044324Y32109D01*
X1043507Y33712D01*
X1042951Y35423D01*
X1042848Y36069D01*
X1052069Y36069D01*
X1052069Y26848D01*
X1051423Y26951D01*
G37*
%LPD*%
%LPC*%
G36*
X949823Y128551D02*
X949823Y128551D01*
X948112Y129107D01*
X946509Y129924D01*
X945053Y130981D01*
X943781Y132253D01*
X942724Y133709D01*
X941907Y135312D01*
X941351Y137023D01*
X941248Y137669D01*
X950469Y137669D01*
X950469Y128448D01*
X949823Y128551D01*
G37*
%LPD*%
%LPC*%
G36*
X949823Y26951D02*
X949823Y26951D01*
X948112Y27507D01*
X946509Y28324D01*
X945053Y29381D01*
X943781Y30653D01*
X942724Y32109D01*
X941907Y33712D01*
X941351Y35423D01*
X941248Y36069D01*
X950469Y36069D01*
X950469Y26848D01*
X949823Y26951D01*
G37*
%LPD*%
%LPC*%
G36*
X141699Y52799D02*
X141699Y52799D01*
X141699Y59881D01*
X143461Y59881D01*
X148781Y54561D01*
X148781Y52799D01*
X141699Y52799D01*
G37*
%LPD*%
%LPC*%
G36*
X141699Y41719D02*
X141699Y41719D01*
X141699Y48801D01*
X148781Y48801D01*
X148781Y47039D01*
X143461Y41719D01*
X141699Y41719D01*
G37*
%LPD*%
%LPC*%
G36*
X130619Y52799D02*
X130619Y52799D01*
X130619Y54561D01*
X135939Y59881D01*
X137701Y59881D01*
X137701Y52799D01*
X130619Y52799D01*
G37*
%LPD*%
%LPC*%
G36*
X135939Y41719D02*
X135939Y41719D01*
X130619Y47039D01*
X130619Y48801D01*
X137701Y48801D01*
X137701Y41719D01*
X135939Y41719D01*
G37*
%LPD*%
%LPC*%
G36*
X331215Y445515D02*
X331215Y445515D01*
X331215Y450385D01*
X331941Y450240D01*
X333028Y449790D01*
X334006Y449137D01*
X334837Y448306D01*
X335490Y447328D01*
X335940Y446241D01*
X336085Y445515D01*
X331215Y445515D01*
G37*
%LPD*%
%LPC*%
G36*
X255015Y255015D02*
X255015Y255015D01*
X255015Y259885D01*
X255741Y259740D01*
X256828Y259290D01*
X257806Y258637D01*
X258637Y257806D01*
X259290Y256828D01*
X259740Y255741D01*
X259885Y255015D01*
X255015Y255015D01*
G37*
%LPD*%
%LPC*%
G36*
X750315Y382015D02*
X750315Y382015D01*
X750315Y386885D01*
X751041Y386740D01*
X752128Y386290D01*
X753106Y385637D01*
X753937Y384806D01*
X754590Y383828D01*
X755040Y382741D01*
X755185Y382015D01*
X750315Y382015D01*
G37*
%LPD*%
%LPC*%
G36*
X585215Y39115D02*
X585215Y39115D01*
X585215Y43985D01*
X585941Y43840D01*
X587028Y43390D01*
X588006Y42737D01*
X588837Y41906D01*
X589490Y40928D01*
X589940Y39841D01*
X590085Y39115D01*
X585215Y39115D01*
G37*
%LPD*%
%LPC*%
G36*
X356615Y64515D02*
X356615Y64515D01*
X356615Y69385D01*
X357341Y69240D01*
X358428Y68790D01*
X359406Y68137D01*
X360237Y67306D01*
X360890Y66328D01*
X361340Y65241D01*
X361485Y64515D01*
X356615Y64515D01*
G37*
%LPD*%
%LPC*%
G36*
X204215Y229615D02*
X204215Y229615D01*
X204215Y234485D01*
X204941Y234340D01*
X206028Y233890D01*
X207006Y233237D01*
X207837Y232406D01*
X208490Y231428D01*
X208940Y230341D01*
X209085Y229615D01*
X204215Y229615D01*
G37*
%LPD*%
%LPC*%
G36*
X356615Y62485D02*
X356615Y62485D01*
X361485Y62485D01*
X361340Y61759D01*
X360890Y60672D01*
X360237Y59694D01*
X359406Y58863D01*
X358428Y58210D01*
X357341Y57760D01*
X356615Y57615D01*
X356615Y62485D01*
G37*
%LPD*%
%LPC*%
G36*
X204215Y227585D02*
X204215Y227585D01*
X209085Y227585D01*
X208940Y226859D01*
X208490Y225772D01*
X207837Y224794D01*
X207006Y223963D01*
X206028Y223310D01*
X204941Y222860D01*
X204215Y222715D01*
X204215Y227585D01*
G37*
%LPD*%
%LPC*%
G36*
X679915Y255015D02*
X679915Y255015D01*
X680060Y255741D01*
X680510Y256828D01*
X681163Y257806D01*
X681994Y258637D01*
X682972Y259290D01*
X684059Y259740D01*
X684785Y259885D01*
X684785Y255015D01*
X679915Y255015D01*
G37*
%LPD*%
%LPC*%
G36*
X197315Y229615D02*
X197315Y229615D01*
X197460Y230341D01*
X197910Y231428D01*
X198563Y232406D01*
X199394Y233237D01*
X200372Y233890D01*
X201459Y234340D01*
X202185Y234485D01*
X202185Y229615D01*
X197315Y229615D01*
G37*
%LPD*%
%LPC*%
G36*
X578315Y39115D02*
X578315Y39115D01*
X578460Y39841D01*
X578910Y40928D01*
X579563Y41906D01*
X580394Y42737D01*
X581372Y43390D01*
X582459Y43840D01*
X583185Y43985D01*
X583185Y39115D01*
X578315Y39115D01*
G37*
%LPD*%
%LPC*%
G36*
X255015Y252985D02*
X255015Y252985D01*
X259885Y252985D01*
X259740Y252259D01*
X259290Y251172D01*
X258637Y250194D01*
X257806Y249363D01*
X256828Y248710D01*
X255741Y248260D01*
X255015Y248115D01*
X255015Y252985D01*
G37*
%LPD*%
%LPC*%
G36*
X585215Y37085D02*
X585215Y37085D01*
X590085Y37085D01*
X589940Y36359D01*
X589490Y35272D01*
X588837Y34294D01*
X588006Y33463D01*
X587028Y32810D01*
X585941Y32360D01*
X585215Y32215D01*
X585215Y37085D01*
G37*
%LPD*%
%LPC*%
G36*
X324315Y445515D02*
X324315Y445515D01*
X324460Y446241D01*
X324910Y447328D01*
X325563Y448306D01*
X326394Y449137D01*
X327372Y449790D01*
X328459Y450240D01*
X329185Y450385D01*
X329185Y445515D01*
X324315Y445515D01*
G37*
%LPD*%
%LPC*%
G36*
X331215Y443485D02*
X331215Y443485D01*
X336085Y443485D01*
X335940Y442759D01*
X335490Y441672D01*
X334837Y440694D01*
X334006Y439863D01*
X333028Y439210D01*
X331941Y438760D01*
X331215Y438615D01*
X331215Y443485D01*
G37*
%LPD*%
%LPC*%
G36*
X743415Y382015D02*
X743415Y382015D01*
X743560Y382741D01*
X744010Y383828D01*
X744663Y384806D01*
X745494Y385637D01*
X746472Y386290D01*
X747559Y386740D01*
X748285Y386885D01*
X748285Y382015D01*
X743415Y382015D01*
G37*
%LPD*%
%LPC*%
G36*
X750315Y379985D02*
X750315Y379985D01*
X755185Y379985D01*
X755040Y379259D01*
X754590Y378172D01*
X753937Y377194D01*
X753106Y376363D01*
X752128Y375710D01*
X751041Y375260D01*
X750315Y375115D01*
X750315Y379985D01*
G37*
%LPD*%
%LPC*%
G36*
X248115Y255015D02*
X248115Y255015D01*
X248260Y255741D01*
X248710Y256828D01*
X249363Y257806D01*
X250194Y258637D01*
X251172Y259290D01*
X252259Y259740D01*
X252985Y259885D01*
X252985Y255015D01*
X248115Y255015D01*
G37*
%LPD*%
%LPC*%
G36*
X349715Y64515D02*
X349715Y64515D01*
X349860Y65241D01*
X350310Y66328D01*
X350963Y67306D01*
X351794Y68137D01*
X352772Y68790D01*
X353859Y69240D01*
X354585Y69385D01*
X354585Y64515D01*
X349715Y64515D01*
G37*
%LPD*%
%LPC*%
G36*
X747559Y375260D02*
X747559Y375260D01*
X746472Y375710D01*
X745494Y376363D01*
X744663Y377194D01*
X744010Y378172D01*
X743560Y379259D01*
X743415Y379985D01*
X748285Y379985D01*
X748285Y375115D01*
X747559Y375260D01*
G37*
%LPD*%
%LPC*%
G36*
X582459Y32360D02*
X582459Y32360D01*
X581372Y32810D01*
X580394Y33463D01*
X579563Y34294D01*
X578910Y35272D01*
X578460Y36359D01*
X578315Y37085D01*
X583185Y37085D01*
X583185Y32215D01*
X582459Y32360D01*
G37*
%LPD*%
%LPC*%
G36*
X328459Y438760D02*
X328459Y438760D01*
X327372Y439210D01*
X326394Y439863D01*
X325563Y440694D01*
X324910Y441672D01*
X324460Y442759D01*
X324315Y443485D01*
X329185Y443485D01*
X329185Y438615D01*
X328459Y438760D01*
G37*
%LPD*%
%LPC*%
G36*
X353859Y57760D02*
X353859Y57760D01*
X352772Y58210D01*
X351794Y58863D01*
X350963Y59694D01*
X350310Y60672D01*
X349860Y61759D01*
X349715Y62485D01*
X354585Y62485D01*
X354585Y57615D01*
X353859Y57760D01*
G37*
%LPD*%
%LPC*%
G36*
X252259Y248260D02*
X252259Y248260D01*
X251172Y248710D01*
X250194Y249363D01*
X249363Y250194D01*
X248710Y251172D01*
X248260Y252259D01*
X248115Y252985D01*
X252985Y252985D01*
X252985Y248115D01*
X252259Y248260D01*
G37*
%LPD*%
%LPC*%
G36*
X684059Y248260D02*
X684059Y248260D01*
X682972Y248710D01*
X681994Y249363D01*
X681163Y250194D01*
X680510Y251172D01*
X680060Y252259D01*
X679915Y252985D01*
X684785Y252985D01*
X684785Y248115D01*
X684059Y248260D01*
G37*
%LPD*%
%LPC*%
G36*
X201459Y222860D02*
X201459Y222860D01*
X200372Y223310D01*
X199394Y223963D01*
X198563Y224794D01*
X197910Y225772D01*
X197460Y226859D01*
X197315Y227585D01*
X202185Y227585D01*
X202185Y222715D01*
X201459Y222860D01*
G37*
%LPD*%
%LPC*%
G36*
X101599Y50799D02*
X101599Y50799D01*
X101599Y50801D01*
X101601Y50801D01*
X101601Y50799D01*
X101599Y50799D01*
G37*
%LPD*%
%LPC*%
G36*
X1054099Y139699D02*
X1054099Y139699D01*
X1054099Y139701D01*
X1054101Y139701D01*
X1054101Y139699D01*
X1054099Y139699D01*
G37*
%LPD*%
%LPC*%
G36*
X165099Y586999D02*
X165099Y586999D01*
X165099Y587001D01*
X165101Y587001D01*
X165101Y586999D01*
X165099Y586999D01*
G37*
%LPD*%
%LPC*%
G36*
X952499Y38099D02*
X952499Y38099D01*
X952499Y38101D01*
X952501Y38101D01*
X952501Y38099D01*
X952499Y38099D01*
G37*
%LPD*%
%LPC*%
G36*
X1054099Y38099D02*
X1054099Y38099D01*
X1054099Y38101D01*
X1054101Y38101D01*
X1054101Y38099D01*
X1054099Y38099D01*
G37*
%LPD*%
%LPC*%
G36*
X952499Y139699D02*
X952499Y139699D01*
X952499Y139701D01*
X952501Y139701D01*
X952501Y139699D01*
X952499Y139699D01*
G37*
%LPD*%
%LPC*%
G36*
X135099Y634999D02*
X135099Y634999D01*
X135099Y635001D01*
X135101Y635001D01*
X135101Y634999D01*
X135099Y634999D01*
G37*
%LPD*%
%LPC*%
G36*
X279399Y38099D02*
X279399Y38099D01*
X279399Y38101D01*
X279401Y38101D01*
X279401Y38099D01*
X279399Y38099D01*
G37*
%LPD*%
D10*
X431800Y431800D03*
X355600Y431800D03*
X457200Y431800D03*
X533400Y431800D03*
X533400Y457200D03*
X457200Y457200D03*
D11*
X196100Y625000D02*
X196100Y645000D01*
X135100Y645000D02*
X135100Y625000D01*
X155100Y587000D02*
X175100Y587000D01*
D12*
X254000Y45212D02*
X254000Y30988D01*
X279400Y30988D02*
X279400Y45212D01*
X304800Y45212D02*
X304800Y30988D01*
X406400Y30988D02*
X406400Y45212D01*
X381000Y45212D02*
X381000Y30988D01*
D13*
X520700Y114300D03*
X546100Y114300D03*
X520700Y88900D03*
X546100Y88900D03*
X520700Y63500D03*
X546100Y63500D03*
X546100Y38100D03*
X520700Y38100D03*
D12*
X108712Y76200D02*
X94488Y76200D01*
X94488Y50800D02*
X108712Y50800D01*
X57912Y76200D02*
X43688Y76200D01*
X43688Y50800D02*
X57912Y50800D01*
X863600Y119888D02*
X863600Y134112D01*
X838200Y134112D02*
X838200Y119888D01*
X812800Y119888D02*
X812800Y134112D01*
X762000Y134112D02*
X762000Y119888D01*
X736600Y119888D02*
X736600Y134112D01*
X711200Y134112D02*
X711200Y119888D01*
D14*
X1003300Y88900D03*
X1054100Y139700D03*
X952500Y139700D03*
X952500Y38100D03*
X1054100Y38100D03*
D15*
X165100Y50800D03*
X165100Y76200D03*
X190500Y50800D03*
X190500Y76200D03*
X139700Y76200D03*
X139700Y50800D03*
D16*
X736600Y215900D03*
D17*
X723900Y203200D01*
X711200Y203200D01*
D16*
X711200Y203200D03*
X863600Y215900D03*
D17*
X901700Y215900D01*
X914400Y203200D01*
D16*
X914400Y203200D03*
X685800Y254000D03*
D17*
X699900Y268100D01*
D16*
X699900Y268100D03*
X355600Y63500D03*
X584200Y38100D03*
X203200Y228600D03*
X330200Y444500D03*
X254000Y254000D03*
D17*
X762000Y127000D02*
X787400Y127000D01*
X812800Y101600D01*
D16*
X977900Y228600D03*
D17*
X873760Y124460D02*
X873760Y115680D01*
X873760Y124460D02*
X977900Y228600D01*
X859680Y101600D02*
X812800Y101600D01*
X859680Y101600D02*
X873760Y115680D01*
D16*
X952500Y215900D03*
D17*
X842120Y127000D02*
X838200Y127000D01*
X880872Y144272D02*
X952500Y215900D01*
X859392Y144272D02*
X842120Y127000D01*
X859392Y144272D02*
X880872Y144272D01*
D16*
X749300Y381000D03*
X267430Y120523D03*
D17*
X261207Y114300D01*
X241300Y114300D01*
D16*
X241300Y114300D03*
X177800Y330200D03*
D18*
X177800Y275400D01*
X215900Y237300D01*
D16*
X215900Y237300D03*
X787400Y368300D03*
D18*
X762000Y342900D01*
X685800Y342900D01*
D16*
X685800Y342900D03*
X762000Y279400D03*
D18*
X762000Y165100D01*
D16*
X762000Y165100D03*
X584200Y419100D03*
D18*
X698500Y304800D01*
X723900Y304800D01*
D16*
X723900Y304800D03*
D18*
X762000Y279400D02*
X812800Y228600D01*
X914400Y228600D02*
X965200Y279400D01*
D16*
X965200Y279400D03*
D18*
X914400Y228600D02*
X812800Y228600D01*
D16*
X571500Y393700D03*
D18*
X647700Y317500D01*
X647700Y279400D01*
D16*
X647700Y279400D03*
X825500Y279400D03*
D18*
X764893Y286385D02*
X759107Y286385D01*
X752122Y279400D02*
X647700Y279400D01*
X752122Y279400D02*
X759107Y286385D01*
X771878Y279400D02*
X825500Y279400D01*
X771878Y279400D02*
X764893Y286385D01*
D16*
X165100Y221745D03*
D17*
X114300Y221745D01*
D16*
X114300Y221745D03*
X165100Y212855D03*
D17*
X114300Y212855D01*
D16*
X114300Y212855D03*
X406400Y127000D03*
D17*
X535068Y63500D02*
X546100Y63500D01*
X535068Y63500D02*
X524908Y73660D01*
X459740Y73660D02*
X406400Y127000D01*
X459740Y73660D02*
X524908Y73660D01*
D16*
X285750Y184150D03*
D17*
X282338Y184150D01*
X282147Y184341D01*
X267493Y184341D01*
X188563Y105410D01*
X177800Y105410D01*
D16*
X177800Y105410D03*
X279464Y177864D03*
D17*
X266764Y177864D01*
X185420Y96520D01*
X177800Y96520D01*
D16*
X177800Y96520D03*
X292036Y190436D03*
D17*
X288624Y190436D01*
X288433Y190627D01*
X268032Y190627D01*
X191705Y114300D01*
X177800Y114300D01*
D16*
X177800Y114300D03*
X292100Y228600D03*
D17*
X355600Y292100D01*
X368300Y292100D01*
D16*
X368300Y292100D03*
X323786Y273114D03*
D17*
X355472Y304800D01*
X368300Y304800D01*
D16*
X368300Y304800D03*
X317500Y279400D03*
D17*
X351790Y313690D01*
D16*
X482600Y317500D03*
D17*
X478790Y313690D01*
X351790Y313690D01*
D16*
X139700Y152400D03*
D17*
X127000Y165100D01*
X127000Y177800D01*
D16*
X127000Y177800D03*
M02*
