G04 EAGLE Gerber RS-274X export*
G75*
%MOMM*%
%FSLAX34Y34*%
%LPD*%
%INSolderpaste Top*%
%IPPOS*%
%AMOC8*
5,1,8,0,0,1.08239X$1,22.5*%
G01*
%ADD10R,1.500000X1.300000*%
%ADD11R,1.300000X1.500000*%
%ADD12R,1.050000X0.320000*%
%ADD13R,1.500000X0.600000*%
%ADD14R,1.500000X1.600000*%
%ADD15R,1.930400X5.334000*%
%ADD16R,2.150000X0.950000*%
%ADD17R,2.150000X3.250000*%
%ADD18R,1.600000X0.550000*%
%ADD19R,0.550000X1.600000*%
%ADD20C,0.145000*%
%ADD21R,1.400000X1.400000*%


D10*
X401320Y314300D03*
X401320Y295300D03*
X264160Y217780D03*
X264160Y198780D03*
X401320Y351180D03*
X401320Y370180D03*
D11*
X197460Y314960D03*
X178460Y314960D03*
X130200Y317500D03*
X149200Y317500D03*
X186080Y363220D03*
X205080Y363220D03*
D10*
X259080Y287680D03*
X259080Y306680D03*
X86360Y442620D03*
X86360Y461620D03*
X378460Y305460D03*
X378460Y324460D03*
X355600Y268580D03*
X355600Y249580D03*
X63500Y447700D03*
X63500Y466700D03*
X528320Y244500D03*
X528320Y263500D03*
X434340Y183540D03*
X434340Y202540D03*
X109220Y399440D03*
X109220Y418440D03*
D11*
X250800Y63500D03*
X231800Y63500D03*
D10*
X177800Y66700D03*
X177800Y85700D03*
X248920Y140360D03*
X248920Y159360D03*
X152400Y85700D03*
X152400Y66700D03*
X106680Y155600D03*
X106680Y174600D03*
D11*
X28600Y101600D03*
X47600Y101600D03*
X47600Y279400D03*
X28600Y279400D03*
D10*
X149860Y226720D03*
X149860Y245720D03*
X309880Y320700D03*
X309880Y339700D03*
X424180Y351180D03*
X424180Y370180D03*
D12*
X380140Y337980D03*
X380140Y342980D03*
X380140Y347980D03*
X380140Y352980D03*
X380140Y357980D03*
X336140Y357980D03*
X336140Y352980D03*
X336140Y347980D03*
X336140Y342980D03*
X336140Y337980D03*
D13*
X337380Y222250D03*
X282380Y222250D03*
X337380Y209550D03*
X337380Y234950D03*
X337380Y247650D03*
X282380Y209550D03*
X282380Y234950D03*
X282380Y247650D03*
X452560Y234950D03*
X507560Y234950D03*
X452560Y247650D03*
X452560Y222250D03*
X452560Y209550D03*
X507560Y247650D03*
X507560Y222250D03*
X507560Y209550D03*
D14*
X356800Y406200D03*
X356800Y381200D03*
X379800Y381200D03*
X379800Y406200D03*
D15*
X50800Y142240D03*
X50800Y238760D03*
D11*
X142900Y363220D03*
X161900Y363220D03*
X125120Y284480D03*
X144120Y284480D03*
D10*
X101600Y269900D03*
X101600Y288900D03*
D11*
X433680Y223520D03*
X414680Y223520D03*
D10*
X408940Y268580D03*
X408940Y249580D03*
X127000Y85700D03*
X127000Y66700D03*
D11*
X301600Y96520D03*
X282600Y96520D03*
D10*
X408940Y84480D03*
X408940Y103480D03*
X203200Y85700D03*
X203200Y66700D03*
D11*
X405740Y132080D03*
X386740Y132080D03*
D10*
X383540Y84480D03*
X383540Y103480D03*
D11*
X250800Y88900D03*
X231800Y88900D03*
D10*
X375920Y36220D03*
X375920Y55220D03*
X434340Y84480D03*
X434340Y103480D03*
D11*
X301600Y147320D03*
X282600Y147320D03*
X301600Y121920D03*
X282600Y121920D03*
D10*
X172720Y226720D03*
X172720Y245720D03*
X378460Y268580D03*
X378460Y249580D03*
X360680Y193700D03*
X360680Y212700D03*
D11*
X455320Y266700D03*
X474320Y266700D03*
D10*
X431800Y268580D03*
X431800Y249580D03*
D16*
X82340Y375780D03*
X82340Y398780D03*
X82340Y421780D03*
D17*
X24340Y398780D03*
D18*
X132760Y190560D03*
X132760Y182560D03*
X132760Y174560D03*
X132760Y166560D03*
X132760Y158560D03*
X132760Y150560D03*
X132760Y142560D03*
X132760Y134560D03*
X217760Y134560D03*
X217760Y142560D03*
X217760Y150560D03*
X217760Y158560D03*
X217760Y166560D03*
X217760Y174560D03*
X217760Y182560D03*
X217760Y190560D03*
D19*
X147260Y120060D03*
X155260Y120060D03*
X163260Y120060D03*
X171260Y120060D03*
X179260Y120060D03*
X187260Y120060D03*
X195260Y120060D03*
X203260Y120060D03*
X203260Y205060D03*
X195260Y205060D03*
X187260Y205060D03*
X179260Y205060D03*
X171260Y205060D03*
X163260Y205060D03*
X155260Y205060D03*
X147260Y205060D03*
D20*
X89295Y327365D02*
X78645Y327365D01*
X78645Y331715D01*
X89295Y331715D01*
X89295Y327365D01*
X89295Y328742D02*
X78645Y328742D01*
X78645Y330119D02*
X89295Y330119D01*
X89295Y331496D02*
X78645Y331496D01*
X78645Y317865D02*
X89295Y317865D01*
X78645Y317865D02*
X78645Y322215D01*
X89295Y322215D01*
X89295Y317865D01*
X89295Y319242D02*
X78645Y319242D01*
X78645Y320619D02*
X89295Y320619D01*
X89295Y321996D02*
X78645Y321996D01*
X78645Y308365D02*
X89295Y308365D01*
X78645Y308365D02*
X78645Y312715D01*
X89295Y312715D01*
X89295Y308365D01*
X89295Y309742D02*
X78645Y309742D01*
X78645Y311119D02*
X89295Y311119D01*
X89295Y312496D02*
X78645Y312496D01*
X103745Y327365D02*
X114395Y327365D01*
X103745Y327365D02*
X103745Y331715D01*
X114395Y331715D01*
X114395Y327365D01*
X114395Y328742D02*
X103745Y328742D01*
X103745Y330119D02*
X114395Y330119D01*
X114395Y331496D02*
X103745Y331496D01*
X103745Y317865D02*
X114395Y317865D01*
X103745Y317865D02*
X103745Y322215D01*
X114395Y322215D01*
X114395Y317865D01*
X114395Y319242D02*
X103745Y319242D01*
X103745Y320619D02*
X114395Y320619D01*
X114395Y321996D02*
X103745Y321996D01*
X103745Y308365D02*
X114395Y308365D01*
X103745Y308365D02*
X103745Y312715D01*
X114395Y312715D01*
X114395Y308365D01*
X114395Y309742D02*
X103745Y309742D01*
X103745Y311119D02*
X114395Y311119D01*
X114395Y312496D02*
X103745Y312496D01*
D11*
X374377Y429217D03*
X355377Y429217D03*
X106020Y358140D03*
X87020Y358140D03*
D21*
X281940Y308660D03*
X281940Y346660D03*
X198070Y339090D03*
X160070Y339090D03*
X236220Y346660D03*
X236220Y308660D03*
M02*
