G04 EAGLE Gerber RS-274X export*
G75*
%MOMM*%
%FSLAX34Y34*%
%LPD*%
%IN*%
%IPPOS*%
%AMOC8*
5,1,8,0,0,1.08239X$1,22.5*%
G01*
%ADD10C,0.254000*%


D10*
X0Y25400D02*
X97Y23186D01*
X386Y20989D01*
X865Y18826D01*
X1532Y16713D01*
X2380Y14666D01*
X3403Y12700D01*
X4594Y10831D01*
X5942Y9073D01*
X7440Y7440D01*
X9073Y5942D01*
X10831Y4594D01*
X12700Y3403D01*
X14666Y2380D01*
X16713Y1532D01*
X18826Y865D01*
X20989Y386D01*
X23186Y97D01*
X25400Y0D01*
X528120Y0D01*
X530334Y97D01*
X532531Y386D01*
X534694Y865D01*
X536807Y1532D01*
X538855Y2380D01*
X540820Y3403D01*
X542689Y4594D01*
X544447Y5942D01*
X546081Y7440D01*
X547578Y9073D01*
X548926Y10831D01*
X550117Y12700D01*
X551140Y14666D01*
X551988Y16713D01*
X552655Y18826D01*
X553134Y20989D01*
X553423Y23186D01*
X553520Y25400D01*
X553520Y542800D01*
X553423Y545014D01*
X553134Y547211D01*
X552655Y549374D01*
X551988Y551487D01*
X551140Y553535D01*
X550117Y555500D01*
X548926Y557369D01*
X547578Y559127D01*
X546081Y560761D01*
X544447Y562258D01*
X542689Y563606D01*
X540820Y564797D01*
X538855Y565820D01*
X536807Y566668D01*
X534694Y567335D01*
X532531Y567814D01*
X530334Y568103D01*
X528120Y568200D01*
X25400Y568200D01*
X23186Y568103D01*
X20989Y567814D01*
X18826Y567335D01*
X16713Y566668D01*
X14666Y565820D01*
X12700Y564797D01*
X10831Y563606D01*
X9073Y562258D01*
X7440Y560761D01*
X5942Y559127D01*
X4594Y557369D01*
X3403Y555500D01*
X2380Y553535D01*
X1532Y551487D01*
X865Y549374D01*
X386Y547211D01*
X97Y545014D01*
X0Y542800D01*
X0Y25400D01*
X97080Y504160D02*
X107080Y504160D01*
X107080Y532160D01*
X97080Y532160D01*
X97080Y504160D01*
X158080Y501660D02*
X168080Y501660D01*
X168080Y534660D01*
X158080Y534660D01*
X158080Y501660D01*
X118080Y465160D02*
X146080Y465160D01*
X146080Y475160D01*
X118080Y475160D01*
X118080Y465160D01*
X47970Y459563D02*
X47915Y459213D01*
X47805Y458876D01*
X47644Y458561D01*
X47436Y458274D01*
X47186Y458024D01*
X46899Y457816D01*
X46584Y457655D01*
X46247Y457545D01*
X45897Y457490D01*
X45543Y457490D01*
X45193Y457545D01*
X44856Y457655D01*
X44541Y457816D01*
X44254Y458024D01*
X44004Y458274D01*
X43796Y458561D01*
X43635Y458876D01*
X43525Y459213D01*
X43470Y459563D01*
X43470Y459917D01*
X43525Y460267D01*
X43635Y460604D01*
X43796Y460919D01*
X44004Y461206D01*
X44254Y461456D01*
X44541Y461664D01*
X44856Y461825D01*
X45193Y461935D01*
X45543Y461990D01*
X45897Y461990D01*
X46247Y461935D01*
X46584Y461825D01*
X46899Y461664D01*
X47186Y461456D01*
X47436Y461206D01*
X47644Y460919D01*
X47805Y460604D01*
X47915Y460267D01*
X47970Y459917D01*
X47970Y459563D01*
X517870Y538303D02*
X517815Y537953D01*
X517705Y537616D01*
X517544Y537301D01*
X517336Y537014D01*
X517086Y536764D01*
X516799Y536556D01*
X516484Y536395D01*
X516147Y536285D01*
X515797Y536230D01*
X515443Y536230D01*
X515093Y536285D01*
X514756Y536395D01*
X514441Y536556D01*
X514154Y536764D01*
X513904Y537014D01*
X513696Y537301D01*
X513535Y537616D01*
X513425Y537953D01*
X513370Y538303D01*
X513370Y538657D01*
X513425Y539007D01*
X513535Y539344D01*
X513696Y539659D01*
X513904Y539946D01*
X514154Y540196D01*
X514441Y540404D01*
X514756Y540565D01*
X515093Y540675D01*
X515443Y540730D01*
X515797Y540730D01*
X516147Y540675D01*
X516484Y540565D01*
X516799Y540404D01*
X517086Y540196D01*
X517336Y539946D01*
X517544Y539659D01*
X517705Y539344D01*
X517815Y539007D01*
X517870Y538657D01*
X517870Y538303D01*
X30190Y15063D02*
X30135Y14713D01*
X30025Y14376D01*
X29864Y14061D01*
X29656Y13774D01*
X29406Y13524D01*
X29119Y13316D01*
X28804Y13155D01*
X28467Y13045D01*
X28117Y12990D01*
X27763Y12990D01*
X27413Y13045D01*
X27076Y13155D01*
X26761Y13316D01*
X26474Y13524D01*
X26224Y13774D01*
X26016Y14061D01*
X25855Y14376D01*
X25745Y14713D01*
X25690Y15063D01*
X25690Y15417D01*
X25745Y15767D01*
X25855Y16104D01*
X26016Y16419D01*
X26224Y16706D01*
X26474Y16956D01*
X26761Y17164D01*
X27076Y17325D01*
X27413Y17435D01*
X27763Y17490D01*
X28117Y17490D01*
X28467Y17435D01*
X28804Y17325D01*
X29119Y17164D01*
X29406Y16956D01*
X29656Y16706D01*
X29864Y16419D01*
X30025Y16104D01*
X30135Y15767D01*
X30190Y15417D01*
X30190Y15063D01*
M02*
