G04 EAGLE Gerber RS-274X export*
G75*
%MOMM*%
%FSLAX34Y34*%
%LPD*%
%INSoldermask Top*%
%IPPOS*%
%AMOC8*
5,1,8,0,0,1.08239X$1,22.5*%
G01*
%ADD10C,0.551600*%
%ADD11R,1.601600X1.401600*%
%ADD12R,1.401600X1.601600*%
%ADD13C,1.801600*%
%ADD14R,1.151600X0.421600*%
%ADD15R,1.601600X0.701600*%
%ADD16C,2.101600*%
%ADD17C,1.524000*%
%ADD18P,1.649562X8X112.500000*%
%ADD19R,0.351600X0.451600*%
%ADD20R,1.601600X1.701600*%
%ADD21R,2.032000X5.435600*%
%ADD22P,1.525737X8X202.500000*%
%ADD23R,2.251600X1.051600*%
%ADD24R,2.251600X3.351600*%
%ADD25R,1.701600X0.651600*%
%ADD26R,0.651600X1.701600*%
%ADD27C,0.245375*%


D10*
X45720Y459740D03*
X515620Y538480D03*
X27940Y15240D03*
D11*
X401320Y314300D03*
X401320Y295300D03*
X264160Y217780D03*
X264160Y198780D03*
X401320Y351180D03*
X401320Y370180D03*
D12*
X197460Y314960D03*
X178460Y314960D03*
X130200Y317500D03*
X149200Y317500D03*
X186080Y363220D03*
X205080Y363220D03*
D11*
X259080Y287680D03*
X259080Y306680D03*
X86360Y442620D03*
X86360Y461620D03*
X378460Y305460D03*
X378460Y324460D03*
X355600Y268580D03*
X355600Y249580D03*
X185420Y517500D03*
X185420Y498500D03*
X528320Y244500D03*
X528320Y263500D03*
X434340Y183540D03*
X434340Y202540D03*
X109220Y399440D03*
X109220Y418440D03*
D12*
X250800Y63500D03*
X231800Y63500D03*
D11*
X177800Y66700D03*
X177800Y85700D03*
X248920Y140360D03*
X248920Y159360D03*
X152400Y85700D03*
X152400Y66700D03*
X106680Y155600D03*
X106680Y174600D03*
D12*
X28600Y101600D03*
X47600Y101600D03*
X47600Y279400D03*
X28600Y279400D03*
D11*
X149860Y226720D03*
X149860Y245720D03*
X309880Y320700D03*
X309880Y339700D03*
X424180Y351180D03*
X424180Y370180D03*
D13*
X215900Y340360D03*
X139700Y340360D03*
X236220Y363220D03*
X236220Y287020D03*
X281940Y287020D03*
X281940Y363220D03*
D14*
X380140Y337980D03*
X380140Y342980D03*
X380140Y347980D03*
X380140Y352980D03*
X380140Y357980D03*
X336140Y357980D03*
X336140Y352980D03*
X336140Y347980D03*
X336140Y342980D03*
X336140Y337980D03*
D15*
X337380Y222250D03*
X282380Y222250D03*
X337380Y209550D03*
X337380Y234950D03*
X337380Y247650D03*
X282380Y209550D03*
X282380Y234950D03*
X282380Y247650D03*
X452560Y234950D03*
X507560Y234950D03*
X452560Y247650D03*
X452560Y222250D03*
X452560Y209550D03*
X507560Y247650D03*
X507560Y222250D03*
X507560Y209550D03*
D16*
X163080Y508160D02*
X163080Y528160D01*
X102080Y528160D02*
X102080Y508160D01*
X122080Y470160D02*
X142080Y470160D01*
D17*
X480568Y337820D02*
X494792Y337820D01*
X494792Y363220D02*
X480568Y363220D01*
X139700Y45212D02*
X139700Y30988D01*
X165100Y30988D02*
X165100Y45212D01*
X190500Y45212D02*
X190500Y30988D01*
X254000Y30988D02*
X254000Y45212D01*
X228600Y45212D02*
X228600Y30988D01*
D18*
X355600Y91440D03*
X330200Y91440D03*
X355600Y116840D03*
X330200Y116840D03*
X355600Y142240D03*
X330200Y142240D03*
X330200Y167640D03*
X355600Y167640D03*
D19*
X99270Y363220D03*
X93770Y363220D03*
D17*
X57912Y38100D02*
X43688Y38100D01*
X43688Y63500D02*
X57912Y63500D01*
X81788Y63500D02*
X96012Y63500D01*
X96012Y38100D02*
X81788Y38100D01*
D20*
X356800Y406200D03*
X356800Y381200D03*
X379800Y381200D03*
X379800Y406200D03*
D21*
X50800Y142240D03*
X50800Y238760D03*
D12*
X142900Y363220D03*
X161900Y363220D03*
X125120Y284480D03*
X144120Y284480D03*
D11*
X101600Y269900D03*
X101600Y288900D03*
D12*
X433680Y223520D03*
X414680Y223520D03*
D11*
X408940Y268580D03*
X408940Y249580D03*
X127000Y85700D03*
X127000Y66700D03*
D12*
X301600Y96520D03*
X282600Y96520D03*
D11*
X408940Y84480D03*
X408940Y103480D03*
X203200Y85700D03*
X203200Y66700D03*
D12*
X405740Y132080D03*
X386740Y132080D03*
D11*
X383540Y84480D03*
X383540Y103480D03*
D12*
X250800Y88900D03*
X231800Y88900D03*
D11*
X375920Y36220D03*
X375920Y55220D03*
X434340Y84480D03*
X434340Y103480D03*
D12*
X301600Y147320D03*
X282600Y147320D03*
X301600Y121920D03*
X282600Y121920D03*
D11*
X172720Y226720D03*
X172720Y245720D03*
X378460Y268580D03*
X378460Y249580D03*
X360680Y193700D03*
X360680Y212700D03*
D12*
X455320Y266700D03*
X474320Y266700D03*
D11*
X431800Y268580D03*
X431800Y249580D03*
D22*
X317500Y38100D03*
X317500Y63500D03*
X342900Y38100D03*
X342900Y63500D03*
X292100Y63500D03*
X292100Y38100D03*
D23*
X82340Y375780D03*
X82340Y398780D03*
X82340Y421780D03*
D24*
X24340Y398780D03*
D25*
X132760Y190560D03*
X132760Y182560D03*
X132760Y174560D03*
X132760Y166560D03*
X132760Y158560D03*
X132760Y150560D03*
X132760Y142560D03*
X132760Y134560D03*
X217760Y134560D03*
X217760Y142560D03*
X217760Y150560D03*
X217760Y158560D03*
X217760Y166560D03*
X217760Y174560D03*
X217760Y182560D03*
X217760Y190560D03*
D26*
X147260Y120060D03*
X155260Y120060D03*
X163260Y120060D03*
X171260Y120060D03*
X179260Y120060D03*
X187260Y120060D03*
X195260Y120060D03*
X203260Y120060D03*
X203260Y205060D03*
X195260Y205060D03*
X187260Y205060D03*
X179260Y205060D03*
X171260Y205060D03*
X163260Y205060D03*
X155260Y205060D03*
X147260Y205060D03*
D27*
X89301Y327359D02*
X78639Y327359D01*
X78639Y331721D01*
X89301Y331721D01*
X89301Y327359D01*
X89301Y329690D02*
X78639Y329690D01*
X78639Y317859D02*
X89301Y317859D01*
X78639Y317859D02*
X78639Y322221D01*
X89301Y322221D01*
X89301Y317859D01*
X89301Y320190D02*
X78639Y320190D01*
X78639Y308359D02*
X89301Y308359D01*
X78639Y308359D02*
X78639Y312721D01*
X89301Y312721D01*
X89301Y308359D01*
X89301Y310690D02*
X78639Y310690D01*
X103739Y327359D02*
X114401Y327359D01*
X103739Y327359D02*
X103739Y331721D01*
X114401Y331721D01*
X114401Y327359D01*
X114401Y329690D02*
X103739Y329690D01*
X103739Y317859D02*
X114401Y317859D01*
X103739Y317859D02*
X103739Y322221D01*
X114401Y322221D01*
X114401Y317859D01*
X114401Y320190D02*
X103739Y320190D01*
X103739Y308359D02*
X114401Y308359D01*
X103739Y308359D02*
X103739Y312721D01*
X114401Y312721D01*
X114401Y308359D01*
X114401Y310690D02*
X103739Y310690D01*
D17*
X465328Y40640D02*
X479552Y40640D01*
X479552Y66040D02*
X465328Y66040D01*
X465328Y91440D02*
X479552Y91440D01*
X500888Y40640D02*
X515112Y40640D01*
X515112Y66040D02*
X500888Y66040D01*
X500888Y91440D02*
X515112Y91440D01*
M02*
