G04 EAGLE Gerber RS-274X export*
G75*
%MOMM*%
%FSLAX34Y34*%
%LPD*%
%INSilkscreen Bottom*%
%IPPOS*%
%AMOC8*
5,1,8,0,0,1.08239X$1,22.5*%
G01*
%ADD10C,0.076200*%
%ADD11R,0.084581X1.356363*%
%ADD12R,0.084581X1.437638*%
%ADD13R,0.084581X1.864363*%
%ADD14R,0.084581X0.932181*%
%ADD15R,0.084581X0.591819*%
%ADD16R,0.084581X2.199638*%
%ADD17R,0.084838X2.199638*%
%ADD18R,0.084838X1.186181*%
%ADD19R,0.084838X0.762000*%
%ADD20R,0.084838X0.170181*%
%ADD21R,0.084838X2.540000*%
%ADD22R,0.084581X3.893819*%
%ADD23R,0.084581X0.762000*%
%ADD24R,0.084581X0.254000*%
%ADD25R,0.084581X2.710181*%
%ADD26R,0.084581X2.964181*%
%ADD27R,0.084581X1.270000*%
%ADD28R,0.084581X0.845819*%
%ADD29R,0.084581X0.340363*%
%ADD30R,0.084581X2.880362*%
%ADD31R,0.084838X3.048000*%
%ADD32R,0.084838X0.083819*%
%ADD33R,0.084838X1.356363*%
%ADD34R,0.084838X0.932181*%
%ADD35R,0.084838X0.508000*%
%ADD36R,0.084838X2.961638*%
%ADD37R,0.084581X0.167637*%
%ADD38R,0.084581X2.794000*%
%ADD39R,0.084581X1.353819*%
%ADD40R,0.084581X0.083819*%
%ADD41R,0.084581X0.170181*%
%ADD42R,0.084581X0.086363*%
%ADD43R,0.084838X0.337819*%
%ADD44R,0.084838X1.270000*%
%ADD45R,0.084838X1.102363*%
%ADD46R,0.084838X3.556000*%
%ADD47R,0.084581X0.337819*%
%ADD48R,0.084581X2.961638*%
%ADD49R,0.084581X0.594363*%
%ADD50R,0.084581X3.302000*%
%ADD51R,0.084581X1.186181*%
%ADD52R,0.084581X3.218181*%
%ADD53R,0.084838X0.167637*%
%ADD54R,0.084838X0.421637*%
%ADD55R,0.084838X3.302000*%
%ADD56R,0.084838X1.524000*%
%ADD57R,0.084838X0.424181*%
%ADD58R,0.084581X3.472181*%
%ADD59R,0.084581X1.607819*%
%ADD60R,0.084581X3.469638*%
%ADD61R,0.084581X4.401819*%
%ADD62R,0.084581X5.588000*%
%ADD63R,0.084838X0.845819*%
%ADD64R,0.084838X2.202181*%
%ADD65R,0.084838X0.591819*%
%ADD66R,0.084581X0.508000*%
%ADD67R,0.084581X3.215638*%
%ADD68R,0.084581X3.131819*%
%ADD69R,0.084581X5.925819*%
%ADD70R,0.084838X0.254000*%
%ADD71R,0.084838X5.504181*%
%ADD72R,0.084581X5.080000*%
%ADD73R,0.084581X4.909819*%
%ADD74R,0.084838X2.286000*%
%ADD75R,0.084581X1.948181*%
%ADD76R,0.084581X2.032000*%
%ADD77R,0.084838X1.861819*%
%ADD78R,0.084581X1.778000*%
%ADD79R,0.084581X1.694181*%
%ADD80R,0.084838X1.440181*%
%ADD81R,0.084581X1.183638*%
%ADD82R,0.084581X0.675638*%
%ADD83R,0.084581X0.678181*%
%ADD84R,0.170181X0.084838*%
%ADD85R,0.337819X0.084581*%
%ADD86R,0.421637X0.084581*%
%ADD87R,0.508000X0.084581*%
%ADD88R,0.421637X0.084838*%
%ADD89R,0.254000X0.084581*%
%ADD90R,0.340363X0.084581*%
%ADD91R,0.424181X0.084838*%
%ADD92R,0.424181X0.084581*%
%ADD93R,0.170181X0.084581*%
%ADD94R,0.086363X0.084838*%
%ADD95R,0.337819X0.084838*%
%ADD96R,0.594363X0.084581*%
%ADD97R,0.762000X0.084581*%
%ADD98R,0.929638X0.084838*%
%ADD99R,1.437638X0.084581*%
%ADD100R,1.186181X0.084581*%
%ADD101R,1.861819X0.084581*%
%ADD102R,0.591819X0.084581*%
%ADD103R,1.437638X0.084838*%
%ADD104R,0.678181X0.084838*%
%ADD105R,0.508000X0.084838*%
%ADD106R,1.016000X0.084581*%
%ADD107R,0.675638X0.084581*%
%ADD108R,0.591819X0.084838*%
%ADD109R,0.675638X0.084838*%
%ADD110R,1.102363X0.084838*%
%ADD111R,0.929638X0.084581*%
%ADD112R,0.848363X0.084581*%
%ADD113R,0.083819X0.084581*%
%ADD114R,1.270000X0.084838*%
%ADD115R,2.032000X0.084581*%
%ADD116R,1.607819X0.084581*%
%ADD117R,1.186181X0.084838*%
%ADD118R,0.254000X0.084838*%
%ADD119R,1.270000X0.084581*%
%ADD120R,1.016000X0.084838*%
%ADD121R,0.762000X0.084838*%
%ADD122R,1.610363X0.084838*%
%ADD123R,0.932181X0.084581*%
%ADD124R,0.678181X0.084581*%
%ADD125R,0.594363X0.084838*%
%ADD126R,3.385819X0.084581*%
%ADD127R,3.385819X0.084838*%
%ADD128R,8.890000X0.084838*%
%ADD129R,8.890000X0.084581*%
%ADD130R,8.806181X0.084838*%
%ADD131R,2.456181X0.084581*%
%ADD132R,3.556000X0.084581*%
%ADD133R,1.524000X0.084838*%
%ADD134R,1.440181X0.084838*%
%ADD135R,1.183638X0.084581*%
%ADD136R,1.524000X0.084581*%
%ADD137R,1.353819X0.084838*%
%ADD138R,0.932181X0.084838*%
%ADD139R,1.948181X0.084838*%
%ADD140R,1.694181X0.084581*%
%ADD141R,1.099819X0.084581*%
%ADD142R,1.440181X0.084581*%
%ADD143R,2.202181X0.084838*%
%ADD144R,0.083819X0.084838*%
%ADD145R,3.131819X0.084581*%
%ADD146R,3.302000X0.084838*%
%ADD147R,0.340363X0.084838*%
%ADD148R,0.167637X0.084838*%
%ADD149R,3.218181X0.084581*%
%ADD150R,3.131819X0.084838*%
%ADD151R,3.048000X0.084581*%
%ADD152R,0.167637X0.084581*%
%ADD153R,2.964181X0.084581*%
%ADD154R,2.877819X0.084838*%
%ADD155R,2.794000X0.084581*%
%ADD156R,1.778000X0.084581*%
%ADD157R,2.623819X0.084581*%
%ADD158R,2.369819X0.084838*%
%ADD159R,2.286000X0.084581*%
%ADD160R,0.845819X0.084581*%
%ADD161R,2.286000X0.084838*%
%ADD162R,1.099819X0.084838*%
%ADD163R,0.086363X0.084581*%
%ADD164R,2.369819X0.084581*%
%ADD165R,3.472181X0.084581*%
%ADD166R,4.742181X0.084838*%
%ADD167R,5.334000X0.084581*%
%ADD168R,5.925819X0.084581*%
%ADD169R,0.845819X0.084838*%
%ADD170R,6.604000X0.084838*%
%ADD171R,7.282181X0.084581*%
%ADD172R,7.874000X0.084581*%
%ADD173R,1.778000X0.084838*%
%ADD174R,8.465819X0.084838*%
%ADD175R,2.202181X0.084581*%
%ADD176R,9.057638X0.084581*%
%ADD177R,2.115819X0.084581*%
%ADD178R,14.053819X0.084581*%
%ADD179R,2.032000X0.084838*%
%ADD180R,14.053819X0.084838*%
%ADD181R,1.948181X0.084581*%
%ADD182R,1.694181X0.084838*%
%ADD183R,1.353819X0.084581*%
%ADD184R,2.199638X0.084581*%
%ADD185R,2.118362X0.084581*%
%ADD186R,1.356363X0.084581*%
%ADD187R,2.794000X0.084838*%
%ADD188R,1.607819X0.084838*%
%ADD189R,3.469638X0.084838*%
%ADD190R,3.469638X0.084581*%
%ADD191R,1.691638X0.084581*%
%ADD192R,13.970000X0.084838*%
%ADD193R,9.227819X0.084581*%
%ADD194R,2.453638X0.084581*%
%ADD195R,8.465819X0.084581*%
%ADD196R,7.787638X0.084838*%
%ADD197R,7.195819X0.084581*%
%ADD198R,6.858000X0.084581*%
%ADD199R,6.263638X0.084838*%
%ADD200R,5.588000X0.084581*%
%ADD201R,4.742181X0.084581*%
%ADD202R,3.977638X0.084838*%
%ADD203R,2.877819X0.084581*%
%ADD204R,3.302000X0.084581*%
%ADD205R,3.556000X0.084838*%
%ADD206R,1.861819X0.084838*%
%ADD207R,1.102363X0.084581*%
%ADD208R,0.848363X0.084838*%
%ADD209R,1.945638X0.084581*%
%ADD210R,2.710181X0.084581*%
%ADD211R,2.453638X0.084838*%
%ADD212R,1.610363X0.084581*%


D10*
X456085Y488061D02*
X457722Y488061D01*
X457800Y488063D01*
X457878Y488068D01*
X457955Y488078D01*
X458032Y488091D01*
X458108Y488107D01*
X458183Y488127D01*
X458257Y488151D01*
X458330Y488178D01*
X458402Y488209D01*
X458472Y488243D01*
X458541Y488280D01*
X458607Y488321D01*
X458672Y488365D01*
X458734Y488411D01*
X458794Y488461D01*
X458852Y488513D01*
X458907Y488568D01*
X458959Y488626D01*
X459009Y488686D01*
X459055Y488748D01*
X459099Y488813D01*
X459140Y488880D01*
X459177Y488948D01*
X459211Y489018D01*
X459242Y489090D01*
X459269Y489163D01*
X459293Y489237D01*
X459313Y489312D01*
X459329Y489388D01*
X459342Y489465D01*
X459352Y489542D01*
X459357Y489620D01*
X459359Y489698D01*
X459359Y493790D01*
X459357Y493868D01*
X459352Y493946D01*
X459342Y494023D01*
X459329Y494100D01*
X459313Y494176D01*
X459293Y494251D01*
X459269Y494325D01*
X459242Y494398D01*
X459211Y494470D01*
X459177Y494540D01*
X459140Y494609D01*
X459099Y494675D01*
X459055Y494740D01*
X459009Y494802D01*
X458959Y494862D01*
X458907Y494920D01*
X458852Y494975D01*
X458794Y495027D01*
X458734Y495077D01*
X458672Y495123D01*
X458607Y495167D01*
X458541Y495208D01*
X458472Y495245D01*
X458402Y495279D01*
X458330Y495310D01*
X458257Y495337D01*
X458183Y495361D01*
X458108Y495381D01*
X458032Y495397D01*
X457955Y495410D01*
X457878Y495420D01*
X457800Y495425D01*
X457722Y495427D01*
X456085Y495427D01*
X453075Y495427D02*
X453075Y488061D01*
X453075Y492972D02*
X451028Y492972D01*
X450959Y492970D01*
X450891Y492964D01*
X450822Y492955D01*
X450755Y492941D01*
X450688Y492924D01*
X450622Y492903D01*
X450558Y492879D01*
X450495Y492850D01*
X450434Y492819D01*
X450375Y492784D01*
X450317Y492746D01*
X450262Y492704D01*
X450210Y492660D01*
X450160Y492612D01*
X450112Y492562D01*
X450068Y492510D01*
X450027Y492455D01*
X449988Y492397D01*
X449953Y492338D01*
X449922Y492277D01*
X449893Y492214D01*
X449869Y492150D01*
X449848Y492084D01*
X449831Y492017D01*
X449817Y491950D01*
X449808Y491882D01*
X449802Y491813D01*
X449800Y491744D01*
X449801Y491744D02*
X449801Y488061D01*
X446201Y488061D02*
X446201Y492972D01*
X443746Y492972D01*
X443746Y492153D01*
X441440Y492972D02*
X441440Y488061D01*
X441645Y495018D02*
X441645Y495427D01*
X441236Y495427D01*
X441236Y495018D01*
X441645Y495018D01*
X437830Y490926D02*
X435784Y490107D01*
X437830Y490926D02*
X437889Y490951D01*
X437946Y490980D01*
X438001Y491013D01*
X438054Y491049D01*
X438105Y491087D01*
X438153Y491129D01*
X438199Y491174D01*
X438242Y491221D01*
X438282Y491271D01*
X438319Y491323D01*
X438353Y491378D01*
X438384Y491434D01*
X438411Y491492D01*
X438434Y491552D01*
X438454Y491612D01*
X438470Y491674D01*
X438483Y491737D01*
X438491Y491801D01*
X438496Y491864D01*
X438497Y491928D01*
X438494Y491992D01*
X438487Y492056D01*
X438476Y492119D01*
X438462Y492181D01*
X438444Y492243D01*
X438422Y492303D01*
X438397Y492362D01*
X438368Y492419D01*
X438335Y492474D01*
X438300Y492527D01*
X438261Y492578D01*
X438219Y492627D01*
X438175Y492673D01*
X438127Y492716D01*
X438078Y492756D01*
X438025Y492793D01*
X437971Y492827D01*
X437915Y492858D01*
X437857Y492885D01*
X437798Y492909D01*
X437737Y492928D01*
X437675Y492945D01*
X437612Y492957D01*
X437549Y492966D01*
X437485Y492971D01*
X437421Y492972D01*
X437422Y492972D02*
X437286Y492968D01*
X437151Y492960D01*
X437015Y492948D01*
X436881Y492932D01*
X436746Y492912D01*
X436613Y492889D01*
X436480Y492861D01*
X436348Y492830D01*
X436217Y492795D01*
X436087Y492756D01*
X435958Y492713D01*
X435831Y492666D01*
X435705Y492616D01*
X435580Y492562D01*
X435784Y490107D02*
X435725Y490082D01*
X435668Y490053D01*
X435613Y490020D01*
X435560Y489984D01*
X435509Y489946D01*
X435461Y489904D01*
X435415Y489859D01*
X435372Y489812D01*
X435332Y489762D01*
X435295Y489710D01*
X435261Y489655D01*
X435230Y489599D01*
X435203Y489541D01*
X435180Y489481D01*
X435160Y489421D01*
X435144Y489359D01*
X435131Y489296D01*
X435123Y489232D01*
X435118Y489169D01*
X435117Y489105D01*
X435120Y489041D01*
X435127Y488977D01*
X435138Y488914D01*
X435152Y488852D01*
X435170Y488790D01*
X435192Y488730D01*
X435217Y488671D01*
X435246Y488614D01*
X435279Y488559D01*
X435314Y488506D01*
X435353Y488455D01*
X435395Y488406D01*
X435439Y488360D01*
X435487Y488317D01*
X435536Y488277D01*
X435589Y488240D01*
X435643Y488206D01*
X435699Y488175D01*
X435757Y488148D01*
X435816Y488124D01*
X435877Y488105D01*
X435939Y488088D01*
X436002Y488076D01*
X436065Y488067D01*
X436129Y488062D01*
X436193Y488061D01*
X436357Y488065D01*
X436521Y488073D01*
X436685Y488085D01*
X436848Y488101D01*
X437011Y488121D01*
X437174Y488144D01*
X437335Y488172D01*
X437497Y488203D01*
X437657Y488238D01*
X437816Y488277D01*
X437975Y488320D01*
X438132Y488366D01*
X438289Y488416D01*
X438444Y488470D01*
X432735Y492972D02*
X430280Y492972D01*
X431916Y495427D02*
X431916Y489289D01*
X431917Y489289D02*
X431915Y489220D01*
X431909Y489152D01*
X431900Y489083D01*
X431886Y489016D01*
X431869Y488949D01*
X431848Y488883D01*
X431824Y488819D01*
X431795Y488756D01*
X431764Y488695D01*
X431729Y488636D01*
X431691Y488578D01*
X431649Y488523D01*
X431605Y488471D01*
X431557Y488421D01*
X431507Y488373D01*
X431455Y488329D01*
X431400Y488288D01*
X431342Y488249D01*
X431283Y488214D01*
X431222Y488183D01*
X431159Y488154D01*
X431095Y488130D01*
X431029Y488109D01*
X430962Y488092D01*
X430895Y488078D01*
X430827Y488069D01*
X430758Y488063D01*
X430689Y488061D01*
X430280Y488061D01*
X427472Y489698D02*
X427472Y491335D01*
X427470Y491414D01*
X427464Y491493D01*
X427455Y491572D01*
X427442Y491650D01*
X427424Y491727D01*
X427404Y491803D01*
X427379Y491878D01*
X427351Y491952D01*
X427320Y492025D01*
X427284Y492096D01*
X427246Y492165D01*
X427204Y492232D01*
X427159Y492297D01*
X427111Y492360D01*
X427060Y492421D01*
X427006Y492478D01*
X426950Y492534D01*
X426891Y492586D01*
X426829Y492636D01*
X426765Y492682D01*
X426699Y492726D01*
X426631Y492766D01*
X426561Y492802D01*
X426489Y492836D01*
X426415Y492866D01*
X426341Y492892D01*
X426265Y492915D01*
X426188Y492933D01*
X426111Y492949D01*
X426032Y492960D01*
X425954Y492968D01*
X425875Y492972D01*
X425795Y492972D01*
X425716Y492968D01*
X425638Y492960D01*
X425559Y492949D01*
X425482Y492933D01*
X425405Y492915D01*
X425329Y492892D01*
X425255Y492866D01*
X425181Y492836D01*
X425109Y492802D01*
X425039Y492766D01*
X424971Y492726D01*
X424905Y492682D01*
X424841Y492636D01*
X424779Y492586D01*
X424720Y492534D01*
X424664Y492478D01*
X424610Y492421D01*
X424559Y492360D01*
X424511Y492297D01*
X424466Y492232D01*
X424424Y492165D01*
X424386Y492096D01*
X424350Y492025D01*
X424319Y491952D01*
X424291Y491878D01*
X424266Y491803D01*
X424246Y491727D01*
X424228Y491650D01*
X424215Y491572D01*
X424206Y491493D01*
X424200Y491414D01*
X424198Y491335D01*
X424198Y489698D01*
X424200Y489619D01*
X424206Y489540D01*
X424215Y489461D01*
X424228Y489383D01*
X424246Y489306D01*
X424266Y489230D01*
X424291Y489155D01*
X424319Y489081D01*
X424350Y489008D01*
X424386Y488937D01*
X424424Y488868D01*
X424466Y488801D01*
X424511Y488736D01*
X424559Y488673D01*
X424610Y488612D01*
X424664Y488555D01*
X424720Y488499D01*
X424779Y488447D01*
X424841Y488397D01*
X424905Y488351D01*
X424971Y488307D01*
X425039Y488267D01*
X425109Y488231D01*
X425181Y488197D01*
X425255Y488167D01*
X425329Y488141D01*
X425405Y488118D01*
X425482Y488100D01*
X425559Y488084D01*
X425638Y488073D01*
X425716Y488065D01*
X425795Y488061D01*
X425875Y488061D01*
X425954Y488065D01*
X426032Y488073D01*
X426111Y488084D01*
X426188Y488100D01*
X426265Y488118D01*
X426341Y488141D01*
X426415Y488167D01*
X426489Y488197D01*
X426561Y488231D01*
X426631Y488267D01*
X426699Y488307D01*
X426765Y488351D01*
X426829Y488397D01*
X426891Y488447D01*
X426950Y488499D01*
X427006Y488555D01*
X427060Y488612D01*
X427111Y488673D01*
X427159Y488736D01*
X427204Y488801D01*
X427246Y488868D01*
X427284Y488937D01*
X427320Y489008D01*
X427351Y489081D01*
X427379Y489155D01*
X427404Y489230D01*
X427424Y489306D01*
X427442Y489383D01*
X427455Y489461D01*
X427464Y489540D01*
X427470Y489619D01*
X427472Y489698D01*
X420847Y492972D02*
X420847Y485606D01*
X420847Y492972D02*
X418801Y492972D01*
X418732Y492970D01*
X418664Y492964D01*
X418595Y492955D01*
X418528Y492941D01*
X418461Y492924D01*
X418395Y492903D01*
X418331Y492879D01*
X418268Y492850D01*
X418207Y492819D01*
X418148Y492784D01*
X418090Y492746D01*
X418035Y492704D01*
X417983Y492660D01*
X417933Y492612D01*
X417885Y492562D01*
X417841Y492510D01*
X417800Y492455D01*
X417761Y492397D01*
X417726Y492338D01*
X417695Y492277D01*
X417666Y492214D01*
X417642Y492150D01*
X417621Y492084D01*
X417604Y492017D01*
X417590Y491950D01*
X417581Y491882D01*
X417575Y491813D01*
X417573Y491744D01*
X417573Y489289D01*
X417575Y489220D01*
X417581Y489152D01*
X417590Y489083D01*
X417604Y489016D01*
X417621Y488949D01*
X417642Y488883D01*
X417666Y488819D01*
X417695Y488756D01*
X417726Y488695D01*
X417761Y488636D01*
X417799Y488578D01*
X417841Y488523D01*
X417885Y488471D01*
X417933Y488421D01*
X417983Y488373D01*
X418035Y488329D01*
X418090Y488287D01*
X418148Y488249D01*
X418207Y488214D01*
X418268Y488183D01*
X418331Y488154D01*
X418395Y488130D01*
X418461Y488109D01*
X418528Y488092D01*
X418595Y488078D01*
X418664Y488069D01*
X418732Y488063D01*
X418801Y488061D01*
X420847Y488061D01*
X414304Y488061D02*
X414304Y495427D01*
X414304Y492972D02*
X412258Y492972D01*
X412189Y492970D01*
X412121Y492964D01*
X412052Y492955D01*
X411985Y492941D01*
X411918Y492924D01*
X411852Y492903D01*
X411788Y492879D01*
X411725Y492850D01*
X411664Y492819D01*
X411605Y492784D01*
X411547Y492746D01*
X411492Y492704D01*
X411440Y492660D01*
X411390Y492612D01*
X411342Y492562D01*
X411298Y492510D01*
X411257Y492455D01*
X411218Y492397D01*
X411183Y492338D01*
X411152Y492277D01*
X411123Y492214D01*
X411099Y492150D01*
X411078Y492084D01*
X411061Y492017D01*
X411047Y491950D01*
X411038Y491882D01*
X411032Y491813D01*
X411030Y491744D01*
X411031Y491744D02*
X411031Y488061D01*
X406493Y488061D02*
X404447Y488061D01*
X406493Y488061D02*
X406562Y488063D01*
X406630Y488069D01*
X406699Y488078D01*
X406766Y488092D01*
X406833Y488109D01*
X406899Y488130D01*
X406963Y488154D01*
X407026Y488183D01*
X407087Y488214D01*
X407146Y488249D01*
X407204Y488287D01*
X407259Y488329D01*
X407311Y488373D01*
X407361Y488421D01*
X407409Y488471D01*
X407453Y488523D01*
X407495Y488578D01*
X407533Y488636D01*
X407568Y488695D01*
X407599Y488756D01*
X407628Y488819D01*
X407652Y488883D01*
X407673Y488949D01*
X407690Y489016D01*
X407704Y489083D01*
X407713Y489152D01*
X407719Y489220D01*
X407721Y489289D01*
X407721Y491335D01*
X407719Y491414D01*
X407713Y491493D01*
X407704Y491572D01*
X407691Y491650D01*
X407673Y491727D01*
X407653Y491803D01*
X407628Y491878D01*
X407600Y491952D01*
X407569Y492025D01*
X407533Y492096D01*
X407495Y492165D01*
X407453Y492232D01*
X407408Y492297D01*
X407360Y492360D01*
X407309Y492421D01*
X407255Y492478D01*
X407199Y492534D01*
X407140Y492586D01*
X407078Y492636D01*
X407014Y492682D01*
X406948Y492726D01*
X406880Y492766D01*
X406810Y492802D01*
X406738Y492836D01*
X406664Y492866D01*
X406590Y492892D01*
X406514Y492915D01*
X406437Y492933D01*
X406360Y492949D01*
X406281Y492960D01*
X406203Y492968D01*
X406124Y492972D01*
X406044Y492972D01*
X405965Y492968D01*
X405887Y492960D01*
X405808Y492949D01*
X405731Y492933D01*
X405654Y492915D01*
X405578Y492892D01*
X405504Y492866D01*
X405430Y492836D01*
X405358Y492802D01*
X405288Y492766D01*
X405220Y492726D01*
X405154Y492682D01*
X405090Y492636D01*
X405028Y492586D01*
X404969Y492534D01*
X404913Y492478D01*
X404859Y492421D01*
X404808Y492360D01*
X404760Y492297D01*
X404715Y492232D01*
X404673Y492165D01*
X404635Y492096D01*
X404599Y492025D01*
X404568Y491952D01*
X404540Y491878D01*
X404515Y491803D01*
X404495Y491727D01*
X404477Y491650D01*
X404464Y491572D01*
X404455Y491493D01*
X404449Y491414D01*
X404447Y491335D01*
X404447Y490516D01*
X407721Y490516D01*
X401091Y488061D02*
X401091Y492972D01*
X398636Y492972D01*
X398636Y492153D01*
X389172Y492153D02*
X387944Y492153D01*
X387944Y488061D01*
X390400Y488061D01*
X390478Y488063D01*
X390556Y488068D01*
X390633Y488078D01*
X390710Y488091D01*
X390786Y488107D01*
X390861Y488127D01*
X390935Y488151D01*
X391008Y488178D01*
X391080Y488209D01*
X391150Y488243D01*
X391219Y488280D01*
X391285Y488321D01*
X391350Y488365D01*
X391412Y488411D01*
X391472Y488461D01*
X391530Y488513D01*
X391585Y488568D01*
X391637Y488626D01*
X391687Y488686D01*
X391733Y488748D01*
X391777Y488813D01*
X391818Y488880D01*
X391855Y488948D01*
X391889Y489018D01*
X391920Y489090D01*
X391947Y489163D01*
X391971Y489237D01*
X391991Y489312D01*
X392007Y489388D01*
X392020Y489465D01*
X392030Y489542D01*
X392035Y489620D01*
X392037Y489698D01*
X392036Y489698D02*
X392036Y493790D01*
X392037Y493790D02*
X392035Y493868D01*
X392030Y493946D01*
X392020Y494023D01*
X392007Y494100D01*
X391991Y494176D01*
X391971Y494251D01*
X391947Y494325D01*
X391920Y494398D01*
X391889Y494470D01*
X391855Y494540D01*
X391818Y494609D01*
X391777Y494675D01*
X391733Y494740D01*
X391687Y494802D01*
X391637Y494862D01*
X391585Y494920D01*
X391530Y494975D01*
X391472Y495027D01*
X391412Y495077D01*
X391350Y495123D01*
X391285Y495167D01*
X391219Y495208D01*
X391150Y495245D01*
X391080Y495279D01*
X391008Y495310D01*
X390935Y495337D01*
X390861Y495361D01*
X390786Y495381D01*
X390710Y495397D01*
X390633Y495410D01*
X390556Y495420D01*
X390478Y495425D01*
X390400Y495427D01*
X387944Y495427D01*
X384266Y492972D02*
X384266Y488061D01*
X384266Y492972D02*
X381811Y492972D01*
X381811Y492153D01*
X378044Y490926D02*
X376203Y490926D01*
X378044Y490925D02*
X378119Y490923D01*
X378194Y490917D01*
X378268Y490907D01*
X378342Y490894D01*
X378415Y490876D01*
X378487Y490855D01*
X378557Y490830D01*
X378626Y490801D01*
X378694Y490769D01*
X378760Y490733D01*
X378824Y490694D01*
X378886Y490652D01*
X378945Y490606D01*
X379002Y490557D01*
X379057Y490506D01*
X379108Y490451D01*
X379157Y490394D01*
X379203Y490335D01*
X379245Y490273D01*
X379284Y490209D01*
X379320Y490143D01*
X379352Y490075D01*
X379381Y490006D01*
X379406Y489936D01*
X379427Y489864D01*
X379445Y489791D01*
X379458Y489717D01*
X379468Y489643D01*
X379474Y489568D01*
X379476Y489493D01*
X379474Y489418D01*
X379468Y489343D01*
X379458Y489269D01*
X379445Y489195D01*
X379427Y489122D01*
X379406Y489050D01*
X379381Y488980D01*
X379352Y488911D01*
X379320Y488843D01*
X379284Y488777D01*
X379245Y488713D01*
X379203Y488651D01*
X379157Y488592D01*
X379108Y488535D01*
X379057Y488480D01*
X379002Y488429D01*
X378945Y488380D01*
X378886Y488334D01*
X378824Y488292D01*
X378760Y488253D01*
X378694Y488217D01*
X378626Y488185D01*
X378557Y488156D01*
X378487Y488131D01*
X378415Y488110D01*
X378342Y488092D01*
X378268Y488079D01*
X378194Y488069D01*
X378119Y488063D01*
X378044Y488061D01*
X376203Y488061D01*
X376203Y491744D01*
X376202Y491744D02*
X376204Y491813D01*
X376210Y491881D01*
X376219Y491950D01*
X376233Y492017D01*
X376250Y492084D01*
X376271Y492150D01*
X376295Y492214D01*
X376324Y492277D01*
X376355Y492338D01*
X376390Y492397D01*
X376428Y492455D01*
X376470Y492510D01*
X376514Y492562D01*
X376562Y492612D01*
X376612Y492660D01*
X376664Y492704D01*
X376719Y492746D01*
X376777Y492784D01*
X376836Y492819D01*
X376897Y492850D01*
X376960Y492879D01*
X377024Y492903D01*
X377090Y492924D01*
X377157Y492941D01*
X377224Y492955D01*
X377293Y492964D01*
X377361Y492970D01*
X377430Y492972D01*
X379067Y492972D01*
X373096Y492972D02*
X371459Y488061D01*
X369822Y492972D01*
X365772Y488061D02*
X363726Y488061D01*
X365772Y488061D02*
X365841Y488063D01*
X365909Y488069D01*
X365978Y488078D01*
X366045Y488092D01*
X366112Y488109D01*
X366178Y488130D01*
X366242Y488154D01*
X366305Y488183D01*
X366366Y488214D01*
X366425Y488249D01*
X366483Y488287D01*
X366538Y488329D01*
X366590Y488373D01*
X366640Y488421D01*
X366688Y488471D01*
X366732Y488523D01*
X366774Y488578D01*
X366812Y488636D01*
X366847Y488695D01*
X366878Y488756D01*
X366907Y488819D01*
X366931Y488883D01*
X366952Y488949D01*
X366969Y489016D01*
X366983Y489083D01*
X366992Y489152D01*
X366998Y489220D01*
X367000Y489289D01*
X367000Y491335D01*
X366998Y491414D01*
X366992Y491493D01*
X366983Y491572D01*
X366970Y491650D01*
X366952Y491727D01*
X366932Y491803D01*
X366907Y491878D01*
X366879Y491952D01*
X366848Y492025D01*
X366812Y492096D01*
X366774Y492165D01*
X366732Y492232D01*
X366687Y492297D01*
X366639Y492360D01*
X366588Y492421D01*
X366534Y492478D01*
X366478Y492534D01*
X366419Y492586D01*
X366357Y492636D01*
X366293Y492682D01*
X366227Y492726D01*
X366159Y492766D01*
X366089Y492802D01*
X366017Y492836D01*
X365943Y492866D01*
X365869Y492892D01*
X365793Y492915D01*
X365716Y492933D01*
X365639Y492949D01*
X365560Y492960D01*
X365482Y492968D01*
X365403Y492972D01*
X365323Y492972D01*
X365244Y492968D01*
X365166Y492960D01*
X365087Y492949D01*
X365010Y492933D01*
X364933Y492915D01*
X364857Y492892D01*
X364783Y492866D01*
X364709Y492836D01*
X364637Y492802D01*
X364567Y492766D01*
X364499Y492726D01*
X364433Y492682D01*
X364369Y492636D01*
X364307Y492586D01*
X364248Y492534D01*
X364192Y492478D01*
X364138Y492421D01*
X364087Y492360D01*
X364039Y492297D01*
X363994Y492232D01*
X363952Y492165D01*
X363914Y492096D01*
X363878Y492025D01*
X363847Y491952D01*
X363819Y491878D01*
X363794Y491803D01*
X363774Y491727D01*
X363756Y491650D01*
X363743Y491572D01*
X363734Y491493D01*
X363728Y491414D01*
X363726Y491335D01*
X363726Y490516D01*
X367000Y490516D01*
X360577Y489289D02*
X360577Y495427D01*
X360577Y489289D02*
X360575Y489220D01*
X360569Y489152D01*
X360560Y489083D01*
X360546Y489016D01*
X360529Y488949D01*
X360508Y488883D01*
X360484Y488819D01*
X360455Y488756D01*
X360424Y488695D01*
X360389Y488636D01*
X360351Y488578D01*
X360309Y488523D01*
X360265Y488471D01*
X360217Y488421D01*
X360167Y488373D01*
X360115Y488329D01*
X360060Y488288D01*
X360002Y488249D01*
X359943Y488214D01*
X359882Y488183D01*
X359819Y488154D01*
X359755Y488130D01*
X359689Y488109D01*
X359622Y488092D01*
X359555Y488078D01*
X359487Y488069D01*
X359418Y488063D01*
X359349Y488061D01*
X356675Y489289D02*
X356675Y495427D01*
X356676Y489289D02*
X356674Y489220D01*
X356668Y489152D01*
X356659Y489083D01*
X356645Y489016D01*
X356628Y488949D01*
X356607Y488883D01*
X356583Y488819D01*
X356554Y488756D01*
X356523Y488695D01*
X356488Y488636D01*
X356450Y488578D01*
X356408Y488523D01*
X356364Y488471D01*
X356316Y488421D01*
X356266Y488373D01*
X356214Y488329D01*
X356159Y488288D01*
X356101Y488249D01*
X356042Y488214D01*
X355981Y488183D01*
X355918Y488154D01*
X355854Y488130D01*
X355788Y488109D01*
X355721Y488092D01*
X355654Y488078D01*
X355586Y488069D01*
X355517Y488063D01*
X355448Y488061D01*
X351629Y488061D02*
X349583Y488061D01*
X351629Y488061D02*
X351698Y488063D01*
X351766Y488069D01*
X351835Y488078D01*
X351902Y488092D01*
X351969Y488109D01*
X352035Y488130D01*
X352099Y488154D01*
X352162Y488183D01*
X352223Y488214D01*
X352282Y488249D01*
X352340Y488287D01*
X352395Y488329D01*
X352447Y488373D01*
X352497Y488421D01*
X352545Y488471D01*
X352589Y488523D01*
X352631Y488578D01*
X352669Y488636D01*
X352704Y488695D01*
X352735Y488756D01*
X352764Y488819D01*
X352788Y488883D01*
X352809Y488949D01*
X352826Y489016D01*
X352840Y489083D01*
X352849Y489152D01*
X352855Y489220D01*
X352857Y489289D01*
X352857Y491335D01*
X352855Y491414D01*
X352849Y491493D01*
X352840Y491572D01*
X352827Y491650D01*
X352809Y491727D01*
X352789Y491803D01*
X352764Y491878D01*
X352736Y491952D01*
X352705Y492025D01*
X352669Y492096D01*
X352631Y492165D01*
X352589Y492232D01*
X352544Y492297D01*
X352496Y492360D01*
X352445Y492421D01*
X352391Y492478D01*
X352335Y492534D01*
X352276Y492586D01*
X352214Y492636D01*
X352150Y492682D01*
X352084Y492726D01*
X352016Y492766D01*
X351946Y492802D01*
X351874Y492836D01*
X351800Y492866D01*
X351726Y492892D01*
X351650Y492915D01*
X351573Y492933D01*
X351496Y492949D01*
X351417Y492960D01*
X351339Y492968D01*
X351260Y492972D01*
X351180Y492972D01*
X351101Y492968D01*
X351023Y492960D01*
X350944Y492949D01*
X350867Y492933D01*
X350790Y492915D01*
X350714Y492892D01*
X350640Y492866D01*
X350566Y492836D01*
X350494Y492802D01*
X350424Y492766D01*
X350356Y492726D01*
X350290Y492682D01*
X350226Y492636D01*
X350164Y492586D01*
X350105Y492534D01*
X350049Y492478D01*
X349995Y492421D01*
X349944Y492360D01*
X349896Y492297D01*
X349851Y492232D01*
X349809Y492165D01*
X349771Y492096D01*
X349735Y492025D01*
X349704Y491952D01*
X349676Y491878D01*
X349651Y491803D01*
X349631Y491727D01*
X349613Y491650D01*
X349600Y491572D01*
X349591Y491493D01*
X349585Y491414D01*
X349583Y491335D01*
X349583Y490516D01*
X352857Y490516D01*
X504345Y475361D02*
X506391Y475361D01*
X506460Y475363D01*
X506528Y475369D01*
X506597Y475378D01*
X506664Y475392D01*
X506731Y475409D01*
X506797Y475430D01*
X506861Y475454D01*
X506924Y475483D01*
X506985Y475514D01*
X507044Y475549D01*
X507102Y475587D01*
X507157Y475629D01*
X507209Y475673D01*
X507259Y475721D01*
X507307Y475771D01*
X507351Y475823D01*
X507393Y475878D01*
X507431Y475936D01*
X507466Y475995D01*
X507497Y476056D01*
X507526Y476119D01*
X507550Y476183D01*
X507571Y476249D01*
X507588Y476316D01*
X507602Y476383D01*
X507611Y476452D01*
X507617Y476520D01*
X507619Y476589D01*
X507619Y479044D01*
X507617Y479113D01*
X507611Y479181D01*
X507602Y479250D01*
X507588Y479317D01*
X507571Y479384D01*
X507550Y479450D01*
X507526Y479514D01*
X507497Y479577D01*
X507466Y479638D01*
X507431Y479697D01*
X507393Y479755D01*
X507351Y479810D01*
X507307Y479862D01*
X507259Y479912D01*
X507209Y479960D01*
X507157Y480004D01*
X507102Y480046D01*
X507044Y480084D01*
X506985Y480119D01*
X506924Y480150D01*
X506861Y480179D01*
X506797Y480203D01*
X506731Y480224D01*
X506664Y480241D01*
X506597Y480255D01*
X506528Y480264D01*
X506460Y480270D01*
X506391Y480272D01*
X504345Y480272D01*
X504345Y474133D01*
X504347Y474064D01*
X504353Y473996D01*
X504362Y473927D01*
X504376Y473860D01*
X504393Y473793D01*
X504414Y473727D01*
X504438Y473663D01*
X504467Y473600D01*
X504498Y473539D01*
X504533Y473480D01*
X504571Y473422D01*
X504613Y473367D01*
X504657Y473315D01*
X504705Y473265D01*
X504755Y473217D01*
X504807Y473173D01*
X504862Y473131D01*
X504920Y473093D01*
X504979Y473058D01*
X505040Y473027D01*
X505103Y472998D01*
X505167Y472974D01*
X505233Y472953D01*
X505300Y472936D01*
X505367Y472922D01*
X505436Y472913D01*
X505504Y472907D01*
X505573Y472905D01*
X505573Y472906D02*
X507210Y472906D01*
X501064Y475361D02*
X501064Y480272D01*
X501269Y482318D02*
X501269Y482727D01*
X500860Y482727D01*
X500860Y482318D01*
X501269Y482318D01*
X498699Y480272D02*
X496243Y480272D01*
X497880Y482727D02*
X497880Y476589D01*
X497881Y476589D02*
X497879Y476520D01*
X497873Y476452D01*
X497864Y476383D01*
X497850Y476316D01*
X497833Y476249D01*
X497812Y476183D01*
X497788Y476119D01*
X497759Y476056D01*
X497728Y475995D01*
X497693Y475936D01*
X497655Y475878D01*
X497613Y475823D01*
X497569Y475771D01*
X497521Y475721D01*
X497471Y475673D01*
X497419Y475629D01*
X497364Y475588D01*
X497306Y475549D01*
X497247Y475514D01*
X497186Y475483D01*
X497123Y475454D01*
X497059Y475430D01*
X496993Y475409D01*
X496926Y475392D01*
X496859Y475378D01*
X496791Y475369D01*
X496722Y475363D01*
X496653Y475361D01*
X496243Y475361D01*
X493192Y475361D02*
X493192Y482727D01*
X493192Y480272D02*
X491146Y480272D01*
X491077Y480270D01*
X491009Y480264D01*
X490940Y480255D01*
X490873Y480241D01*
X490806Y480224D01*
X490740Y480203D01*
X490676Y480179D01*
X490613Y480150D01*
X490552Y480119D01*
X490493Y480084D01*
X490435Y480046D01*
X490380Y480004D01*
X490328Y479960D01*
X490278Y479912D01*
X490230Y479862D01*
X490186Y479810D01*
X490145Y479755D01*
X490106Y479697D01*
X490071Y479638D01*
X490040Y479577D01*
X490011Y479514D01*
X489987Y479450D01*
X489966Y479384D01*
X489949Y479317D01*
X489935Y479250D01*
X489926Y479182D01*
X489920Y479113D01*
X489918Y479044D01*
X489918Y475361D01*
X486364Y476589D02*
X486364Y480272D01*
X486364Y476589D02*
X486362Y476520D01*
X486356Y476452D01*
X486347Y476383D01*
X486333Y476316D01*
X486316Y476249D01*
X486295Y476183D01*
X486271Y476119D01*
X486242Y476056D01*
X486211Y475995D01*
X486176Y475936D01*
X486138Y475878D01*
X486096Y475823D01*
X486052Y475771D01*
X486004Y475721D01*
X485954Y475673D01*
X485902Y475629D01*
X485847Y475588D01*
X485789Y475549D01*
X485730Y475514D01*
X485669Y475483D01*
X485606Y475454D01*
X485542Y475430D01*
X485476Y475409D01*
X485409Y475392D01*
X485342Y475378D01*
X485274Y475369D01*
X485205Y475363D01*
X485136Y475361D01*
X483090Y475361D01*
X483090Y480272D01*
X479496Y482727D02*
X479496Y475361D01*
X477450Y475361D01*
X477381Y475363D01*
X477313Y475369D01*
X477244Y475378D01*
X477177Y475392D01*
X477110Y475409D01*
X477044Y475430D01*
X476980Y475454D01*
X476917Y475483D01*
X476856Y475514D01*
X476797Y475549D01*
X476739Y475587D01*
X476684Y475629D01*
X476632Y475673D01*
X476582Y475721D01*
X476534Y475771D01*
X476490Y475823D01*
X476448Y475878D01*
X476410Y475936D01*
X476375Y475995D01*
X476344Y476056D01*
X476315Y476119D01*
X476291Y476183D01*
X476270Y476249D01*
X476253Y476316D01*
X476239Y476383D01*
X476230Y476452D01*
X476224Y476520D01*
X476222Y476589D01*
X476222Y479044D01*
X476224Y479113D01*
X476230Y479181D01*
X476239Y479250D01*
X476253Y479317D01*
X476270Y479384D01*
X476291Y479450D01*
X476315Y479514D01*
X476344Y479577D01*
X476375Y479638D01*
X476410Y479697D01*
X476448Y479755D01*
X476490Y479810D01*
X476534Y479862D01*
X476582Y479912D01*
X476632Y479960D01*
X476684Y480004D01*
X476739Y480046D01*
X476797Y480084D01*
X476856Y480119D01*
X476917Y480150D01*
X476980Y480179D01*
X477044Y480203D01*
X477110Y480224D01*
X477177Y480241D01*
X477244Y480255D01*
X477313Y480264D01*
X477381Y480270D01*
X477450Y480272D01*
X479496Y480272D01*
X473471Y475770D02*
X473471Y475361D01*
X473471Y475770D02*
X473062Y475770D01*
X473062Y475361D01*
X473471Y475361D01*
X469034Y475361D02*
X467397Y475361D01*
X469034Y475361D02*
X469103Y475363D01*
X469171Y475369D01*
X469240Y475378D01*
X469307Y475392D01*
X469374Y475409D01*
X469440Y475430D01*
X469504Y475454D01*
X469567Y475483D01*
X469628Y475514D01*
X469687Y475549D01*
X469745Y475587D01*
X469800Y475629D01*
X469852Y475673D01*
X469902Y475721D01*
X469950Y475771D01*
X469994Y475823D01*
X470036Y475878D01*
X470074Y475936D01*
X470109Y475995D01*
X470140Y476056D01*
X470169Y476119D01*
X470193Y476183D01*
X470214Y476249D01*
X470231Y476316D01*
X470245Y476383D01*
X470254Y476452D01*
X470260Y476520D01*
X470262Y476589D01*
X470262Y479044D01*
X470260Y479113D01*
X470254Y479181D01*
X470245Y479250D01*
X470231Y479317D01*
X470214Y479384D01*
X470193Y479450D01*
X470169Y479514D01*
X470140Y479577D01*
X470109Y479638D01*
X470074Y479697D01*
X470036Y479755D01*
X469994Y479810D01*
X469950Y479862D01*
X469902Y479912D01*
X469852Y479960D01*
X469800Y480004D01*
X469745Y480046D01*
X469687Y480084D01*
X469628Y480119D01*
X469567Y480150D01*
X469504Y480179D01*
X469440Y480203D01*
X469374Y480224D01*
X469307Y480241D01*
X469240Y480255D01*
X469171Y480264D01*
X469103Y480270D01*
X469034Y480272D01*
X467397Y480272D01*
X464663Y478635D02*
X464663Y476998D01*
X464663Y478635D02*
X464661Y478714D01*
X464655Y478793D01*
X464646Y478872D01*
X464633Y478950D01*
X464615Y479027D01*
X464595Y479103D01*
X464570Y479178D01*
X464542Y479252D01*
X464511Y479325D01*
X464475Y479396D01*
X464437Y479465D01*
X464395Y479532D01*
X464350Y479597D01*
X464302Y479660D01*
X464251Y479721D01*
X464197Y479778D01*
X464141Y479834D01*
X464082Y479886D01*
X464020Y479936D01*
X463956Y479982D01*
X463890Y480026D01*
X463822Y480066D01*
X463752Y480102D01*
X463680Y480136D01*
X463606Y480166D01*
X463532Y480192D01*
X463456Y480215D01*
X463379Y480233D01*
X463302Y480249D01*
X463223Y480260D01*
X463145Y480268D01*
X463066Y480272D01*
X462986Y480272D01*
X462907Y480268D01*
X462829Y480260D01*
X462750Y480249D01*
X462673Y480233D01*
X462596Y480215D01*
X462520Y480192D01*
X462446Y480166D01*
X462372Y480136D01*
X462300Y480102D01*
X462230Y480066D01*
X462162Y480026D01*
X462096Y479982D01*
X462032Y479936D01*
X461970Y479886D01*
X461911Y479834D01*
X461855Y479778D01*
X461801Y479721D01*
X461750Y479660D01*
X461702Y479597D01*
X461657Y479532D01*
X461615Y479465D01*
X461577Y479396D01*
X461541Y479325D01*
X461510Y479252D01*
X461482Y479178D01*
X461457Y479103D01*
X461437Y479027D01*
X461419Y478950D01*
X461406Y478872D01*
X461397Y478793D01*
X461391Y478714D01*
X461389Y478635D01*
X461389Y476998D01*
X461391Y476919D01*
X461397Y476840D01*
X461406Y476761D01*
X461419Y476683D01*
X461437Y476606D01*
X461457Y476530D01*
X461482Y476455D01*
X461510Y476381D01*
X461541Y476308D01*
X461577Y476237D01*
X461615Y476168D01*
X461657Y476101D01*
X461702Y476036D01*
X461750Y475973D01*
X461801Y475912D01*
X461855Y475855D01*
X461911Y475799D01*
X461970Y475747D01*
X462032Y475697D01*
X462096Y475651D01*
X462162Y475607D01*
X462230Y475567D01*
X462300Y475531D01*
X462372Y475497D01*
X462446Y475467D01*
X462520Y475441D01*
X462596Y475418D01*
X462673Y475400D01*
X462750Y475384D01*
X462829Y475373D01*
X462907Y475365D01*
X462986Y475361D01*
X463066Y475361D01*
X463145Y475365D01*
X463223Y475373D01*
X463302Y475384D01*
X463379Y475400D01*
X463456Y475418D01*
X463532Y475441D01*
X463606Y475467D01*
X463680Y475497D01*
X463752Y475531D01*
X463822Y475567D01*
X463890Y475607D01*
X463956Y475651D01*
X464020Y475697D01*
X464082Y475747D01*
X464141Y475799D01*
X464197Y475855D01*
X464251Y475912D01*
X464302Y475973D01*
X464350Y476036D01*
X464395Y476101D01*
X464437Y476168D01*
X464475Y476237D01*
X464511Y476308D01*
X464542Y476381D01*
X464570Y476455D01*
X464595Y476530D01*
X464615Y476606D01*
X464633Y476683D01*
X464646Y476761D01*
X464655Y476840D01*
X464661Y476919D01*
X464663Y476998D01*
X457922Y475361D02*
X457922Y480272D01*
X454239Y480272D01*
X454170Y480270D01*
X454102Y480264D01*
X454033Y480255D01*
X453966Y480241D01*
X453899Y480224D01*
X453833Y480203D01*
X453769Y480179D01*
X453706Y480150D01*
X453645Y480119D01*
X453586Y480084D01*
X453528Y480046D01*
X453473Y480004D01*
X453421Y479960D01*
X453371Y479912D01*
X453323Y479862D01*
X453279Y479810D01*
X453238Y479755D01*
X453199Y479697D01*
X453164Y479638D01*
X453133Y479577D01*
X453104Y479514D01*
X453080Y479450D01*
X453059Y479384D01*
X453042Y479317D01*
X453028Y479250D01*
X453019Y479182D01*
X453013Y479113D01*
X453011Y479044D01*
X453011Y475361D01*
X455467Y475361D02*
X455467Y480272D01*
X449788Y474543D02*
X446515Y483545D01*
X442455Y475361D02*
X440819Y475361D01*
X442455Y475361D02*
X442524Y475363D01*
X442592Y475369D01*
X442661Y475378D01*
X442728Y475392D01*
X442795Y475409D01*
X442861Y475430D01*
X442925Y475454D01*
X442988Y475483D01*
X443049Y475514D01*
X443108Y475549D01*
X443166Y475587D01*
X443221Y475629D01*
X443273Y475673D01*
X443323Y475721D01*
X443371Y475771D01*
X443415Y475823D01*
X443457Y475878D01*
X443495Y475936D01*
X443530Y475995D01*
X443561Y476056D01*
X443590Y476119D01*
X443614Y476183D01*
X443635Y476249D01*
X443652Y476316D01*
X443666Y476383D01*
X443675Y476452D01*
X443681Y476520D01*
X443683Y476589D01*
X443683Y479044D01*
X443681Y479113D01*
X443675Y479181D01*
X443666Y479250D01*
X443652Y479317D01*
X443635Y479384D01*
X443614Y479450D01*
X443590Y479514D01*
X443561Y479577D01*
X443530Y479638D01*
X443495Y479697D01*
X443457Y479755D01*
X443415Y479810D01*
X443371Y479862D01*
X443323Y479912D01*
X443273Y479960D01*
X443221Y480004D01*
X443166Y480046D01*
X443108Y480084D01*
X443049Y480119D01*
X442988Y480150D01*
X442925Y480179D01*
X442861Y480203D01*
X442795Y480224D01*
X442728Y480241D01*
X442661Y480255D01*
X442592Y480264D01*
X442524Y480270D01*
X442455Y480272D01*
X440819Y480272D01*
X438171Y480272D02*
X436943Y475361D01*
X435716Y478635D01*
X434488Y475361D01*
X433260Y480272D01*
X429095Y475361D02*
X427048Y475361D01*
X429095Y475361D02*
X429164Y475363D01*
X429232Y475369D01*
X429301Y475378D01*
X429368Y475392D01*
X429435Y475409D01*
X429501Y475430D01*
X429565Y475454D01*
X429628Y475483D01*
X429689Y475514D01*
X429748Y475549D01*
X429806Y475587D01*
X429861Y475629D01*
X429913Y475673D01*
X429963Y475721D01*
X430011Y475771D01*
X430055Y475823D01*
X430097Y475878D01*
X430135Y475936D01*
X430170Y475995D01*
X430201Y476056D01*
X430230Y476119D01*
X430254Y476183D01*
X430275Y476249D01*
X430292Y476316D01*
X430306Y476383D01*
X430315Y476452D01*
X430321Y476520D01*
X430323Y476589D01*
X430322Y476589D02*
X430322Y479044D01*
X430323Y479044D02*
X430321Y479113D01*
X430315Y479181D01*
X430306Y479250D01*
X430292Y479317D01*
X430275Y479384D01*
X430254Y479450D01*
X430230Y479514D01*
X430201Y479577D01*
X430170Y479638D01*
X430135Y479697D01*
X430097Y479755D01*
X430055Y479810D01*
X430011Y479862D01*
X429963Y479912D01*
X429913Y479960D01*
X429861Y480004D01*
X429806Y480046D01*
X429748Y480084D01*
X429689Y480119D01*
X429628Y480150D01*
X429565Y480179D01*
X429501Y480203D01*
X429435Y480224D01*
X429368Y480241D01*
X429301Y480255D01*
X429232Y480264D01*
X429164Y480270D01*
X429095Y480272D01*
X427048Y480272D01*
X427048Y474133D01*
X427050Y474064D01*
X427056Y473996D01*
X427065Y473927D01*
X427079Y473860D01*
X427096Y473793D01*
X427117Y473727D01*
X427141Y473663D01*
X427170Y473600D01*
X427201Y473539D01*
X427236Y473480D01*
X427274Y473422D01*
X427316Y473367D01*
X427360Y473315D01*
X427408Y473265D01*
X427458Y473217D01*
X427510Y473173D01*
X427565Y473131D01*
X427623Y473093D01*
X427682Y473058D01*
X427743Y473027D01*
X427806Y472998D01*
X427870Y472974D01*
X427936Y472953D01*
X428003Y472936D01*
X428070Y472922D01*
X428139Y472913D01*
X428207Y472907D01*
X428276Y472905D01*
X428276Y472906D02*
X429913Y472906D01*
X423619Y481090D02*
X421573Y482727D01*
X421573Y475361D01*
X423619Y475361D02*
X419527Y475361D01*
X414667Y478635D02*
X412212Y478635D01*
X414667Y478635D02*
X414745Y478637D01*
X414823Y478642D01*
X414900Y478652D01*
X414977Y478665D01*
X415053Y478681D01*
X415128Y478701D01*
X415202Y478725D01*
X415275Y478752D01*
X415347Y478783D01*
X415417Y478817D01*
X415486Y478854D01*
X415552Y478895D01*
X415617Y478939D01*
X415679Y478985D01*
X415739Y479035D01*
X415797Y479087D01*
X415852Y479142D01*
X415904Y479200D01*
X415954Y479260D01*
X416000Y479322D01*
X416044Y479387D01*
X416085Y479454D01*
X416122Y479522D01*
X416156Y479592D01*
X416187Y479664D01*
X416214Y479737D01*
X416238Y479811D01*
X416258Y479886D01*
X416274Y479962D01*
X416287Y480039D01*
X416297Y480116D01*
X416302Y480194D01*
X416304Y480272D01*
X416304Y480681D01*
X416302Y480770D01*
X416296Y480859D01*
X416286Y480948D01*
X416273Y481036D01*
X416256Y481124D01*
X416234Y481211D01*
X416209Y481296D01*
X416181Y481381D01*
X416148Y481464D01*
X416112Y481546D01*
X416073Y481626D01*
X416030Y481704D01*
X415984Y481780D01*
X415934Y481855D01*
X415881Y481927D01*
X415825Y481996D01*
X415766Y482063D01*
X415705Y482128D01*
X415640Y482189D01*
X415573Y482248D01*
X415504Y482304D01*
X415432Y482357D01*
X415357Y482407D01*
X415281Y482453D01*
X415203Y482496D01*
X415123Y482535D01*
X415041Y482571D01*
X414958Y482604D01*
X414873Y482632D01*
X414788Y482657D01*
X414701Y482679D01*
X414613Y482696D01*
X414525Y482709D01*
X414436Y482719D01*
X414347Y482725D01*
X414258Y482727D01*
X414169Y482725D01*
X414080Y482719D01*
X413991Y482709D01*
X413903Y482696D01*
X413815Y482679D01*
X413728Y482657D01*
X413643Y482632D01*
X413558Y482604D01*
X413475Y482571D01*
X413393Y482535D01*
X413313Y482496D01*
X413235Y482453D01*
X413159Y482407D01*
X413084Y482357D01*
X413012Y482304D01*
X412943Y482248D01*
X412876Y482189D01*
X412811Y482128D01*
X412750Y482063D01*
X412691Y481996D01*
X412635Y481927D01*
X412582Y481855D01*
X412532Y481780D01*
X412486Y481704D01*
X412443Y481626D01*
X412404Y481546D01*
X412368Y481464D01*
X412335Y481381D01*
X412307Y481296D01*
X412282Y481211D01*
X412260Y481124D01*
X412243Y481036D01*
X412230Y480948D01*
X412220Y480859D01*
X412214Y480770D01*
X412212Y480681D01*
X412212Y478635D01*
X412211Y478635D02*
X412213Y478523D01*
X412219Y478412D01*
X412228Y478300D01*
X412241Y478189D01*
X412259Y478079D01*
X412279Y477969D01*
X412304Y477860D01*
X412332Y477752D01*
X412364Y477645D01*
X412400Y477539D01*
X412439Y477434D01*
X412482Y477331D01*
X412528Y477229D01*
X412578Y477129D01*
X412631Y477030D01*
X412688Y476934D01*
X412747Y476839D01*
X412810Y476747D01*
X412876Y476657D01*
X412945Y476569D01*
X413017Y476483D01*
X413092Y476400D01*
X413170Y476320D01*
X413250Y476242D01*
X413333Y476167D01*
X413419Y476095D01*
X413507Y476026D01*
X413597Y475960D01*
X413689Y475897D01*
X413784Y475838D01*
X413880Y475781D01*
X413979Y475728D01*
X414079Y475678D01*
X414181Y475632D01*
X414284Y475589D01*
X414389Y475550D01*
X414495Y475514D01*
X414602Y475482D01*
X414710Y475454D01*
X414819Y475429D01*
X414929Y475409D01*
X415039Y475391D01*
X415150Y475378D01*
X415262Y475369D01*
X415373Y475363D01*
X415485Y475361D01*
X409311Y474543D02*
X406037Y483545D01*
X402877Y482727D02*
X402877Y475361D01*
X402877Y482727D02*
X399603Y482727D01*
X399603Y479453D02*
X402877Y479453D01*
X396631Y480272D02*
X396631Y476589D01*
X396632Y476589D02*
X396630Y476520D01*
X396624Y476452D01*
X396615Y476383D01*
X396601Y476316D01*
X396584Y476249D01*
X396563Y476183D01*
X396539Y476119D01*
X396510Y476056D01*
X396479Y475995D01*
X396444Y475936D01*
X396406Y475878D01*
X396364Y475823D01*
X396320Y475771D01*
X396272Y475721D01*
X396222Y475673D01*
X396170Y475629D01*
X396115Y475588D01*
X396057Y475549D01*
X395998Y475514D01*
X395937Y475483D01*
X395874Y475454D01*
X395810Y475430D01*
X395744Y475409D01*
X395677Y475392D01*
X395610Y475378D01*
X395542Y475369D01*
X395473Y475363D01*
X395404Y475361D01*
X393358Y475361D01*
X393358Y480272D01*
X389804Y480272D02*
X389804Y475361D01*
X389804Y480272D02*
X387758Y480272D01*
X387689Y480270D01*
X387621Y480264D01*
X387552Y480255D01*
X387485Y480241D01*
X387418Y480224D01*
X387352Y480203D01*
X387288Y480179D01*
X387225Y480150D01*
X387164Y480119D01*
X387105Y480084D01*
X387047Y480046D01*
X386992Y480004D01*
X386940Y479960D01*
X386890Y479912D01*
X386842Y479862D01*
X386798Y479810D01*
X386757Y479755D01*
X386718Y479697D01*
X386683Y479638D01*
X386652Y479577D01*
X386623Y479514D01*
X386599Y479450D01*
X386578Y479384D01*
X386561Y479317D01*
X386547Y479250D01*
X386538Y479182D01*
X386532Y479113D01*
X386530Y479044D01*
X386530Y475361D01*
X381983Y475361D02*
X380346Y475361D01*
X381983Y475361D02*
X382052Y475363D01*
X382120Y475369D01*
X382189Y475378D01*
X382256Y475392D01*
X382323Y475409D01*
X382389Y475430D01*
X382453Y475454D01*
X382516Y475483D01*
X382577Y475514D01*
X382636Y475549D01*
X382694Y475587D01*
X382749Y475629D01*
X382801Y475673D01*
X382851Y475721D01*
X382899Y475771D01*
X382943Y475823D01*
X382985Y475878D01*
X383023Y475936D01*
X383058Y475995D01*
X383089Y476056D01*
X383118Y476119D01*
X383142Y476183D01*
X383163Y476249D01*
X383180Y476316D01*
X383194Y476383D01*
X383203Y476452D01*
X383209Y476520D01*
X383211Y476589D01*
X383211Y479044D01*
X383209Y479113D01*
X383203Y479181D01*
X383194Y479250D01*
X383180Y479317D01*
X383163Y479384D01*
X383142Y479450D01*
X383118Y479514D01*
X383089Y479577D01*
X383058Y479638D01*
X383023Y479697D01*
X382985Y479755D01*
X382943Y479810D01*
X382899Y479862D01*
X382851Y479912D01*
X382801Y479960D01*
X382749Y480004D01*
X382694Y480046D01*
X382636Y480084D01*
X382577Y480119D01*
X382516Y480150D01*
X382453Y480179D01*
X382389Y480203D01*
X382323Y480224D01*
X382256Y480241D01*
X382189Y480255D01*
X382120Y480264D01*
X382052Y480270D01*
X381983Y480272D01*
X380346Y480272D01*
X378242Y480272D02*
X375787Y480272D01*
X377424Y482727D02*
X377424Y476589D01*
X377422Y476520D01*
X377416Y476452D01*
X377407Y476383D01*
X377393Y476316D01*
X377376Y476249D01*
X377355Y476183D01*
X377331Y476119D01*
X377302Y476056D01*
X377271Y475995D01*
X377236Y475936D01*
X377198Y475878D01*
X377156Y475823D01*
X377112Y475771D01*
X377064Y475721D01*
X377014Y475673D01*
X376962Y475629D01*
X376907Y475588D01*
X376849Y475549D01*
X376790Y475514D01*
X376729Y475483D01*
X376666Y475454D01*
X376602Y475430D01*
X376536Y475409D01*
X376469Y475392D01*
X376402Y475378D01*
X376334Y475369D01*
X376265Y475363D01*
X376196Y475361D01*
X375787Y475361D01*
X373049Y475361D02*
X373049Y480272D01*
X373254Y482318D02*
X373254Y482727D01*
X372844Y482727D01*
X372844Y482318D01*
X373254Y482318D01*
X370053Y478635D02*
X370053Y476998D01*
X370053Y478635D02*
X370051Y478714D01*
X370045Y478793D01*
X370036Y478872D01*
X370023Y478950D01*
X370005Y479027D01*
X369985Y479103D01*
X369960Y479178D01*
X369932Y479252D01*
X369901Y479325D01*
X369865Y479396D01*
X369827Y479465D01*
X369785Y479532D01*
X369740Y479597D01*
X369692Y479660D01*
X369641Y479721D01*
X369587Y479778D01*
X369531Y479834D01*
X369472Y479886D01*
X369410Y479936D01*
X369346Y479982D01*
X369280Y480026D01*
X369212Y480066D01*
X369142Y480102D01*
X369070Y480136D01*
X368996Y480166D01*
X368922Y480192D01*
X368846Y480215D01*
X368769Y480233D01*
X368692Y480249D01*
X368613Y480260D01*
X368535Y480268D01*
X368456Y480272D01*
X368376Y480272D01*
X368297Y480268D01*
X368219Y480260D01*
X368140Y480249D01*
X368063Y480233D01*
X367986Y480215D01*
X367910Y480192D01*
X367836Y480166D01*
X367762Y480136D01*
X367690Y480102D01*
X367620Y480066D01*
X367552Y480026D01*
X367486Y479982D01*
X367422Y479936D01*
X367360Y479886D01*
X367301Y479834D01*
X367245Y479778D01*
X367191Y479721D01*
X367140Y479660D01*
X367092Y479597D01*
X367047Y479532D01*
X367005Y479465D01*
X366967Y479396D01*
X366931Y479325D01*
X366900Y479252D01*
X366872Y479178D01*
X366847Y479103D01*
X366827Y479027D01*
X366809Y478950D01*
X366796Y478872D01*
X366787Y478793D01*
X366781Y478714D01*
X366779Y478635D01*
X366779Y476998D01*
X366781Y476919D01*
X366787Y476840D01*
X366796Y476761D01*
X366809Y476683D01*
X366827Y476606D01*
X366847Y476530D01*
X366872Y476455D01*
X366900Y476381D01*
X366931Y476308D01*
X366967Y476237D01*
X367005Y476168D01*
X367047Y476101D01*
X367092Y476036D01*
X367140Y475973D01*
X367191Y475912D01*
X367245Y475855D01*
X367301Y475799D01*
X367360Y475747D01*
X367422Y475697D01*
X367486Y475651D01*
X367552Y475607D01*
X367620Y475567D01*
X367690Y475531D01*
X367762Y475497D01*
X367836Y475467D01*
X367910Y475441D01*
X367986Y475418D01*
X368063Y475400D01*
X368140Y475384D01*
X368219Y475373D01*
X368297Y475365D01*
X368376Y475361D01*
X368456Y475361D01*
X368535Y475365D01*
X368613Y475373D01*
X368692Y475384D01*
X368769Y475400D01*
X368846Y475418D01*
X368922Y475441D01*
X368996Y475467D01*
X369070Y475497D01*
X369142Y475531D01*
X369212Y475567D01*
X369280Y475607D01*
X369346Y475651D01*
X369410Y475697D01*
X369472Y475747D01*
X369531Y475799D01*
X369587Y475855D01*
X369641Y475912D01*
X369692Y475973D01*
X369740Y476036D01*
X369785Y476101D01*
X369827Y476168D01*
X369865Y476237D01*
X369901Y476308D01*
X369932Y476381D01*
X369960Y476455D01*
X369985Y476530D01*
X370005Y476606D01*
X370023Y476683D01*
X370036Y476761D01*
X370045Y476840D01*
X370051Y476919D01*
X370053Y476998D01*
X363469Y475361D02*
X363469Y480272D01*
X361423Y480272D01*
X361354Y480270D01*
X361286Y480264D01*
X361217Y480255D01*
X361150Y480241D01*
X361083Y480224D01*
X361017Y480203D01*
X360953Y480179D01*
X360890Y480150D01*
X360829Y480119D01*
X360770Y480084D01*
X360712Y480046D01*
X360657Y480004D01*
X360605Y479960D01*
X360555Y479912D01*
X360507Y479862D01*
X360463Y479810D01*
X360422Y479755D01*
X360383Y479697D01*
X360348Y479638D01*
X360317Y479577D01*
X360288Y479514D01*
X360264Y479450D01*
X360243Y479384D01*
X360226Y479317D01*
X360212Y479250D01*
X360203Y479182D01*
X360197Y479113D01*
X360195Y479044D01*
X360196Y479044D02*
X360196Y475361D01*
X356729Y478226D02*
X351818Y478226D01*
X345408Y479453D02*
X344181Y479453D01*
X344181Y475361D01*
X346636Y475361D01*
X346714Y475363D01*
X346792Y475368D01*
X346869Y475378D01*
X346946Y475391D01*
X347022Y475407D01*
X347097Y475427D01*
X347171Y475451D01*
X347244Y475478D01*
X347316Y475509D01*
X347386Y475543D01*
X347455Y475580D01*
X347521Y475621D01*
X347586Y475665D01*
X347648Y475711D01*
X347708Y475761D01*
X347766Y475813D01*
X347821Y475868D01*
X347873Y475926D01*
X347923Y475986D01*
X347969Y476048D01*
X348013Y476113D01*
X348054Y476180D01*
X348091Y476248D01*
X348125Y476318D01*
X348156Y476390D01*
X348183Y476463D01*
X348207Y476537D01*
X348227Y476612D01*
X348243Y476688D01*
X348256Y476765D01*
X348266Y476842D01*
X348271Y476920D01*
X348273Y476998D01*
X348273Y481090D01*
X348271Y481168D01*
X348266Y481246D01*
X348256Y481323D01*
X348243Y481400D01*
X348227Y481476D01*
X348207Y481551D01*
X348183Y481625D01*
X348156Y481698D01*
X348125Y481770D01*
X348091Y481840D01*
X348054Y481909D01*
X348013Y481975D01*
X347969Y482040D01*
X347923Y482102D01*
X347873Y482162D01*
X347821Y482220D01*
X347766Y482275D01*
X347708Y482327D01*
X347648Y482377D01*
X347586Y482423D01*
X347521Y482467D01*
X347455Y482508D01*
X347386Y482545D01*
X347316Y482579D01*
X347244Y482610D01*
X347171Y482637D01*
X347097Y482661D01*
X347022Y482681D01*
X346946Y482697D01*
X346869Y482710D01*
X346792Y482720D01*
X346714Y482725D01*
X346636Y482727D01*
X344181Y482727D01*
X339565Y475361D02*
X337519Y475361D01*
X339565Y475361D02*
X339634Y475363D01*
X339702Y475369D01*
X339771Y475378D01*
X339838Y475392D01*
X339905Y475409D01*
X339971Y475430D01*
X340035Y475454D01*
X340098Y475483D01*
X340159Y475514D01*
X340218Y475549D01*
X340276Y475587D01*
X340331Y475629D01*
X340383Y475673D01*
X340433Y475721D01*
X340481Y475771D01*
X340525Y475823D01*
X340567Y475878D01*
X340605Y475936D01*
X340640Y475995D01*
X340671Y476056D01*
X340700Y476119D01*
X340724Y476183D01*
X340745Y476249D01*
X340762Y476316D01*
X340776Y476383D01*
X340785Y476452D01*
X340791Y476520D01*
X340793Y476589D01*
X340792Y476589D02*
X340792Y478635D01*
X340790Y478714D01*
X340784Y478793D01*
X340775Y478872D01*
X340762Y478950D01*
X340744Y479027D01*
X340724Y479103D01*
X340699Y479178D01*
X340671Y479252D01*
X340640Y479325D01*
X340604Y479396D01*
X340566Y479465D01*
X340524Y479532D01*
X340479Y479597D01*
X340431Y479660D01*
X340380Y479721D01*
X340326Y479778D01*
X340270Y479834D01*
X340211Y479886D01*
X340149Y479936D01*
X340085Y479982D01*
X340019Y480026D01*
X339951Y480066D01*
X339881Y480102D01*
X339809Y480136D01*
X339735Y480166D01*
X339661Y480192D01*
X339585Y480215D01*
X339508Y480233D01*
X339431Y480249D01*
X339352Y480260D01*
X339274Y480268D01*
X339195Y480272D01*
X339115Y480272D01*
X339036Y480268D01*
X338958Y480260D01*
X338879Y480249D01*
X338802Y480233D01*
X338725Y480215D01*
X338649Y480192D01*
X338575Y480166D01*
X338501Y480136D01*
X338429Y480102D01*
X338359Y480066D01*
X338291Y480026D01*
X338225Y479982D01*
X338161Y479936D01*
X338099Y479886D01*
X338040Y479834D01*
X337984Y479778D01*
X337930Y479721D01*
X337879Y479660D01*
X337831Y479597D01*
X337786Y479532D01*
X337744Y479465D01*
X337706Y479396D01*
X337670Y479325D01*
X337639Y479252D01*
X337611Y479178D01*
X337586Y479103D01*
X337566Y479027D01*
X337548Y478950D01*
X337535Y478872D01*
X337526Y478793D01*
X337520Y478714D01*
X337518Y478635D01*
X337519Y478635D02*
X337519Y477816D01*
X340792Y477816D01*
X334209Y475361D02*
X334209Y480272D01*
X332163Y480272D01*
X332094Y480270D01*
X332026Y480264D01*
X331957Y480255D01*
X331890Y480241D01*
X331823Y480224D01*
X331757Y480203D01*
X331693Y480179D01*
X331630Y480150D01*
X331569Y480119D01*
X331510Y480084D01*
X331452Y480046D01*
X331397Y480004D01*
X331345Y479960D01*
X331295Y479912D01*
X331247Y479862D01*
X331203Y479810D01*
X331162Y479755D01*
X331123Y479697D01*
X331088Y479638D01*
X331057Y479577D01*
X331028Y479514D01*
X331004Y479450D01*
X330983Y479384D01*
X330966Y479317D01*
X330952Y479250D01*
X330943Y479182D01*
X330937Y479113D01*
X330935Y479044D01*
X330935Y475361D01*
X326397Y475361D02*
X324351Y475361D01*
X326397Y475361D02*
X326466Y475363D01*
X326534Y475369D01*
X326603Y475378D01*
X326670Y475392D01*
X326737Y475409D01*
X326803Y475430D01*
X326867Y475454D01*
X326930Y475483D01*
X326991Y475514D01*
X327050Y475549D01*
X327108Y475587D01*
X327163Y475629D01*
X327215Y475673D01*
X327265Y475721D01*
X327313Y475771D01*
X327357Y475823D01*
X327399Y475878D01*
X327437Y475936D01*
X327472Y475995D01*
X327503Y476056D01*
X327532Y476119D01*
X327556Y476183D01*
X327577Y476249D01*
X327594Y476316D01*
X327608Y476383D01*
X327617Y476452D01*
X327623Y476520D01*
X327625Y476589D01*
X327625Y478635D01*
X327623Y478714D01*
X327617Y478793D01*
X327608Y478872D01*
X327595Y478950D01*
X327577Y479027D01*
X327557Y479103D01*
X327532Y479178D01*
X327504Y479252D01*
X327473Y479325D01*
X327437Y479396D01*
X327399Y479465D01*
X327357Y479532D01*
X327312Y479597D01*
X327264Y479660D01*
X327213Y479721D01*
X327159Y479778D01*
X327103Y479834D01*
X327044Y479886D01*
X326982Y479936D01*
X326918Y479982D01*
X326852Y480026D01*
X326784Y480066D01*
X326714Y480102D01*
X326642Y480136D01*
X326568Y480166D01*
X326494Y480192D01*
X326418Y480215D01*
X326341Y480233D01*
X326264Y480249D01*
X326185Y480260D01*
X326107Y480268D01*
X326028Y480272D01*
X325948Y480272D01*
X325869Y480268D01*
X325791Y480260D01*
X325712Y480249D01*
X325635Y480233D01*
X325558Y480215D01*
X325482Y480192D01*
X325408Y480166D01*
X325334Y480136D01*
X325262Y480102D01*
X325192Y480066D01*
X325124Y480026D01*
X325058Y479982D01*
X324994Y479936D01*
X324932Y479886D01*
X324873Y479834D01*
X324817Y479778D01*
X324763Y479721D01*
X324712Y479660D01*
X324664Y479597D01*
X324619Y479532D01*
X324577Y479465D01*
X324539Y479396D01*
X324503Y479325D01*
X324472Y479252D01*
X324444Y479178D01*
X324419Y479103D01*
X324399Y479027D01*
X324381Y478950D01*
X324368Y478872D01*
X324359Y478793D01*
X324353Y478714D01*
X324351Y478635D01*
X324351Y477816D01*
X327625Y477816D01*
X320995Y475361D02*
X320995Y480272D01*
X318540Y480272D01*
X318540Y479453D01*
X314773Y478226D02*
X312932Y478226D01*
X314773Y478225D02*
X314848Y478223D01*
X314923Y478217D01*
X314997Y478207D01*
X315071Y478194D01*
X315144Y478176D01*
X315216Y478155D01*
X315286Y478130D01*
X315355Y478101D01*
X315423Y478069D01*
X315489Y478033D01*
X315553Y477994D01*
X315615Y477952D01*
X315674Y477906D01*
X315731Y477857D01*
X315786Y477806D01*
X315837Y477751D01*
X315886Y477694D01*
X315932Y477635D01*
X315974Y477573D01*
X316013Y477509D01*
X316049Y477443D01*
X316081Y477375D01*
X316110Y477306D01*
X316135Y477236D01*
X316156Y477164D01*
X316174Y477091D01*
X316187Y477017D01*
X316197Y476943D01*
X316203Y476868D01*
X316205Y476793D01*
X316203Y476718D01*
X316197Y476643D01*
X316187Y476569D01*
X316174Y476495D01*
X316156Y476422D01*
X316135Y476350D01*
X316110Y476280D01*
X316081Y476211D01*
X316049Y476143D01*
X316013Y476077D01*
X315974Y476013D01*
X315932Y475951D01*
X315886Y475892D01*
X315837Y475835D01*
X315786Y475780D01*
X315731Y475729D01*
X315674Y475680D01*
X315615Y475634D01*
X315553Y475592D01*
X315489Y475553D01*
X315423Y475517D01*
X315355Y475485D01*
X315286Y475456D01*
X315216Y475431D01*
X315144Y475410D01*
X315071Y475392D01*
X314997Y475379D01*
X314923Y475369D01*
X314848Y475363D01*
X314773Y475361D01*
X312932Y475361D01*
X312932Y479044D01*
X312931Y479044D02*
X312933Y479113D01*
X312939Y479181D01*
X312948Y479250D01*
X312962Y479317D01*
X312979Y479384D01*
X313000Y479450D01*
X313024Y479514D01*
X313053Y479577D01*
X313084Y479638D01*
X313119Y479697D01*
X313157Y479755D01*
X313199Y479810D01*
X313243Y479862D01*
X313291Y479912D01*
X313341Y479960D01*
X313393Y480004D01*
X313448Y480046D01*
X313506Y480084D01*
X313565Y480119D01*
X313626Y480150D01*
X313689Y480179D01*
X313753Y480203D01*
X313819Y480224D01*
X313886Y480241D01*
X313953Y480255D01*
X314022Y480264D01*
X314090Y480270D01*
X314159Y480272D01*
X315796Y480272D01*
X310211Y480272D02*
X307756Y480272D01*
X309393Y482727D02*
X309393Y476589D01*
X309391Y476520D01*
X309385Y476452D01*
X309376Y476383D01*
X309362Y476316D01*
X309345Y476249D01*
X309324Y476183D01*
X309300Y476119D01*
X309271Y476056D01*
X309240Y475995D01*
X309205Y475936D01*
X309167Y475878D01*
X309125Y475823D01*
X309081Y475771D01*
X309033Y475721D01*
X308983Y475673D01*
X308931Y475629D01*
X308876Y475588D01*
X308818Y475549D01*
X308759Y475514D01*
X308698Y475483D01*
X308635Y475454D01*
X308571Y475430D01*
X308505Y475409D01*
X308438Y475392D01*
X308371Y475378D01*
X308303Y475369D01*
X308234Y475363D01*
X308165Y475361D01*
X307756Y475361D01*
X304948Y476998D02*
X304948Y478635D01*
X304946Y478714D01*
X304940Y478793D01*
X304931Y478872D01*
X304918Y478950D01*
X304900Y479027D01*
X304880Y479103D01*
X304855Y479178D01*
X304827Y479252D01*
X304796Y479325D01*
X304760Y479396D01*
X304722Y479465D01*
X304680Y479532D01*
X304635Y479597D01*
X304587Y479660D01*
X304536Y479721D01*
X304482Y479778D01*
X304426Y479834D01*
X304367Y479886D01*
X304305Y479936D01*
X304241Y479982D01*
X304175Y480026D01*
X304107Y480066D01*
X304037Y480102D01*
X303965Y480136D01*
X303891Y480166D01*
X303817Y480192D01*
X303741Y480215D01*
X303664Y480233D01*
X303587Y480249D01*
X303508Y480260D01*
X303430Y480268D01*
X303351Y480272D01*
X303271Y480272D01*
X303192Y480268D01*
X303114Y480260D01*
X303035Y480249D01*
X302958Y480233D01*
X302881Y480215D01*
X302805Y480192D01*
X302731Y480166D01*
X302657Y480136D01*
X302585Y480102D01*
X302515Y480066D01*
X302447Y480026D01*
X302381Y479982D01*
X302317Y479936D01*
X302255Y479886D01*
X302196Y479834D01*
X302140Y479778D01*
X302086Y479721D01*
X302035Y479660D01*
X301987Y479597D01*
X301942Y479532D01*
X301900Y479465D01*
X301862Y479396D01*
X301826Y479325D01*
X301795Y479252D01*
X301767Y479178D01*
X301742Y479103D01*
X301722Y479027D01*
X301704Y478950D01*
X301691Y478872D01*
X301682Y478793D01*
X301676Y478714D01*
X301674Y478635D01*
X301674Y476998D01*
X301676Y476919D01*
X301682Y476840D01*
X301691Y476761D01*
X301704Y476683D01*
X301722Y476606D01*
X301742Y476530D01*
X301767Y476455D01*
X301795Y476381D01*
X301826Y476308D01*
X301862Y476237D01*
X301900Y476168D01*
X301942Y476101D01*
X301987Y476036D01*
X302035Y475973D01*
X302086Y475912D01*
X302140Y475855D01*
X302196Y475799D01*
X302255Y475747D01*
X302317Y475697D01*
X302381Y475651D01*
X302447Y475607D01*
X302515Y475567D01*
X302585Y475531D01*
X302657Y475497D01*
X302731Y475467D01*
X302805Y475441D01*
X302881Y475418D01*
X302958Y475400D01*
X303035Y475384D01*
X303114Y475373D01*
X303192Y475365D01*
X303271Y475361D01*
X303351Y475361D01*
X303430Y475365D01*
X303508Y475373D01*
X303587Y475384D01*
X303664Y475400D01*
X303741Y475418D01*
X303817Y475441D01*
X303891Y475467D01*
X303965Y475497D01*
X304037Y475531D01*
X304107Y475567D01*
X304175Y475607D01*
X304241Y475651D01*
X304305Y475697D01*
X304367Y475747D01*
X304426Y475799D01*
X304482Y475855D01*
X304536Y475912D01*
X304587Y475973D01*
X304635Y476036D01*
X304680Y476101D01*
X304722Y476168D01*
X304760Y476237D01*
X304796Y476308D01*
X304827Y476381D01*
X304855Y476455D01*
X304880Y476530D01*
X304900Y476606D01*
X304918Y476683D01*
X304931Y476761D01*
X304940Y476840D01*
X304946Y476919D01*
X304948Y476998D01*
X298318Y475361D02*
X298318Y480272D01*
X295863Y480272D01*
X295863Y479453D01*
X451005Y462661D02*
X454279Y462661D01*
X454279Y470027D01*
X451005Y470027D01*
X451824Y466753D02*
X454279Y466753D01*
X446585Y462661D02*
X444948Y462661D01*
X446585Y462661D02*
X446663Y462663D01*
X446741Y462668D01*
X446818Y462678D01*
X446895Y462691D01*
X446971Y462707D01*
X447046Y462727D01*
X447120Y462751D01*
X447193Y462778D01*
X447265Y462809D01*
X447335Y462843D01*
X447404Y462880D01*
X447470Y462921D01*
X447535Y462965D01*
X447597Y463011D01*
X447657Y463061D01*
X447715Y463113D01*
X447770Y463168D01*
X447822Y463226D01*
X447872Y463286D01*
X447918Y463348D01*
X447962Y463413D01*
X448003Y463480D01*
X448040Y463548D01*
X448074Y463618D01*
X448105Y463690D01*
X448132Y463763D01*
X448156Y463837D01*
X448176Y463912D01*
X448192Y463988D01*
X448205Y464065D01*
X448215Y464142D01*
X448220Y464220D01*
X448222Y464298D01*
X448222Y468390D01*
X448220Y468468D01*
X448215Y468546D01*
X448205Y468623D01*
X448192Y468700D01*
X448176Y468776D01*
X448156Y468851D01*
X448132Y468925D01*
X448105Y468998D01*
X448074Y469070D01*
X448040Y469140D01*
X448003Y469209D01*
X447962Y469275D01*
X447918Y469340D01*
X447872Y469402D01*
X447822Y469462D01*
X447770Y469520D01*
X447715Y469575D01*
X447657Y469627D01*
X447597Y469677D01*
X447535Y469723D01*
X447470Y469767D01*
X447404Y469808D01*
X447335Y469845D01*
X447265Y469879D01*
X447193Y469910D01*
X447120Y469937D01*
X447046Y469961D01*
X446971Y469981D01*
X446895Y469997D01*
X446818Y470010D01*
X446741Y470020D01*
X446663Y470025D01*
X446585Y470027D01*
X444948Y470027D01*
X441843Y462661D02*
X438569Y462661D01*
X441843Y462661D02*
X441843Y470027D01*
X438569Y470027D01*
X439388Y466753D02*
X441843Y466753D01*
X431862Y462661D02*
X429815Y462661D01*
X429726Y462663D01*
X429637Y462669D01*
X429548Y462679D01*
X429460Y462692D01*
X429372Y462709D01*
X429285Y462731D01*
X429200Y462756D01*
X429115Y462784D01*
X429032Y462817D01*
X428950Y462853D01*
X428870Y462892D01*
X428792Y462935D01*
X428716Y462981D01*
X428641Y463031D01*
X428569Y463084D01*
X428500Y463140D01*
X428433Y463199D01*
X428368Y463260D01*
X428307Y463325D01*
X428248Y463392D01*
X428192Y463461D01*
X428139Y463533D01*
X428089Y463608D01*
X428043Y463684D01*
X428000Y463762D01*
X427961Y463842D01*
X427925Y463924D01*
X427892Y464007D01*
X427864Y464092D01*
X427839Y464177D01*
X427817Y464264D01*
X427800Y464352D01*
X427787Y464440D01*
X427777Y464529D01*
X427771Y464618D01*
X427769Y464707D01*
X427771Y464796D01*
X427777Y464885D01*
X427787Y464974D01*
X427800Y465062D01*
X427817Y465150D01*
X427839Y465237D01*
X427864Y465322D01*
X427892Y465407D01*
X427925Y465490D01*
X427961Y465572D01*
X428000Y465652D01*
X428043Y465730D01*
X428089Y465806D01*
X428139Y465881D01*
X428192Y465953D01*
X428248Y466022D01*
X428307Y466089D01*
X428368Y466154D01*
X428433Y466215D01*
X428500Y466274D01*
X428569Y466330D01*
X428641Y466383D01*
X428716Y466433D01*
X428792Y466479D01*
X428870Y466522D01*
X428950Y466561D01*
X429032Y466597D01*
X429115Y466630D01*
X429200Y466658D01*
X429285Y466683D01*
X429372Y466705D01*
X429460Y466722D01*
X429548Y466735D01*
X429637Y466745D01*
X429726Y466751D01*
X429815Y466753D01*
X429406Y470027D02*
X431862Y470027D01*
X429406Y470027D02*
X429327Y470025D01*
X429248Y470019D01*
X429169Y470010D01*
X429091Y469997D01*
X429014Y469979D01*
X428938Y469959D01*
X428863Y469934D01*
X428789Y469906D01*
X428716Y469875D01*
X428645Y469839D01*
X428576Y469801D01*
X428509Y469759D01*
X428444Y469714D01*
X428381Y469666D01*
X428320Y469615D01*
X428263Y469561D01*
X428207Y469505D01*
X428155Y469446D01*
X428105Y469384D01*
X428059Y469320D01*
X428015Y469254D01*
X427975Y469186D01*
X427939Y469116D01*
X427905Y469044D01*
X427875Y468970D01*
X427849Y468896D01*
X427826Y468820D01*
X427808Y468743D01*
X427792Y468666D01*
X427781Y468587D01*
X427773Y468509D01*
X427769Y468430D01*
X427769Y468350D01*
X427773Y468271D01*
X427781Y468193D01*
X427792Y468114D01*
X427808Y468037D01*
X427826Y467960D01*
X427849Y467884D01*
X427875Y467810D01*
X427905Y467736D01*
X427939Y467664D01*
X427975Y467594D01*
X428015Y467526D01*
X428059Y467460D01*
X428105Y467396D01*
X428155Y467334D01*
X428207Y467275D01*
X428263Y467219D01*
X428320Y467165D01*
X428381Y467114D01*
X428444Y467066D01*
X428509Y467021D01*
X428576Y466979D01*
X428645Y466941D01*
X428716Y466905D01*
X428789Y466874D01*
X428863Y466846D01*
X428938Y466821D01*
X429014Y466801D01*
X429091Y466783D01*
X429169Y466770D01*
X429248Y466761D01*
X429327Y466755D01*
X429406Y466753D01*
X431043Y466753D01*
X424546Y464707D02*
X424544Y464796D01*
X424538Y464885D01*
X424528Y464974D01*
X424515Y465062D01*
X424498Y465150D01*
X424476Y465237D01*
X424451Y465322D01*
X424423Y465407D01*
X424390Y465490D01*
X424354Y465572D01*
X424315Y465652D01*
X424272Y465730D01*
X424226Y465806D01*
X424176Y465881D01*
X424123Y465953D01*
X424067Y466022D01*
X424008Y466089D01*
X423947Y466154D01*
X423882Y466215D01*
X423815Y466274D01*
X423746Y466330D01*
X423674Y466383D01*
X423599Y466433D01*
X423523Y466479D01*
X423445Y466522D01*
X423365Y466561D01*
X423283Y466597D01*
X423200Y466630D01*
X423115Y466658D01*
X423030Y466683D01*
X422943Y466705D01*
X422855Y466722D01*
X422767Y466735D01*
X422678Y466745D01*
X422589Y466751D01*
X422500Y466753D01*
X422411Y466751D01*
X422322Y466745D01*
X422233Y466735D01*
X422145Y466722D01*
X422057Y466705D01*
X421970Y466683D01*
X421885Y466658D01*
X421800Y466630D01*
X421717Y466597D01*
X421635Y466561D01*
X421555Y466522D01*
X421477Y466479D01*
X421401Y466433D01*
X421326Y466383D01*
X421254Y466330D01*
X421185Y466274D01*
X421118Y466215D01*
X421053Y466154D01*
X420992Y466089D01*
X420933Y466022D01*
X420877Y465953D01*
X420824Y465881D01*
X420774Y465806D01*
X420728Y465730D01*
X420685Y465652D01*
X420646Y465572D01*
X420610Y465490D01*
X420577Y465407D01*
X420549Y465322D01*
X420524Y465237D01*
X420502Y465150D01*
X420485Y465062D01*
X420472Y464974D01*
X420462Y464885D01*
X420456Y464796D01*
X420454Y464707D01*
X420456Y464618D01*
X420462Y464529D01*
X420472Y464440D01*
X420485Y464352D01*
X420502Y464264D01*
X420524Y464177D01*
X420549Y464092D01*
X420577Y464007D01*
X420610Y463924D01*
X420646Y463842D01*
X420685Y463762D01*
X420728Y463684D01*
X420774Y463608D01*
X420824Y463533D01*
X420877Y463461D01*
X420933Y463392D01*
X420992Y463325D01*
X421053Y463260D01*
X421118Y463199D01*
X421185Y463140D01*
X421254Y463084D01*
X421326Y463031D01*
X421401Y462981D01*
X421477Y462935D01*
X421555Y462892D01*
X421635Y462853D01*
X421717Y462817D01*
X421800Y462784D01*
X421885Y462756D01*
X421970Y462731D01*
X422057Y462709D01*
X422145Y462692D01*
X422233Y462679D01*
X422322Y462669D01*
X422411Y462663D01*
X422500Y462661D01*
X422589Y462663D01*
X422678Y462669D01*
X422767Y462679D01*
X422855Y462692D01*
X422943Y462709D01*
X423030Y462731D01*
X423115Y462756D01*
X423200Y462784D01*
X423283Y462817D01*
X423365Y462853D01*
X423445Y462892D01*
X423523Y462935D01*
X423599Y462981D01*
X423674Y463031D01*
X423746Y463084D01*
X423815Y463140D01*
X423882Y463199D01*
X423947Y463260D01*
X424008Y463325D01*
X424067Y463392D01*
X424123Y463461D01*
X424176Y463533D01*
X424226Y463608D01*
X424272Y463684D01*
X424315Y463762D01*
X424354Y463842D01*
X424390Y463924D01*
X424423Y464007D01*
X424451Y464092D01*
X424476Y464177D01*
X424498Y464264D01*
X424515Y464352D01*
X424528Y464440D01*
X424538Y464529D01*
X424544Y464618D01*
X424546Y464707D01*
X424137Y468390D02*
X424135Y468469D01*
X424129Y468548D01*
X424120Y468627D01*
X424107Y468705D01*
X424089Y468782D01*
X424069Y468858D01*
X424044Y468933D01*
X424016Y469007D01*
X423985Y469080D01*
X423949Y469151D01*
X423911Y469220D01*
X423869Y469287D01*
X423824Y469352D01*
X423776Y469415D01*
X423725Y469476D01*
X423671Y469533D01*
X423615Y469589D01*
X423556Y469641D01*
X423494Y469691D01*
X423430Y469737D01*
X423364Y469781D01*
X423296Y469821D01*
X423226Y469857D01*
X423154Y469891D01*
X423080Y469921D01*
X423006Y469947D01*
X422930Y469970D01*
X422853Y469988D01*
X422776Y470004D01*
X422697Y470015D01*
X422619Y470023D01*
X422540Y470027D01*
X422460Y470027D01*
X422381Y470023D01*
X422303Y470015D01*
X422224Y470004D01*
X422147Y469988D01*
X422070Y469970D01*
X421994Y469947D01*
X421920Y469921D01*
X421846Y469891D01*
X421774Y469857D01*
X421704Y469821D01*
X421636Y469781D01*
X421570Y469737D01*
X421506Y469691D01*
X421444Y469641D01*
X421385Y469589D01*
X421329Y469533D01*
X421275Y469476D01*
X421224Y469415D01*
X421176Y469352D01*
X421131Y469287D01*
X421089Y469220D01*
X421051Y469151D01*
X421015Y469080D01*
X420984Y469007D01*
X420956Y468933D01*
X420931Y468858D01*
X420911Y468782D01*
X420893Y468705D01*
X420880Y468627D01*
X420871Y468548D01*
X420865Y468469D01*
X420863Y468390D01*
X420865Y468311D01*
X420871Y468232D01*
X420880Y468153D01*
X420893Y468075D01*
X420911Y467998D01*
X420931Y467922D01*
X420956Y467847D01*
X420984Y467773D01*
X421015Y467700D01*
X421051Y467629D01*
X421089Y467560D01*
X421131Y467493D01*
X421176Y467428D01*
X421224Y467365D01*
X421275Y467304D01*
X421329Y467247D01*
X421385Y467191D01*
X421444Y467139D01*
X421506Y467089D01*
X421570Y467043D01*
X421636Y466999D01*
X421704Y466959D01*
X421774Y466923D01*
X421846Y466889D01*
X421920Y466859D01*
X421994Y466833D01*
X422070Y466810D01*
X422147Y466792D01*
X422224Y466776D01*
X422303Y466765D01*
X422381Y466757D01*
X422460Y466753D01*
X422540Y466753D01*
X422619Y466757D01*
X422697Y466765D01*
X422776Y466776D01*
X422853Y466792D01*
X422930Y466810D01*
X423006Y466833D01*
X423080Y466859D01*
X423154Y466889D01*
X423226Y466923D01*
X423296Y466959D01*
X423364Y466999D01*
X423430Y467043D01*
X423494Y467089D01*
X423556Y467139D01*
X423615Y467191D01*
X423671Y467247D01*
X423725Y467304D01*
X423776Y467365D01*
X423824Y467428D01*
X423869Y467493D01*
X423911Y467560D01*
X423949Y467629D01*
X423985Y467700D01*
X424016Y467773D01*
X424044Y467847D01*
X424069Y467922D01*
X424089Y467998D01*
X424107Y468075D01*
X424120Y468153D01*
X424129Y468232D01*
X424135Y468311D01*
X424137Y468390D01*
X417231Y464707D02*
X417229Y464796D01*
X417223Y464885D01*
X417213Y464974D01*
X417200Y465062D01*
X417183Y465150D01*
X417161Y465237D01*
X417136Y465322D01*
X417108Y465407D01*
X417075Y465490D01*
X417039Y465572D01*
X417000Y465652D01*
X416957Y465730D01*
X416911Y465806D01*
X416861Y465881D01*
X416808Y465953D01*
X416752Y466022D01*
X416693Y466089D01*
X416632Y466154D01*
X416567Y466215D01*
X416500Y466274D01*
X416431Y466330D01*
X416359Y466383D01*
X416284Y466433D01*
X416208Y466479D01*
X416130Y466522D01*
X416050Y466561D01*
X415968Y466597D01*
X415885Y466630D01*
X415800Y466658D01*
X415715Y466683D01*
X415628Y466705D01*
X415540Y466722D01*
X415452Y466735D01*
X415363Y466745D01*
X415274Y466751D01*
X415185Y466753D01*
X415096Y466751D01*
X415007Y466745D01*
X414918Y466735D01*
X414830Y466722D01*
X414742Y466705D01*
X414655Y466683D01*
X414570Y466658D01*
X414485Y466630D01*
X414402Y466597D01*
X414320Y466561D01*
X414240Y466522D01*
X414162Y466479D01*
X414086Y466433D01*
X414011Y466383D01*
X413939Y466330D01*
X413870Y466274D01*
X413803Y466215D01*
X413738Y466154D01*
X413677Y466089D01*
X413618Y466022D01*
X413562Y465953D01*
X413509Y465881D01*
X413459Y465806D01*
X413413Y465730D01*
X413370Y465652D01*
X413331Y465572D01*
X413295Y465490D01*
X413262Y465407D01*
X413234Y465322D01*
X413209Y465237D01*
X413187Y465150D01*
X413170Y465062D01*
X413157Y464974D01*
X413147Y464885D01*
X413141Y464796D01*
X413139Y464707D01*
X413141Y464618D01*
X413147Y464529D01*
X413157Y464440D01*
X413170Y464352D01*
X413187Y464264D01*
X413209Y464177D01*
X413234Y464092D01*
X413262Y464007D01*
X413295Y463924D01*
X413331Y463842D01*
X413370Y463762D01*
X413413Y463684D01*
X413459Y463608D01*
X413509Y463533D01*
X413562Y463461D01*
X413618Y463392D01*
X413677Y463325D01*
X413738Y463260D01*
X413803Y463199D01*
X413870Y463140D01*
X413939Y463084D01*
X414011Y463031D01*
X414086Y462981D01*
X414162Y462935D01*
X414240Y462892D01*
X414320Y462853D01*
X414402Y462817D01*
X414485Y462784D01*
X414570Y462756D01*
X414655Y462731D01*
X414742Y462709D01*
X414830Y462692D01*
X414918Y462679D01*
X415007Y462669D01*
X415096Y462663D01*
X415185Y462661D01*
X415274Y462663D01*
X415363Y462669D01*
X415452Y462679D01*
X415540Y462692D01*
X415628Y462709D01*
X415715Y462731D01*
X415800Y462756D01*
X415885Y462784D01*
X415968Y462817D01*
X416050Y462853D01*
X416130Y462892D01*
X416208Y462935D01*
X416284Y462981D01*
X416359Y463031D01*
X416431Y463084D01*
X416500Y463140D01*
X416567Y463199D01*
X416632Y463260D01*
X416693Y463325D01*
X416752Y463392D01*
X416808Y463461D01*
X416861Y463533D01*
X416911Y463608D01*
X416957Y463684D01*
X417000Y463762D01*
X417039Y463842D01*
X417075Y463924D01*
X417108Y464007D01*
X417136Y464092D01*
X417161Y464177D01*
X417183Y464264D01*
X417200Y464352D01*
X417213Y464440D01*
X417223Y464529D01*
X417229Y464618D01*
X417231Y464707D01*
X416822Y468390D02*
X416820Y468469D01*
X416814Y468548D01*
X416805Y468627D01*
X416792Y468705D01*
X416774Y468782D01*
X416754Y468858D01*
X416729Y468933D01*
X416701Y469007D01*
X416670Y469080D01*
X416634Y469151D01*
X416596Y469220D01*
X416554Y469287D01*
X416509Y469352D01*
X416461Y469415D01*
X416410Y469476D01*
X416356Y469533D01*
X416300Y469589D01*
X416241Y469641D01*
X416179Y469691D01*
X416115Y469737D01*
X416049Y469781D01*
X415981Y469821D01*
X415911Y469857D01*
X415839Y469891D01*
X415765Y469921D01*
X415691Y469947D01*
X415615Y469970D01*
X415538Y469988D01*
X415461Y470004D01*
X415382Y470015D01*
X415304Y470023D01*
X415225Y470027D01*
X415145Y470027D01*
X415066Y470023D01*
X414988Y470015D01*
X414909Y470004D01*
X414832Y469988D01*
X414755Y469970D01*
X414679Y469947D01*
X414605Y469921D01*
X414531Y469891D01*
X414459Y469857D01*
X414389Y469821D01*
X414321Y469781D01*
X414255Y469737D01*
X414191Y469691D01*
X414129Y469641D01*
X414070Y469589D01*
X414014Y469533D01*
X413960Y469476D01*
X413909Y469415D01*
X413861Y469352D01*
X413816Y469287D01*
X413774Y469220D01*
X413736Y469151D01*
X413700Y469080D01*
X413669Y469007D01*
X413641Y468933D01*
X413616Y468858D01*
X413596Y468782D01*
X413578Y468705D01*
X413565Y468627D01*
X413556Y468548D01*
X413550Y468469D01*
X413548Y468390D01*
X413550Y468311D01*
X413556Y468232D01*
X413565Y468153D01*
X413578Y468075D01*
X413596Y467998D01*
X413616Y467922D01*
X413641Y467847D01*
X413669Y467773D01*
X413700Y467700D01*
X413736Y467629D01*
X413774Y467560D01*
X413816Y467493D01*
X413861Y467428D01*
X413909Y467365D01*
X413960Y467304D01*
X414014Y467247D01*
X414070Y467191D01*
X414129Y467139D01*
X414191Y467089D01*
X414255Y467043D01*
X414321Y466999D01*
X414389Y466959D01*
X414459Y466923D01*
X414531Y466889D01*
X414605Y466859D01*
X414679Y466833D01*
X414755Y466810D01*
X414832Y466792D01*
X414909Y466776D01*
X414988Y466765D01*
X415066Y466757D01*
X415145Y466753D01*
X415225Y466753D01*
X415304Y466757D01*
X415382Y466765D01*
X415461Y466776D01*
X415538Y466792D01*
X415615Y466810D01*
X415691Y466833D01*
X415765Y466859D01*
X415839Y466889D01*
X415911Y466923D01*
X415981Y466959D01*
X416049Y466999D01*
X416115Y467043D01*
X416179Y467089D01*
X416241Y467139D01*
X416300Y467191D01*
X416356Y467247D01*
X416410Y467304D01*
X416461Y467365D01*
X416509Y467428D01*
X416554Y467493D01*
X416596Y467560D01*
X416634Y467629D01*
X416670Y467700D01*
X416701Y467773D01*
X416729Y467847D01*
X416754Y467922D01*
X416774Y467998D01*
X416792Y468075D01*
X416805Y468153D01*
X416814Y468232D01*
X416820Y468311D01*
X416822Y468390D01*
X405755Y470027D02*
X405755Y462661D01*
X405755Y470027D02*
X402481Y470027D01*
X402481Y466753D02*
X405755Y466753D01*
X398362Y465526D02*
X396520Y465526D01*
X398362Y465525D02*
X398437Y465523D01*
X398512Y465517D01*
X398586Y465507D01*
X398660Y465494D01*
X398733Y465476D01*
X398805Y465455D01*
X398875Y465430D01*
X398944Y465401D01*
X399012Y465369D01*
X399078Y465333D01*
X399142Y465294D01*
X399204Y465252D01*
X399263Y465206D01*
X399320Y465157D01*
X399375Y465106D01*
X399426Y465051D01*
X399475Y464994D01*
X399521Y464935D01*
X399563Y464873D01*
X399602Y464809D01*
X399638Y464743D01*
X399670Y464675D01*
X399699Y464606D01*
X399724Y464536D01*
X399745Y464464D01*
X399763Y464391D01*
X399776Y464317D01*
X399786Y464243D01*
X399792Y464168D01*
X399794Y464093D01*
X399792Y464018D01*
X399786Y463943D01*
X399776Y463869D01*
X399763Y463795D01*
X399745Y463722D01*
X399724Y463650D01*
X399699Y463580D01*
X399670Y463511D01*
X399638Y463443D01*
X399602Y463377D01*
X399563Y463313D01*
X399521Y463251D01*
X399475Y463192D01*
X399426Y463135D01*
X399375Y463080D01*
X399320Y463029D01*
X399263Y462980D01*
X399204Y462934D01*
X399142Y462892D01*
X399078Y462853D01*
X399012Y462817D01*
X398944Y462785D01*
X398875Y462756D01*
X398805Y462731D01*
X398733Y462710D01*
X398660Y462692D01*
X398586Y462679D01*
X398512Y462669D01*
X398437Y462663D01*
X398362Y462661D01*
X396520Y462661D01*
X396520Y466344D01*
X396522Y466413D01*
X396528Y466481D01*
X396537Y466550D01*
X396551Y466617D01*
X396568Y466684D01*
X396589Y466750D01*
X396613Y466814D01*
X396642Y466877D01*
X396673Y466938D01*
X396708Y466997D01*
X396746Y467055D01*
X396788Y467110D01*
X396832Y467162D01*
X396880Y467212D01*
X396930Y467260D01*
X396982Y467304D01*
X397037Y467346D01*
X397095Y467384D01*
X397154Y467419D01*
X397215Y467450D01*
X397278Y467479D01*
X397342Y467503D01*
X397408Y467524D01*
X397475Y467541D01*
X397542Y467555D01*
X397611Y467564D01*
X397679Y467570D01*
X397748Y467572D01*
X399385Y467572D01*
X393086Y470027D02*
X393086Y463889D01*
X393087Y463889D02*
X393085Y463820D01*
X393079Y463752D01*
X393070Y463683D01*
X393056Y463616D01*
X393039Y463549D01*
X393018Y463483D01*
X392994Y463419D01*
X392965Y463356D01*
X392934Y463295D01*
X392899Y463236D01*
X392861Y463178D01*
X392819Y463123D01*
X392775Y463071D01*
X392727Y463021D01*
X392677Y462973D01*
X392625Y462929D01*
X392570Y462888D01*
X392512Y462849D01*
X392453Y462814D01*
X392392Y462783D01*
X392329Y462754D01*
X392265Y462730D01*
X392199Y462709D01*
X392132Y462692D01*
X392065Y462678D01*
X391997Y462669D01*
X391928Y462663D01*
X391859Y462661D01*
X389185Y463889D02*
X389185Y470027D01*
X389185Y463889D02*
X389183Y463820D01*
X389177Y463752D01*
X389168Y463683D01*
X389154Y463616D01*
X389137Y463549D01*
X389116Y463483D01*
X389092Y463419D01*
X389063Y463356D01*
X389032Y463295D01*
X388997Y463236D01*
X388959Y463178D01*
X388917Y463123D01*
X388873Y463071D01*
X388825Y463021D01*
X388775Y462973D01*
X388723Y462929D01*
X388668Y462888D01*
X388610Y462849D01*
X388551Y462814D01*
X388490Y462783D01*
X388427Y462754D01*
X388363Y462730D01*
X388297Y462709D01*
X388230Y462692D01*
X388163Y462678D01*
X388095Y462669D01*
X388026Y462663D01*
X387957Y462661D01*
X379136Y470028D02*
X379051Y470026D01*
X378966Y470020D01*
X378882Y470010D01*
X378798Y469997D01*
X378714Y469979D01*
X378632Y469958D01*
X378551Y469933D01*
X378471Y469904D01*
X378392Y469871D01*
X378315Y469835D01*
X378240Y469795D01*
X378166Y469752D01*
X378095Y469706D01*
X378026Y469656D01*
X377959Y469603D01*
X377895Y469547D01*
X377834Y469488D01*
X377775Y469427D01*
X377719Y469363D01*
X377666Y469296D01*
X377616Y469227D01*
X377570Y469156D01*
X377527Y469082D01*
X377487Y469007D01*
X377451Y468930D01*
X377418Y468851D01*
X377389Y468771D01*
X377364Y468690D01*
X377343Y468608D01*
X377325Y468524D01*
X377312Y468440D01*
X377302Y468356D01*
X377296Y468271D01*
X377294Y468186D01*
X379136Y470027D02*
X379232Y470025D01*
X379328Y470019D01*
X379423Y470009D01*
X379518Y469996D01*
X379613Y469978D01*
X379706Y469957D01*
X379799Y469932D01*
X379890Y469903D01*
X379981Y469871D01*
X380070Y469835D01*
X380157Y469795D01*
X380243Y469752D01*
X380327Y469706D01*
X380409Y469656D01*
X380489Y469602D01*
X380566Y469546D01*
X380641Y469486D01*
X380714Y469424D01*
X380784Y469358D01*
X380852Y469290D01*
X380917Y469219D01*
X380978Y469146D01*
X381037Y469070D01*
X381093Y468991D01*
X381145Y468911D01*
X381194Y468828D01*
X381240Y468744D01*
X381282Y468658D01*
X381320Y468570D01*
X381355Y468481D01*
X381387Y468390D01*
X377908Y466754D02*
X377848Y466813D01*
X377791Y466875D01*
X377736Y466939D01*
X377685Y467006D01*
X377636Y467075D01*
X377590Y467145D01*
X377547Y467218D01*
X377507Y467292D01*
X377471Y467368D01*
X377438Y467446D01*
X377408Y467525D01*
X377381Y467605D01*
X377358Y467686D01*
X377339Y467768D01*
X377323Y467850D01*
X377310Y467934D01*
X377301Y468018D01*
X377296Y468102D01*
X377294Y468186D01*
X377908Y466753D02*
X381387Y462661D01*
X377294Y462661D01*
X374071Y466344D02*
X374069Y466497D01*
X374063Y466650D01*
X374054Y466802D01*
X374040Y466955D01*
X374023Y467107D01*
X374002Y467258D01*
X373977Y467409D01*
X373948Y467559D01*
X373916Y467709D01*
X373879Y467857D01*
X373839Y468005D01*
X373796Y468152D01*
X373748Y468297D01*
X373697Y468441D01*
X373643Y468584D01*
X373584Y468726D01*
X373523Y468865D01*
X373457Y469004D01*
X373431Y469074D01*
X373401Y469143D01*
X373369Y469211D01*
X373332Y469277D01*
X373293Y469341D01*
X373250Y469403D01*
X373205Y469462D01*
X373156Y469520D01*
X373105Y469574D01*
X373051Y469627D01*
X372994Y469676D01*
X372935Y469723D01*
X372874Y469766D01*
X372811Y469807D01*
X372746Y469844D01*
X372679Y469879D01*
X372610Y469909D01*
X372540Y469937D01*
X372469Y469960D01*
X372397Y469981D01*
X372324Y469997D01*
X372250Y470010D01*
X372175Y470020D01*
X372100Y470025D01*
X372025Y470027D01*
X371950Y470025D01*
X371875Y470020D01*
X371800Y470010D01*
X371726Y469997D01*
X371653Y469981D01*
X371581Y469960D01*
X371510Y469937D01*
X371440Y469909D01*
X371371Y469879D01*
X371304Y469844D01*
X371239Y469807D01*
X371176Y469766D01*
X371115Y469723D01*
X371056Y469676D01*
X370999Y469627D01*
X370945Y469574D01*
X370894Y469520D01*
X370846Y469462D01*
X370800Y469403D01*
X370757Y469341D01*
X370718Y469277D01*
X370682Y469211D01*
X370649Y469144D01*
X370619Y469074D01*
X370593Y469004D01*
X370528Y468866D01*
X370466Y468726D01*
X370408Y468584D01*
X370353Y468441D01*
X370302Y468297D01*
X370254Y468152D01*
X370211Y468005D01*
X370171Y467858D01*
X370134Y467709D01*
X370102Y467559D01*
X370073Y467409D01*
X370048Y467258D01*
X370027Y467107D01*
X370010Y466955D01*
X369996Y466802D01*
X369987Y466650D01*
X369981Y466497D01*
X369979Y466344D01*
X374072Y466344D02*
X374070Y466191D01*
X374064Y466038D01*
X374055Y465885D01*
X374041Y465733D01*
X374024Y465581D01*
X374003Y465430D01*
X373978Y465279D01*
X373949Y465128D01*
X373917Y464979D01*
X373880Y464830D01*
X373840Y464683D01*
X373797Y464536D01*
X373749Y464391D01*
X373698Y464246D01*
X373643Y464104D01*
X373585Y463962D01*
X373523Y463822D01*
X373458Y463684D01*
X373457Y463684D02*
X373431Y463614D01*
X373401Y463544D01*
X373369Y463477D01*
X373332Y463411D01*
X373293Y463347D01*
X373250Y463285D01*
X373204Y463226D01*
X373156Y463168D01*
X373105Y463114D01*
X373051Y463061D01*
X372994Y463012D01*
X372935Y462965D01*
X372874Y462922D01*
X372811Y462881D01*
X372746Y462844D01*
X372679Y462809D01*
X372610Y462779D01*
X372540Y462751D01*
X372469Y462728D01*
X372397Y462707D01*
X372324Y462691D01*
X372250Y462678D01*
X372175Y462668D01*
X372100Y462663D01*
X372025Y462661D01*
X370593Y463684D02*
X370528Y463822D01*
X370466Y463962D01*
X370408Y464104D01*
X370353Y464247D01*
X370302Y464391D01*
X370254Y464536D01*
X370211Y464683D01*
X370171Y464831D01*
X370134Y464979D01*
X370102Y465129D01*
X370073Y465279D01*
X370048Y465430D01*
X370027Y465581D01*
X370010Y465733D01*
X369996Y465886D01*
X369987Y466038D01*
X369981Y466191D01*
X369979Y466344D01*
X370593Y463684D02*
X370619Y463613D01*
X370649Y463544D01*
X370682Y463477D01*
X370718Y463411D01*
X370757Y463347D01*
X370800Y463285D01*
X370846Y463226D01*
X370894Y463168D01*
X370945Y463114D01*
X370999Y463061D01*
X371056Y463012D01*
X371115Y462965D01*
X371176Y462922D01*
X371239Y462881D01*
X371304Y462844D01*
X371371Y462809D01*
X371440Y462779D01*
X371510Y462751D01*
X371581Y462728D01*
X371653Y462707D01*
X371726Y462691D01*
X371800Y462678D01*
X371875Y462668D01*
X371950Y462663D01*
X372025Y462661D01*
X373662Y464298D02*
X370388Y468390D01*
X364506Y470028D02*
X364421Y470026D01*
X364336Y470020D01*
X364252Y470010D01*
X364168Y469997D01*
X364084Y469979D01*
X364002Y469958D01*
X363921Y469933D01*
X363841Y469904D01*
X363762Y469871D01*
X363685Y469835D01*
X363610Y469795D01*
X363536Y469752D01*
X363465Y469706D01*
X363396Y469656D01*
X363329Y469603D01*
X363265Y469547D01*
X363204Y469488D01*
X363145Y469427D01*
X363089Y469363D01*
X363036Y469296D01*
X362986Y469227D01*
X362940Y469156D01*
X362897Y469082D01*
X362857Y469007D01*
X362821Y468930D01*
X362788Y468851D01*
X362759Y468771D01*
X362734Y468690D01*
X362713Y468608D01*
X362695Y468524D01*
X362682Y468440D01*
X362672Y468356D01*
X362666Y468271D01*
X362664Y468186D01*
X364506Y470027D02*
X364602Y470025D01*
X364698Y470019D01*
X364793Y470009D01*
X364888Y469996D01*
X364983Y469978D01*
X365076Y469957D01*
X365169Y469932D01*
X365260Y469903D01*
X365351Y469871D01*
X365440Y469835D01*
X365527Y469795D01*
X365613Y469752D01*
X365697Y469706D01*
X365779Y469656D01*
X365859Y469602D01*
X365936Y469546D01*
X366011Y469486D01*
X366084Y469424D01*
X366154Y469358D01*
X366222Y469290D01*
X366287Y469219D01*
X366348Y469146D01*
X366407Y469070D01*
X366463Y468991D01*
X366515Y468911D01*
X366564Y468828D01*
X366610Y468744D01*
X366652Y468658D01*
X366690Y468570D01*
X366725Y468481D01*
X366757Y468390D01*
X363278Y466754D02*
X363218Y466813D01*
X363161Y466875D01*
X363106Y466939D01*
X363055Y467006D01*
X363006Y467075D01*
X362960Y467145D01*
X362917Y467218D01*
X362877Y467292D01*
X362841Y467368D01*
X362808Y467446D01*
X362778Y467525D01*
X362751Y467605D01*
X362728Y467686D01*
X362709Y467768D01*
X362693Y467850D01*
X362680Y467934D01*
X362671Y468018D01*
X362666Y468102D01*
X362664Y468186D01*
X363278Y466753D02*
X366756Y462661D01*
X362664Y462661D01*
X359441Y466344D02*
X359439Y466497D01*
X359433Y466650D01*
X359424Y466802D01*
X359410Y466955D01*
X359393Y467107D01*
X359372Y467258D01*
X359347Y467409D01*
X359318Y467559D01*
X359286Y467709D01*
X359249Y467857D01*
X359209Y468005D01*
X359166Y468152D01*
X359118Y468297D01*
X359067Y468441D01*
X359013Y468584D01*
X358954Y468726D01*
X358893Y468865D01*
X358827Y469004D01*
X358801Y469074D01*
X358771Y469143D01*
X358739Y469211D01*
X358702Y469277D01*
X358663Y469341D01*
X358620Y469403D01*
X358575Y469462D01*
X358526Y469520D01*
X358475Y469574D01*
X358421Y469627D01*
X358364Y469676D01*
X358305Y469723D01*
X358244Y469766D01*
X358181Y469807D01*
X358116Y469844D01*
X358049Y469879D01*
X357980Y469909D01*
X357910Y469937D01*
X357839Y469960D01*
X357767Y469981D01*
X357694Y469997D01*
X357620Y470010D01*
X357545Y470020D01*
X357470Y470025D01*
X357395Y470027D01*
X357320Y470025D01*
X357245Y470020D01*
X357170Y470010D01*
X357096Y469997D01*
X357023Y469981D01*
X356951Y469960D01*
X356880Y469937D01*
X356810Y469909D01*
X356741Y469879D01*
X356674Y469844D01*
X356609Y469807D01*
X356546Y469766D01*
X356485Y469723D01*
X356426Y469676D01*
X356369Y469627D01*
X356315Y469574D01*
X356264Y469520D01*
X356216Y469462D01*
X356170Y469403D01*
X356127Y469341D01*
X356088Y469277D01*
X356052Y469211D01*
X356019Y469144D01*
X355989Y469074D01*
X355963Y469004D01*
X355898Y468866D01*
X355836Y468726D01*
X355778Y468584D01*
X355723Y468441D01*
X355672Y468297D01*
X355624Y468152D01*
X355581Y468005D01*
X355541Y467858D01*
X355504Y467709D01*
X355472Y467559D01*
X355443Y467409D01*
X355418Y467258D01*
X355397Y467107D01*
X355380Y466955D01*
X355366Y466802D01*
X355357Y466650D01*
X355351Y466497D01*
X355349Y466344D01*
X359442Y466344D02*
X359440Y466191D01*
X359434Y466038D01*
X359425Y465885D01*
X359411Y465733D01*
X359394Y465581D01*
X359373Y465430D01*
X359348Y465279D01*
X359319Y465128D01*
X359287Y464979D01*
X359250Y464830D01*
X359210Y464683D01*
X359167Y464536D01*
X359119Y464391D01*
X359068Y464246D01*
X359013Y464104D01*
X358955Y463962D01*
X358893Y463822D01*
X358828Y463684D01*
X358827Y463684D02*
X358801Y463614D01*
X358771Y463544D01*
X358739Y463477D01*
X358702Y463411D01*
X358663Y463347D01*
X358620Y463285D01*
X358574Y463226D01*
X358526Y463168D01*
X358475Y463114D01*
X358421Y463061D01*
X358364Y463012D01*
X358305Y462965D01*
X358244Y462922D01*
X358181Y462881D01*
X358116Y462844D01*
X358049Y462809D01*
X357980Y462779D01*
X357910Y462751D01*
X357839Y462728D01*
X357767Y462707D01*
X357694Y462691D01*
X357620Y462678D01*
X357545Y462668D01*
X357470Y462663D01*
X357395Y462661D01*
X355963Y463684D02*
X355898Y463822D01*
X355836Y463962D01*
X355778Y464104D01*
X355723Y464247D01*
X355672Y464391D01*
X355624Y464536D01*
X355581Y464683D01*
X355541Y464831D01*
X355504Y464979D01*
X355472Y465129D01*
X355443Y465279D01*
X355418Y465430D01*
X355397Y465581D01*
X355380Y465733D01*
X355366Y465886D01*
X355357Y466038D01*
X355351Y466191D01*
X355349Y466344D01*
X355963Y463684D02*
X355989Y463613D01*
X356019Y463544D01*
X356052Y463477D01*
X356088Y463411D01*
X356127Y463347D01*
X356170Y463285D01*
X356216Y463226D01*
X356264Y463168D01*
X356315Y463114D01*
X356369Y463061D01*
X356426Y463012D01*
X356485Y462965D01*
X356546Y462922D01*
X356609Y462881D01*
X356674Y462844D01*
X356741Y462809D01*
X356810Y462779D01*
X356880Y462751D01*
X356951Y462728D01*
X357023Y462707D01*
X357096Y462691D01*
X357170Y462678D01*
X357245Y462668D01*
X357320Y462663D01*
X357395Y462661D01*
X359032Y464298D02*
X355758Y468390D01*
D11*
X446153Y376350D03*
D12*
X446153Y329360D03*
D13*
X446999Y383970D03*
D14*
X446999Y369149D03*
D15*
X446999Y338669D03*
D16*
X446999Y323010D03*
D17*
X447846Y386510D03*
D18*
X447846Y367879D03*
D19*
X447846Y340358D03*
D20*
X447846Y334859D03*
D21*
X447846Y320470D03*
D22*
X448693Y379741D03*
D23*
X448693Y341222D03*
D24*
X448693Y335278D03*
D25*
X448693Y319619D03*
D26*
X449539Y386929D03*
D27*
X449539Y364920D03*
D28*
X449539Y342479D03*
D29*
X449539Y335710D03*
D30*
X449539Y317930D03*
D31*
X450386Y388212D03*
D32*
X450386Y371689D03*
D33*
X450386Y363650D03*
D34*
X450386Y343749D03*
D35*
X450386Y335710D03*
D36*
X450386Y316660D03*
D37*
X451233Y404290D03*
D38*
X451233Y387780D03*
D24*
X451233Y371702D03*
D39*
X451233Y362799D03*
X451233Y342479D03*
D40*
X451233Y332751D03*
D26*
X451233Y314971D03*
D40*
X452079Y403871D03*
D38*
X452079Y386942D03*
D41*
X452079Y370419D03*
D39*
X452079Y361961D03*
D27*
X452079Y342898D03*
D41*
X452079Y332319D03*
D38*
X452079Y314958D03*
D42*
X452079Y298880D03*
D43*
X452926Y402601D03*
D36*
X452926Y385240D03*
D32*
X452926Y369149D03*
D44*
X452926Y361542D03*
D45*
X452926Y344600D03*
D20*
X452926Y337399D03*
D46*
X452926Y315390D03*
D42*
X453773Y408100D03*
D47*
X453773Y403439D03*
D26*
X453773Y386091D03*
D11*
X453773Y361110D03*
D27*
X453773Y344600D03*
D41*
X453773Y336561D03*
D47*
X453773Y331481D03*
D48*
X453773Y314120D03*
D40*
X453773Y297191D03*
D49*
X454619Y405560D03*
D50*
X454619Y385240D03*
D51*
X454619Y360259D03*
D39*
X454619Y344181D03*
D15*
X454619Y333589D03*
D52*
X454619Y313701D03*
D42*
X454619Y296340D03*
D53*
X455466Y409370D03*
D54*
X455466Y405560D03*
D55*
X455466Y386078D03*
D32*
X455466Y368311D03*
X455466Y366609D03*
D18*
X455466Y359421D03*
D56*
X455466Y344168D03*
D57*
X455466Y333589D03*
D55*
X455466Y314120D03*
D20*
X455466Y295921D03*
D29*
X456313Y409370D03*
D40*
X456313Y406411D03*
X456313Y404709D03*
D58*
X456313Y386091D03*
D42*
X456313Y367460D03*
D51*
X456313Y359421D03*
D59*
X456313Y343749D03*
D37*
X456313Y333170D03*
D60*
X456313Y314120D03*
D61*
X457159Y389901D03*
D51*
X457159Y359421D03*
D62*
X457159Y323848D03*
D41*
X457159Y294219D03*
D63*
X458006Y408519D03*
D64*
X458006Y378039D03*
D44*
X458006Y359840D03*
D46*
X458006Y334008D03*
D65*
X458006Y298029D03*
D20*
X458006Y293381D03*
D66*
X458853Y410208D03*
D67*
X458853Y368730D03*
D68*
X458853Y336129D03*
D15*
X458853Y294651D03*
D29*
X459699Y411910D03*
D69*
X459699Y352639D03*
D47*
X459699Y293381D03*
D70*
X460546Y413180D03*
D71*
X460546Y353071D03*
D70*
X460546Y292098D03*
D72*
X461393Y352652D03*
D73*
X462239Y352639D03*
D74*
X463086Y364082D03*
D17*
X463086Y340790D03*
D61*
X463933Y352639D03*
D75*
X464779Y363231D03*
D76*
X464779Y341628D03*
D77*
X465626Y362799D03*
X465626Y342479D03*
D78*
X466473Y362380D03*
X466473Y342898D03*
D79*
X467319Y361961D03*
D59*
X467319Y342911D03*
D80*
X468166Y361529D03*
X468166Y343749D03*
D81*
X469013Y361110D03*
D51*
X469013Y344181D03*
D82*
X469859Y361110D03*
D83*
X469859Y344181D03*
D84*
X143503Y89739D03*
D85*
X142665Y90587D03*
D86*
X173564Y90587D03*
D87*
X142652Y91432D03*
D86*
X173564Y91432D03*
D88*
X143084Y92279D03*
X173564Y92279D03*
D89*
X143084Y93127D03*
D86*
X173564Y93127D03*
D90*
X111334Y96512D03*
D91*
X111753Y97359D03*
D87*
X111334Y98207D03*
D92*
X110915Y99052D03*
D93*
X171443Y99052D03*
D94*
X112604Y99899D03*
D95*
X171443Y99899D03*
D96*
X171024Y100747D03*
D92*
X128695Y101592D03*
D97*
X171024Y101592D03*
D98*
X130384Y102439D03*
X171024Y102439D03*
D99*
X132924Y103287D03*
D100*
X170605Y103287D03*
D101*
X135045Y104132D03*
D102*
X166795Y104132D03*
D87*
X174834Y104132D03*
D88*
X127844Y104979D03*
D103*
X138004Y104979D03*
D104*
X165525Y104979D03*
D105*
X175672Y104979D03*
D92*
X126993Y105827D03*
D106*
X140112Y105827D03*
D107*
X164674Y105827D03*
D102*
X176955Y105827D03*
D92*
X126993Y106672D03*
D102*
X142233Y106672D03*
X164255Y106672D03*
X177793Y106672D03*
D91*
X126993Y107519D03*
X142233Y107519D03*
D108*
X165093Y107519D03*
D109*
X177374Y107519D03*
D94*
X193884Y107519D03*
D87*
X126574Y108367D03*
D92*
X142233Y108367D03*
D87*
X166376Y108367D03*
D96*
X176104Y108367D03*
D92*
X195573Y108367D03*
X126155Y109212D03*
X142233Y109212D03*
D87*
X167214Y109212D03*
D107*
X174834Y109212D03*
D92*
X195573Y109212D03*
D91*
X126155Y110059D03*
D105*
X141814Y110059D03*
D110*
X171024Y110059D03*
D105*
X195154Y110059D03*
D87*
X125736Y110907D03*
D92*
X141395Y110907D03*
D111*
X171024Y110907D03*
D89*
X195586Y110907D03*
D86*
X125304Y111752D03*
D92*
X141395Y111752D03*
D97*
X171024Y111752D03*
D88*
X125304Y112599D03*
D91*
X141395Y112599D03*
D105*
X170592Y112599D03*
D89*
X101606Y113447D03*
D86*
X125304Y113447D03*
X140544Y113447D03*
D85*
X170605Y113447D03*
D87*
X102012Y114292D03*
D112*
X126574Y114292D03*
D86*
X140544Y114292D03*
D113*
X170173Y114292D03*
D105*
X101174Y115139D03*
D114*
X128682Y115139D03*
D88*
X140544Y115139D03*
D92*
X101593Y115987D03*
D115*
X132492Y115987D03*
D93*
X102025Y116832D03*
D116*
X133775Y116832D03*
D117*
X135883Y117679D03*
D97*
X138004Y118527D03*
D93*
X140125Y119372D03*
D89*
X188804Y119372D03*
D118*
X115144Y120219D03*
D104*
X189223Y120219D03*
D87*
X115576Y121067D03*
D89*
X152406Y121067D03*
D106*
X190074Y121067D03*
D97*
X115144Y121912D03*
D92*
X152393Y121912D03*
D119*
X190506Y121912D03*
D120*
X114712Y122759D03*
D121*
X152406Y122759D03*
D122*
X191344Y122759D03*
D119*
X115144Y123607D03*
D123*
X152393Y123607D03*
D102*
X184575Y123607D03*
D106*
X196856Y123607D03*
D124*
X110483Y124452D03*
D102*
X119373Y124452D03*
D100*
X152825Y124452D03*
D96*
X183724Y124452D03*
D106*
X198532Y124452D03*
D121*
X109226Y125299D03*
D104*
X120643Y125299D03*
X148583Y125299D03*
X156203Y125299D03*
D108*
X182873Y125299D03*
D120*
X201072Y125299D03*
D124*
X107943Y126147D03*
D107*
X121494Y126147D03*
D102*
X147313Y126147D03*
D124*
X157905Y126147D03*
D102*
X182035Y126147D03*
D112*
X202774Y126147D03*
D107*
X106254Y126992D03*
D96*
X122764Y126992D03*
D102*
X146475Y126992D03*
D124*
X158743Y126992D03*
D102*
X180333Y126992D03*
D124*
X203625Y126992D03*
D121*
X104984Y127839D03*
D109*
X124034Y127839D03*
D104*
X145205Y127839D03*
D108*
X160013Y127839D03*
X179495Y127839D03*
D105*
X204476Y127839D03*
D107*
X103714Y128687D03*
D96*
X125304Y128687D03*
D102*
X143935Y128687D03*
D124*
X161283Y128687D03*
D96*
X178644Y128687D03*
D92*
X204895Y128687D03*
D124*
X102025Y129532D03*
D102*
X126155Y129532D03*
D96*
X143084Y129532D03*
D107*
X162134Y129532D03*
D102*
X177793Y129532D03*
D92*
X204895Y129532D03*
D121*
X100742Y130379D03*
D104*
X127425Y130379D03*
D108*
X142233Y130379D03*
D125*
X163404Y130379D03*
D104*
X176523Y130379D03*
D91*
X204895Y130379D03*
D124*
X99485Y131227D03*
D102*
X128695Y131227D03*
D124*
X140963Y131227D03*
D107*
X164674Y131227D03*
D102*
X175253Y131227D03*
D92*
X204895Y131227D03*
D102*
X98215Y132072D03*
X129533Y132072D03*
X139693Y132072D03*
D96*
X165944Y132072D03*
D102*
X174415Y132072D03*
D92*
X204895Y132072D03*
D125*
X97364Y132919D03*
D104*
X130803Y132919D03*
D108*
X138855Y132919D03*
D114*
X170186Y132919D03*
D91*
X204895Y132919D03*
D87*
X96932Y133767D03*
D100*
X135045Y133767D03*
D106*
X170592Y133767D03*
D92*
X204895Y133767D03*
D87*
X96932Y134612D03*
D123*
X134613Y134612D03*
D97*
X170186Y134612D03*
D92*
X204895Y134612D03*
D105*
X96932Y135459D03*
D104*
X135045Y135459D03*
D108*
X170173Y135459D03*
D91*
X204895Y135459D03*
D87*
X96932Y136307D03*
X135032Y136307D03*
D85*
X170605Y136307D03*
D92*
X204895Y136307D03*
D87*
X96932Y137152D03*
D89*
X134626Y137152D03*
D93*
X170605Y137152D03*
D92*
X204895Y137152D03*
D105*
X96932Y137999D03*
D91*
X204895Y137999D03*
D87*
X96932Y138847D03*
D92*
X204895Y138847D03*
D87*
X96932Y139692D03*
D92*
X204895Y139692D03*
D105*
X96932Y140539D03*
D91*
X204895Y140539D03*
D87*
X96932Y141387D03*
D92*
X204895Y141387D03*
D87*
X96932Y142232D03*
D92*
X204895Y142232D03*
D105*
X96932Y143079D03*
D91*
X204895Y143079D03*
D87*
X96932Y143927D03*
D92*
X204895Y143927D03*
D87*
X96932Y144772D03*
D92*
X204895Y144772D03*
D105*
X96932Y145619D03*
D91*
X204895Y145619D03*
D87*
X96932Y146467D03*
D92*
X204895Y146467D03*
D87*
X96932Y147312D03*
D92*
X204895Y147312D03*
D105*
X96932Y148159D03*
D91*
X204895Y148159D03*
D87*
X96932Y149007D03*
D92*
X204895Y149007D03*
D87*
X96932Y149852D03*
D92*
X204895Y149852D03*
D105*
X96932Y150699D03*
D91*
X204895Y150699D03*
D87*
X96932Y151547D03*
D126*
X120643Y151547D03*
D92*
X204895Y151547D03*
D87*
X96932Y152392D03*
D126*
X120643Y152392D03*
D92*
X204895Y152392D03*
D105*
X96932Y153239D03*
D127*
X120643Y153239D03*
D91*
X204895Y153239D03*
D87*
X96932Y154087D03*
D126*
X120643Y154087D03*
D92*
X204895Y154087D03*
D87*
X96932Y154932D03*
D92*
X204895Y154932D03*
D105*
X96932Y155779D03*
D91*
X204895Y155779D03*
D87*
X96932Y156627D03*
D92*
X204895Y156627D03*
D87*
X96932Y157472D03*
D92*
X204895Y157472D03*
D105*
X96932Y158319D03*
D91*
X204895Y158319D03*
D87*
X96932Y159167D03*
D92*
X204895Y159167D03*
D87*
X96932Y160012D03*
D92*
X204895Y160012D03*
D105*
X96932Y160859D03*
D91*
X204895Y160859D03*
D87*
X96932Y161707D03*
D92*
X204895Y161707D03*
D87*
X96932Y162552D03*
D92*
X204895Y162552D03*
D105*
X96932Y163399D03*
D128*
X148164Y163399D03*
D91*
X204895Y163399D03*
D87*
X96932Y164247D03*
D129*
X148164Y164247D03*
D92*
X204895Y164247D03*
D87*
X96932Y165092D03*
D129*
X148164Y165092D03*
D92*
X204895Y165092D03*
D105*
X96932Y165939D03*
D130*
X148583Y165939D03*
D91*
X204895Y165939D03*
D87*
X96932Y166787D03*
D92*
X204895Y166787D03*
D87*
X96932Y167632D03*
D92*
X204895Y167632D03*
D105*
X96932Y168479D03*
D91*
X204895Y168479D03*
D87*
X96932Y169327D03*
D92*
X204895Y169327D03*
D87*
X96932Y170172D03*
D92*
X204895Y170172D03*
D105*
X96932Y171019D03*
D95*
X151123Y171019D03*
D91*
X204895Y171019D03*
D93*
X51225Y171867D03*
D87*
X96932Y171867D03*
D131*
X151555Y171867D03*
D92*
X204895Y171867D03*
D89*
X51644Y172712D03*
D87*
X96932Y172712D03*
D132*
X151136Y172712D03*
D92*
X204895Y172712D03*
D91*
X52495Y173559D03*
D105*
X96932Y173559D03*
D133*
X136734Y173559D03*
D134*
X165093Y173559D03*
D91*
X204895Y173559D03*
D102*
X53333Y174407D03*
D87*
X96932Y174407D03*
D135*
X131654Y174407D03*
D123*
X170173Y174407D03*
D92*
X204895Y174407D03*
D97*
X54184Y175252D03*
D87*
X96932Y175252D03*
D136*
X130816Y175252D03*
D124*
X173983Y175252D03*
D92*
X204895Y175252D03*
D120*
X55454Y176099D03*
D105*
X96932Y176099D03*
D137*
X110483Y176099D03*
D109*
X124034Y176099D03*
D138*
X134613Y176099D03*
D139*
X182873Y176099D03*
D91*
X204895Y176099D03*
D119*
X56724Y176947D03*
D87*
X96932Y176947D03*
D100*
X109645Y176947D03*
D102*
X121913Y176947D03*
D87*
X131654Y176947D03*
D85*
X138423Y176947D03*
D140*
X184143Y176947D03*
D92*
X204895Y176947D03*
D140*
X58845Y177792D03*
D87*
X96932Y177792D03*
D141*
X109213Y177792D03*
D87*
X119792Y177792D03*
D102*
X131235Y177792D03*
D90*
X139274Y177792D03*
D142*
X185413Y177792D03*
D92*
X204895Y177792D03*
D143*
X61385Y178639D03*
D105*
X96932Y178639D03*
X118116Y178639D03*
D125*
X130384Y178639D03*
D95*
X140125Y178639D03*
D108*
X182873Y178639D03*
D144*
X192195Y178639D03*
D91*
X204895Y178639D03*
D145*
X66033Y179487D03*
D87*
X96932Y179487D03*
D92*
X115995Y179487D03*
D85*
X128263Y179487D03*
D89*
X132086Y179487D03*
D90*
X141814Y179487D03*
D92*
X184575Y179487D03*
X204895Y179487D03*
D126*
X67303Y180332D03*
D87*
X96932Y180332D03*
X114712Y180332D03*
D85*
X127425Y180332D03*
D89*
X132086Y180332D03*
D85*
X142665Y180332D03*
D87*
X185832Y180332D03*
D92*
X204895Y180332D03*
D146*
X66884Y181179D03*
D105*
X96932Y181179D03*
X113036Y181179D03*
D147*
X126574Y181179D03*
D148*
X131654Y181179D03*
D95*
X143503Y181179D03*
D91*
X187115Y181179D03*
X204895Y181179D03*
D149*
X66465Y182027D03*
D87*
X96932Y182027D03*
D92*
X111753Y182027D03*
D85*
X125723Y182027D03*
D89*
X131222Y182027D03*
D90*
X144354Y182027D03*
D86*
X188804Y182027D03*
D92*
X204895Y182027D03*
D149*
X66465Y182872D03*
D87*
X96932Y182872D03*
D86*
X110064Y182872D03*
D89*
X124466Y182872D03*
X131222Y182872D03*
D85*
X145205Y182872D03*
D90*
X190074Y182872D03*
D92*
X204895Y182872D03*
D150*
X66033Y183719D03*
D148*
X88474Y183719D03*
D105*
X96932Y183719D03*
D91*
X109213Y183719D03*
D147*
X124034Y183719D03*
D118*
X131222Y183719D03*
D95*
X146043Y183719D03*
D88*
X191344Y183719D03*
D91*
X204895Y183719D03*
D151*
X65614Y184567D03*
D152*
X88474Y184567D03*
D87*
X96932Y184567D03*
D85*
X107943Y184567D03*
X123183Y184567D03*
D93*
X130803Y184567D03*
D85*
X147745Y184567D03*
D92*
X192195Y184567D03*
X204895Y184567D03*
D153*
X65195Y185412D03*
D90*
X88474Y185412D03*
D87*
X96932Y185412D03*
D92*
X106673Y185412D03*
D85*
X122345Y185412D03*
D93*
X130803Y185412D03*
D85*
X148583Y185412D03*
X193465Y185412D03*
D92*
X204895Y185412D03*
D154*
X64763Y186259D03*
D91*
X88055Y186259D03*
D105*
X96932Y186259D03*
D91*
X105835Y186259D03*
D147*
X121494Y186259D03*
D118*
X130384Y186259D03*
D147*
X149434Y186259D03*
D138*
X159175Y186259D03*
D95*
X194303Y186259D03*
D91*
X204895Y186259D03*
D155*
X64344Y187107D03*
D87*
X87636Y187107D03*
X96932Y187107D03*
D85*
X104565Y187107D03*
X120643Y187107D03*
D89*
X130384Y187107D03*
D156*
X157486Y187107D03*
D90*
X195154Y187107D03*
D92*
X204895Y187107D03*
D157*
X63493Y187952D03*
D96*
X87204Y187952D03*
D87*
X96932Y187952D03*
D90*
X103714Y187952D03*
D85*
X119805Y187952D03*
D89*
X130384Y187952D03*
D101*
X158743Y187952D03*
D85*
X196005Y187952D03*
D92*
X204895Y187952D03*
D158*
X62223Y188799D03*
D121*
X87204Y188799D03*
D105*
X96932Y188799D03*
D95*
X102863Y188799D03*
D147*
X118954Y188799D03*
D84*
X129965Y188799D03*
D91*
X152393Y188799D03*
D105*
X167214Y188799D03*
D95*
X196843Y188799D03*
D91*
X204895Y188799D03*
D159*
X61804Y189647D03*
D160*
X86785Y189647D03*
D87*
X96932Y189647D03*
D85*
X102025Y189647D03*
D89*
X118522Y189647D03*
D93*
X129965Y189647D03*
D85*
X152825Y189647D03*
D87*
X168916Y189647D03*
D90*
X197694Y189647D03*
D92*
X204895Y189647D03*
D159*
X61804Y190492D03*
D123*
X86353Y190492D03*
D112*
X98634Y190492D03*
D89*
X117684Y190492D03*
D93*
X129965Y190492D03*
D85*
X153663Y190492D03*
D92*
X170173Y190492D03*
D85*
X198545Y190492D03*
D92*
X204895Y190492D03*
D161*
X61804Y191339D03*
D162*
X85515Y191339D03*
D121*
X98202Y191339D03*
D118*
X116846Y191339D03*
X129546Y191339D03*
D147*
X154514Y191339D03*
D118*
X171024Y191339D03*
D95*
X199383Y191339D03*
D91*
X204895Y191339D03*
D159*
X61804Y192187D03*
D135*
X85934Y192187D03*
D96*
X97364Y192187D03*
D90*
X116414Y192187D03*
D89*
X129546Y192187D03*
D85*
X155365Y192187D03*
D163*
X171024Y192187D03*
D90*
X200234Y192187D03*
D92*
X204895Y192187D03*
D159*
X61804Y193032D03*
D141*
X86353Y193032D03*
D96*
X97364Y193032D03*
D87*
X116414Y193032D03*
D89*
X129546Y193032D03*
D85*
X156203Y193032D03*
D97*
X203206Y193032D03*
D161*
X61804Y193879D03*
D120*
X86772Y193879D03*
D105*
X96932Y193879D03*
D108*
X115995Y193879D03*
D118*
X129546Y193879D03*
D147*
X157054Y193879D03*
D104*
X203625Y193879D03*
D159*
X61804Y194727D03*
D160*
X87623Y194727D03*
D92*
X96513Y194727D03*
D89*
X114306Y194727D03*
D93*
X118103Y194727D03*
D89*
X129546Y194727D03*
D85*
X157905Y194727D03*
D96*
X204044Y194727D03*
D159*
X61804Y195572D03*
D107*
X88474Y195572D03*
D90*
X96094Y195572D03*
D89*
X113442Y195572D03*
D93*
X118103Y195572D03*
D89*
X129546Y195572D03*
D85*
X158743Y195572D03*
D96*
X204044Y195572D03*
D161*
X61804Y196419D03*
D105*
X89312Y196419D03*
D95*
X95243Y196419D03*
X113023Y196419D03*
D118*
X118522Y196419D03*
X129546Y196419D03*
D147*
X159594Y196419D03*
D105*
X204476Y196419D03*
D159*
X61804Y197267D03*
D89*
X90582Y197267D03*
X94824Y197267D03*
D85*
X112185Y197267D03*
D89*
X118522Y197267D03*
X129546Y197267D03*
D87*
X159594Y197267D03*
D164*
X183305Y197267D03*
D92*
X204895Y197267D03*
D159*
X61804Y198112D03*
D93*
X79165Y198112D03*
D89*
X93986Y198112D03*
X111766Y198112D03*
X118522Y198112D03*
X129546Y198112D03*
D107*
X159594Y198112D03*
D165*
X182873Y198112D03*
D92*
X204895Y198112D03*
D161*
X61804Y198959D03*
D118*
X79584Y198959D03*
X93122Y198959D03*
X110902Y198959D03*
D148*
X118954Y198959D03*
D118*
X129546Y198959D03*
D147*
X157054Y198959D03*
D166*
X183305Y198959D03*
D159*
X61804Y199807D03*
D92*
X80435Y199807D03*
D85*
X92703Y199807D03*
X110483Y199807D03*
D89*
X119386Y199807D03*
X129546Y199807D03*
D167*
X181184Y199807D03*
D159*
X61804Y200652D03*
D102*
X81273Y200652D03*
D89*
X92284Y200652D03*
X110064Y200652D03*
X119386Y200652D03*
X129546Y200652D03*
D168*
X180765Y200652D03*
D161*
X61804Y201499D03*
D169*
X82543Y201499D03*
D118*
X91446Y201499D03*
X109226Y201499D03*
X119386Y201499D03*
X129546Y201499D03*
D170*
X179914Y201499D03*
D159*
X61804Y202347D03*
D142*
X85515Y202347D03*
D90*
X108794Y202347D03*
D89*
X119386Y202347D03*
X129546Y202347D03*
D171*
X179063Y202347D03*
D159*
X61804Y203192D03*
D142*
X85515Y203192D03*
D89*
X108362Y203192D03*
D93*
X119805Y203192D03*
D89*
X129546Y203192D03*
D172*
X178644Y203192D03*
D161*
X61804Y204039D03*
D173*
X87204Y204039D03*
D118*
X107524Y204039D03*
X120224Y204039D03*
D84*
X129965Y204039D03*
D174*
X176523Y204039D03*
D175*
X62223Y204887D03*
D151*
X93554Y204887D03*
D89*
X120224Y204887D03*
D176*
X173564Y204887D03*
D177*
X62655Y205732D03*
D178*
X148583Y205732D03*
D179*
X63074Y206579D03*
D180*
X148583Y206579D03*
D181*
X63493Y207427D03*
D178*
X148583Y207427D03*
D101*
X63925Y208272D03*
D178*
X148583Y208272D03*
D182*
X64763Y209119D03*
D180*
X148583Y209119D03*
D136*
X65614Y209967D03*
D178*
X148583Y209967D03*
D183*
X66465Y210812D03*
D178*
X148583Y210812D03*
D162*
X67735Y211659D03*
D180*
X148583Y211659D03*
D97*
X69424Y212507D03*
D178*
X148583Y212507D03*
D85*
X71545Y213352D03*
D178*
X148583Y213352D03*
D180*
X148583Y214199D03*
D141*
X83813Y215047D03*
D184*
X101174Y215047D03*
D124*
X117265Y215047D03*
D97*
X126142Y215047D03*
D160*
X135883Y215047D03*
D124*
X145205Y215047D03*
D185*
X160864Y215047D03*
D96*
X176104Y215047D03*
D92*
X182035Y215047D03*
D87*
X187534Y215047D03*
D112*
X195154Y215047D03*
D124*
X204463Y215047D03*
D111*
X214204Y215047D03*
D97*
X82124Y215892D03*
D89*
X93986Y215892D03*
D92*
X98215Y215892D03*
D93*
X102863Y215892D03*
D87*
X107956Y215892D03*
D85*
X117265Y215892D03*
D89*
X127006Y215892D03*
D113*
X133775Y215892D03*
D89*
X137166Y215892D03*
D85*
X145205Y215892D03*
D113*
X152393Y215892D03*
D87*
X157054Y215892D03*
D93*
X168903Y215892D03*
D85*
X176523Y215892D03*
D152*
X182454Y215892D03*
X187534Y215892D03*
D113*
X193033Y215892D03*
D89*
X196424Y215892D03*
D85*
X204463Y215892D03*
D97*
X215042Y215892D03*
D104*
X81705Y216739D03*
D95*
X89325Y216739D03*
D84*
X94405Y216739D03*
D91*
X98215Y216739D03*
D84*
X102863Y216739D03*
D88*
X107524Y216739D03*
D95*
X113023Y216739D03*
D84*
X117265Y216739D03*
D118*
X121926Y216739D03*
D148*
X126574Y216739D03*
D118*
X131222Y216739D03*
X136302Y216739D03*
D95*
X140963Y216739D03*
D118*
X145624Y216739D03*
X149866Y216739D03*
D108*
X156635Y216739D03*
D121*
X165106Y216739D03*
D147*
X172294Y216739D03*
D84*
X176523Y216739D03*
D95*
X180765Y216739D03*
X185845Y216739D03*
D118*
X191344Y216739D03*
D84*
X196005Y216739D03*
D118*
X200666Y216739D03*
D84*
X204463Y216739D03*
D95*
X208705Y216739D03*
D109*
X215474Y216739D03*
D183*
X85083Y217587D03*
D93*
X94405Y217587D03*
D92*
X98215Y217587D03*
D93*
X102863Y217587D03*
D85*
X107105Y217587D03*
D97*
X114306Y217587D03*
D92*
X121913Y217587D03*
D152*
X126574Y217587D03*
D92*
X131235Y217587D03*
D93*
X135883Y217587D03*
D97*
X142246Y217587D03*
D92*
X149853Y217587D03*
D102*
X156635Y217587D03*
D107*
X164674Y217587D03*
D97*
X173564Y217587D03*
D85*
X180765Y217587D03*
X185845Y217587D03*
X190925Y217587D03*
D93*
X196005Y217587D03*
D124*
X201923Y217587D03*
D135*
X212934Y217587D03*
D183*
X85083Y218432D03*
D93*
X94405Y218432D03*
D92*
X98215Y218432D03*
D93*
X102863Y218432D03*
D85*
X107105Y218432D03*
D107*
X113874Y218432D03*
D87*
X121494Y218432D03*
D152*
X126574Y218432D03*
D92*
X131235Y218432D03*
D93*
X135883Y218432D03*
D97*
X142246Y218432D03*
D87*
X149434Y218432D03*
D102*
X156635Y218432D03*
D107*
X164674Y218432D03*
D97*
X173564Y218432D03*
D85*
X180765Y218432D03*
X185845Y218432D03*
D86*
X191344Y218432D03*
D113*
X195573Y218432D03*
D124*
X201085Y218432D03*
D119*
X212502Y218432D03*
D137*
X85083Y219279D03*
D84*
X94405Y219279D03*
D91*
X98215Y219279D03*
D84*
X102863Y219279D03*
D95*
X107105Y219279D03*
D105*
X121494Y219279D03*
D148*
X126574Y219279D03*
D105*
X130816Y219279D03*
D84*
X135883Y219279D03*
D94*
X145624Y219279D03*
D105*
X149434Y219279D03*
D108*
X156635Y219279D03*
D109*
X164674Y219279D03*
D144*
X176955Y219279D03*
D95*
X180765Y219279D03*
X185845Y219279D03*
D88*
X191344Y219279D03*
D144*
X195573Y219279D03*
D104*
X201085Y219279D03*
D108*
X215893Y219279D03*
D141*
X83813Y220127D03*
D89*
X93986Y220127D03*
D92*
X98215Y220127D03*
D93*
X102863Y220127D03*
D85*
X107105Y220127D03*
D87*
X113036Y220127D03*
D113*
X116833Y220127D03*
D87*
X121494Y220127D03*
D152*
X126574Y220127D03*
D92*
X131235Y220127D03*
D93*
X135883Y220127D03*
D87*
X140976Y220127D03*
D163*
X145624Y220127D03*
D87*
X149434Y220127D03*
D102*
X156635Y220127D03*
D107*
X164674Y220127D03*
D87*
X172294Y220127D03*
D113*
X176955Y220127D03*
D85*
X180765Y220127D03*
X185845Y220127D03*
D86*
X191344Y220127D03*
D113*
X195573Y220127D03*
D124*
X201085Y220127D03*
D87*
X208692Y220127D03*
D102*
X215893Y220127D03*
D160*
X82543Y220972D03*
D92*
X93135Y220972D03*
D90*
X98634Y220972D03*
D93*
X102863Y220972D03*
D89*
X107524Y220972D03*
D86*
X112604Y220972D03*
D93*
X117265Y220972D03*
D92*
X121913Y220972D03*
D152*
X126574Y220972D03*
D92*
X131235Y220972D03*
D93*
X135883Y220972D03*
D87*
X140976Y220972D03*
D93*
X145205Y220972D03*
D92*
X149853Y220972D03*
D102*
X156635Y220972D03*
D107*
X164674Y220972D03*
D92*
X171875Y220972D03*
D93*
X176523Y220972D03*
D85*
X180765Y220972D03*
X185845Y220972D03*
D86*
X191344Y220972D03*
D93*
X196005Y220972D03*
D124*
X201923Y220972D03*
D87*
X208692Y220972D03*
D102*
X215893Y220972D03*
D89*
X225202Y220972D03*
D121*
X82124Y221819D03*
D104*
X91865Y221819D03*
D118*
X99066Y221819D03*
D84*
X102863Y221819D03*
D118*
X108362Y221819D03*
X112604Y221819D03*
D84*
X117265Y221819D03*
D118*
X121926Y221819D03*
D148*
X126574Y221819D03*
D118*
X131222Y221819D03*
X136302Y221819D03*
D95*
X140963Y221819D03*
D118*
X145624Y221819D03*
X149866Y221819D03*
D108*
X156635Y221819D03*
D121*
X165106Y221819D03*
D147*
X172294Y221819D03*
D84*
X176523Y221819D03*
D95*
X180765Y221819D03*
X185845Y221819D03*
D88*
X191344Y221819D03*
D84*
X196005Y221819D03*
D118*
X200666Y221819D03*
D84*
X204463Y221819D03*
D95*
X208705Y221819D03*
D109*
X215474Y221819D03*
D104*
X227323Y221819D03*
D124*
X81705Y222667D03*
D112*
X91014Y222667D03*
D113*
X96513Y222667D03*
D89*
X102444Y222667D03*
D113*
X105835Y222667D03*
D152*
X108794Y222667D03*
D85*
X117265Y222667D03*
D89*
X127006Y222667D03*
D90*
X136734Y222667D03*
D85*
X145205Y222667D03*
D102*
X156635Y222667D03*
D160*
X165525Y222667D03*
D93*
X175685Y222667D03*
D163*
X181184Y222667D03*
D93*
X186683Y222667D03*
D86*
X191344Y222667D03*
D89*
X196424Y222667D03*
D85*
X204463Y222667D03*
D97*
X215042Y222667D03*
D106*
X229012Y222667D03*
D124*
X81705Y223512D03*
D112*
X91014Y223512D03*
D89*
X97364Y223512D03*
D141*
X105835Y223512D03*
D124*
X117265Y223512D03*
D93*
X123183Y223512D03*
D86*
X127844Y223512D03*
D93*
X132505Y223512D03*
D87*
X137572Y223512D03*
D124*
X145205Y223512D03*
D93*
X151123Y223512D03*
D102*
X156635Y223512D03*
D106*
X166376Y223512D03*
D92*
X175253Y223512D03*
D93*
X181603Y223512D03*
D186*
X192614Y223512D03*
D124*
X204463Y223512D03*
D111*
X214204Y223512D03*
D119*
X230282Y223512D03*
D121*
X82124Y224359D03*
D88*
X89744Y224359D03*
D118*
X93986Y224359D03*
D187*
X110064Y224359D03*
D121*
X129546Y224359D03*
D182*
X143503Y224359D03*
D108*
X156635Y224359D03*
D188*
X169335Y224359D03*
D95*
X180765Y224359D03*
D189*
X201504Y224359D03*
D133*
X231552Y224359D03*
D97*
X82124Y225207D03*
D89*
X93986Y225207D03*
D155*
X110064Y225207D03*
D97*
X129546Y225207D03*
D140*
X143503Y225207D03*
D102*
X156635Y225207D03*
D116*
X169335Y225207D03*
D85*
X180765Y225207D03*
D190*
X201504Y225207D03*
D156*
X232822Y225207D03*
D123*
X82975Y226052D03*
D90*
X93554Y226052D03*
D155*
X110064Y226052D03*
D97*
X129546Y226052D03*
D140*
X143503Y226052D03*
D107*
X157054Y226052D03*
D191*
X169754Y226052D03*
D86*
X181184Y226052D03*
D190*
X201504Y226052D03*
D115*
X234092Y226052D03*
D180*
X148583Y226899D03*
D143*
X234943Y226899D03*
D178*
X148583Y227747D03*
D175*
X234943Y227747D03*
D178*
X148583Y228592D03*
D175*
X234943Y228592D03*
D180*
X148583Y229439D03*
D143*
X234943Y229439D03*
D178*
X148583Y230287D03*
D175*
X234943Y230287D03*
D178*
X148583Y231132D03*
D175*
X234943Y231132D03*
D192*
X149002Y231979D03*
D143*
X234943Y231979D03*
D193*
X126155Y232827D03*
D89*
X183724Y232827D03*
D194*
X206584Y232827D03*
D175*
X234943Y232827D03*
D195*
X123183Y233672D03*
D89*
X168484Y233672D03*
X184562Y233672D03*
D101*
X209543Y233672D03*
D175*
X234943Y233672D03*
D196*
X121494Y234519D03*
D84*
X168903Y234519D03*
D118*
X184562Y234519D03*
D103*
X211664Y234519D03*
D143*
X234943Y234519D03*
D197*
X119373Y235367D03*
D89*
X169322Y235367D03*
X185426Y235367D03*
D141*
X213353Y235367D03*
D175*
X234943Y235367D03*
D198*
X118522Y236212D03*
D89*
X169322Y236212D03*
X185426Y236212D03*
D106*
X213772Y236212D03*
D175*
X234943Y236212D03*
D199*
X116414Y237059D03*
D91*
X151555Y237059D03*
D118*
X169322Y237059D03*
X185426Y237059D03*
X209962Y237059D03*
D108*
X215893Y237059D03*
D143*
X234943Y237059D03*
D89*
X86366Y237907D03*
D200*
X117252Y237907D03*
D85*
X152825Y237907D03*
D152*
X169754Y237907D03*
D89*
X186264Y237907D03*
X209962Y237907D03*
D85*
X217163Y237907D03*
D175*
X234943Y237907D03*
D89*
X86366Y238752D03*
D201*
X115563Y238752D03*
D89*
X143922Y238752D03*
D92*
X154095Y238752D03*
D85*
X186683Y238752D03*
D89*
X209962Y238752D03*
D113*
X218433Y238752D03*
D175*
X234943Y238752D03*
D118*
X86366Y239599D03*
D202*
X115144Y239599D03*
D147*
X144354Y239599D03*
D88*
X155784Y239599D03*
D108*
X187953Y239599D03*
D84*
X209543Y239599D03*
D143*
X234943Y239599D03*
D89*
X86366Y240447D03*
D155*
X115144Y240447D03*
D85*
X145205Y240447D03*
D92*
X156635Y240447D03*
D124*
X189223Y240447D03*
D93*
X206165Y240447D03*
D89*
X209124Y240447D03*
D175*
X234943Y240447D03*
D93*
X86785Y241292D03*
D100*
X115563Y241292D03*
D89*
X126142Y241292D03*
X145624Y241292D03*
D86*
X158324Y241292D03*
D112*
X190074Y241292D03*
D87*
X207854Y241292D03*
D175*
X234943Y241292D03*
D84*
X86785Y242139D03*
D95*
X125723Y242139D03*
X146043Y242139D03*
D105*
X159594Y242139D03*
D118*
X187102Y242139D03*
D91*
X193033Y242139D03*
D121*
X209124Y242139D03*
D143*
X234943Y242139D03*
D89*
X87204Y242987D03*
X125304Y242987D03*
X146462Y242987D03*
D87*
X161296Y242987D03*
D152*
X187534Y242987D03*
D85*
X194303Y242987D03*
D106*
X210394Y242987D03*
D175*
X234943Y242987D03*
D89*
X87204Y243832D03*
X124466Y243832D03*
X147326Y243832D03*
D87*
X162972Y243832D03*
D89*
X187966Y243832D03*
X194722Y243832D03*
D123*
X209975Y243832D03*
D175*
X234943Y243832D03*
D118*
X87204Y244679D03*
D147*
X124034Y244679D03*
D118*
X147326Y244679D03*
D108*
X165093Y244679D03*
D118*
X187966Y244679D03*
D148*
X195154Y244679D03*
D169*
X209543Y244679D03*
D161*
X234524Y244679D03*
D93*
X87623Y245527D03*
D85*
X123183Y245527D03*
D89*
X148164Y245527D03*
D87*
X167214Y245527D03*
D89*
X187966Y245527D03*
D124*
X208705Y245527D03*
D131*
X233673Y245527D03*
D89*
X88042Y246372D03*
D85*
X122345Y246372D03*
D89*
X148164Y246372D03*
D87*
X168916Y246372D03*
D93*
X188385Y246372D03*
D102*
X208273Y246372D03*
D157*
X232835Y246372D03*
D118*
X88042Y247219D03*
X121926Y247219D03*
X149002Y247219D03*
D91*
X170173Y247219D03*
D118*
X188804Y247219D03*
D105*
X207854Y247219D03*
D187*
X231984Y247219D03*
D89*
X88042Y248067D03*
X121062Y248067D03*
X149002Y248067D03*
D92*
X171875Y248067D03*
D89*
X188804Y248067D03*
D92*
X207435Y248067D03*
D203*
X231565Y248067D03*
D152*
X88474Y248912D03*
D85*
X120643Y248912D03*
D89*
X149866Y248912D03*
D92*
X172713Y248912D03*
D89*
X188804Y248912D03*
X207422Y248912D03*
D153*
X231133Y248912D03*
D118*
X88906Y249759D03*
D95*
X119805Y249759D03*
D118*
X149866Y249759D03*
D95*
X173983Y249759D03*
D118*
X188804Y249759D03*
X207422Y249759D03*
D150*
X230295Y249759D03*
D89*
X88906Y250607D03*
D90*
X118954Y250607D03*
D89*
X149866Y250607D03*
D90*
X174834Y250607D03*
D93*
X189223Y250607D03*
X207003Y250607D03*
D149*
X229863Y250607D03*
D89*
X88906Y251452D03*
D85*
X118103Y251452D03*
D89*
X150704Y251452D03*
D85*
X175685Y251452D03*
D93*
X189223Y251452D03*
D89*
X206584Y251452D03*
D204*
X229444Y251452D03*
D118*
X89744Y252299D03*
D95*
X117265Y252299D03*
D118*
X150704Y252299D03*
D95*
X176523Y252299D03*
D118*
X189642Y252299D03*
X206584Y252299D03*
D127*
X229025Y252299D03*
D89*
X89744Y253147D03*
D90*
X116414Y253147D03*
D89*
X150704Y253147D03*
D90*
X177374Y253147D03*
D89*
X189642Y253147D03*
X206584Y253147D03*
D165*
X228593Y253147D03*
D89*
X89744Y253992D03*
D87*
X116414Y253992D03*
D89*
X150704Y253992D03*
D85*
X178225Y253992D03*
D89*
X189642Y253992D03*
X205746Y253992D03*
D132*
X228174Y253992D03*
D118*
X90582Y254839D03*
D108*
X115995Y254839D03*
D118*
X151542Y254839D03*
D95*
X179063Y254839D03*
D84*
X189223Y254839D03*
D118*
X205746Y254839D03*
D205*
X228174Y254839D03*
D89*
X90582Y255687D03*
D90*
X113874Y255687D03*
D89*
X117684Y255687D03*
X151542Y255687D03*
X179482Y255687D03*
X205746Y255687D03*
D159*
X234524Y255687D03*
D89*
X90582Y256532D03*
D85*
X113023Y256532D03*
D89*
X118522Y256532D03*
X151542Y256532D03*
D90*
X179914Y256532D03*
D89*
X204882Y256532D03*
D156*
X237064Y256532D03*
D118*
X91446Y257379D03*
D95*
X112185Y257379D03*
D91*
X119373Y257379D03*
D118*
X151542Y257379D03*
D95*
X180765Y257379D03*
D118*
X204882Y257379D03*
D137*
X239185Y257379D03*
D89*
X91446Y258227D03*
D90*
X111334Y258227D03*
D102*
X121075Y258227D03*
D89*
X151542Y258227D03*
X181184Y258227D03*
X204044Y258227D03*
D106*
X240874Y258227D03*
D89*
X91446Y259072D03*
D85*
X110483Y259072D03*
D141*
X123615Y259072D03*
D85*
X135883Y259072D03*
D89*
X151542Y259072D03*
X182022Y259072D03*
X204044Y259072D03*
D97*
X242144Y259072D03*
D84*
X91865Y259919D03*
D95*
X109645Y259919D03*
D206*
X128263Y259919D03*
D118*
X151542Y259919D03*
X161702Y259919D03*
X182022Y259919D03*
X204044Y259919D03*
D105*
X243414Y259919D03*
D93*
X91865Y260767D03*
D92*
X108375Y260767D03*
D89*
X120224Y260767D03*
D207*
X130384Y260767D03*
D89*
X151542Y260767D03*
D90*
X162134Y260767D03*
D89*
X182886Y260767D03*
X203206Y260767D03*
X244684Y260767D03*
D93*
X91865Y261612D03*
D85*
X107105Y261612D03*
D89*
X121062Y261612D03*
X151542Y261612D03*
D86*
X163404Y261612D03*
D85*
X183305Y261612D03*
D89*
X203206Y261612D03*
D113*
X245535Y261612D03*
D84*
X91865Y262459D03*
D147*
X106254Y262459D03*
D118*
X121926Y262459D03*
X151542Y262459D03*
D91*
X164255Y262459D03*
D95*
X183305Y262459D03*
D118*
X202342Y262459D03*
D93*
X91865Y263307D03*
D85*
X105403Y263307D03*
D89*
X121926Y263307D03*
X151542Y263307D03*
D86*
X165944Y263307D03*
D102*
X182035Y263307D03*
D89*
X202342Y263307D03*
D93*
X91865Y264152D03*
D92*
X104133Y264152D03*
D85*
X122345Y264152D03*
D152*
X151974Y264152D03*
D92*
X166795Y264152D03*
D111*
X181184Y264152D03*
D89*
X201504Y264152D03*
D84*
X91865Y264999D03*
D95*
X102863Y264999D03*
D88*
X122764Y264999D03*
D148*
X151974Y264999D03*
D88*
X168484Y264999D03*
D208*
X177374Y264999D03*
D118*
X184562Y264999D03*
X201504Y264999D03*
D93*
X91865Y265847D03*
D92*
X101593Y265847D03*
D87*
X123196Y265847D03*
D89*
X152406Y265847D03*
D106*
X173132Y265847D03*
D152*
X184994Y265847D03*
D89*
X200666Y265847D03*
D93*
X91865Y266692D03*
D92*
X100755Y266692D03*
D152*
X121494Y266692D03*
D85*
X124885Y266692D03*
D89*
X152406Y266692D03*
D97*
X171862Y266692D03*
D89*
X185426Y266692D03*
X200666Y266692D03*
D118*
X91446Y267539D03*
D91*
X99053Y267539D03*
D118*
X121062Y267539D03*
D121*
X127844Y267539D03*
D148*
X144354Y267539D03*
D118*
X152406Y267539D03*
D138*
X169335Y267539D03*
D118*
X185426Y267539D03*
X199802Y267539D03*
D89*
X91446Y268387D03*
D92*
X98215Y268387D03*
D89*
X121062Y268387D03*
D115*
X135032Y268387D03*
D89*
X152406Y268387D03*
D97*
X165944Y268387D03*
D89*
X172726Y268387D03*
X186264Y268387D03*
X199802Y268387D03*
X91446Y269232D03*
D96*
X97364Y269232D03*
D89*
X121062Y269232D03*
D209*
X135464Y269232D03*
D93*
X152825Y269232D03*
D97*
X163404Y269232D03*
D89*
X172726Y269232D03*
X186264Y269232D03*
X198964Y269232D03*
D118*
X91446Y270079D03*
D104*
X96945Y270079D03*
D118*
X121062Y270079D03*
D91*
X128695Y270079D03*
D162*
X138855Y270079D03*
D118*
X153244Y270079D03*
D108*
X161715Y270079D03*
D118*
X172726Y270079D03*
X187102Y270079D03*
X198964Y270079D03*
D102*
X93135Y270927D03*
D89*
X99904Y270927D03*
X121062Y270927D03*
D90*
X129114Y270927D03*
D89*
X153244Y270927D03*
D93*
X160445Y270927D03*
D89*
X172726Y270927D03*
X187102Y270927D03*
X198964Y270927D03*
D86*
X92284Y271772D03*
D85*
X100323Y271772D03*
D93*
X120643Y271772D03*
D86*
X130384Y271772D03*
D89*
X153244Y271772D03*
X172726Y271772D03*
X187966Y271772D03*
D93*
X198545Y271772D03*
D91*
X91433Y272619D03*
D147*
X101174Y272619D03*
D84*
X120643Y272619D03*
D91*
X132073Y272619D03*
D118*
X154082Y272619D03*
X172726Y272619D03*
X187966Y272619D03*
D84*
X198545Y272619D03*
D89*
X90582Y273467D03*
D85*
X102025Y273467D03*
D93*
X120643Y273467D03*
D86*
X132924Y273467D03*
D89*
X154082Y273467D03*
D152*
X172294Y273467D03*
D89*
X188804Y273467D03*
X198126Y273467D03*
D93*
X90163Y274312D03*
D89*
X102444Y274312D03*
D92*
X134613Y274312D03*
D89*
X154082Y274312D03*
D152*
X172294Y274312D03*
D89*
X188804Y274312D03*
X198126Y274312D03*
D147*
X103714Y275159D03*
D105*
X135896Y275159D03*
D118*
X154946Y275159D03*
X171862Y275159D03*
X189642Y275159D03*
X198126Y275159D03*
D85*
X104565Y276007D03*
D96*
X138004Y276007D03*
D89*
X154946Y276007D03*
X171862Y276007D03*
D90*
X190074Y276007D03*
D89*
X198126Y276007D03*
D85*
X105403Y276852D03*
D124*
X140125Y276852D03*
D89*
X154946Y276852D03*
X171862Y276852D03*
X190506Y276852D03*
X198126Y276852D03*
D91*
X106673Y277699D03*
D121*
X142246Y277699D03*
D118*
X155784Y277699D03*
X171024Y277699D03*
X191344Y277699D03*
X198126Y277699D03*
D86*
X107524Y278547D03*
D102*
X143935Y278547D03*
D89*
X155784Y278547D03*
X171024Y278547D03*
D85*
X191763Y278547D03*
D89*
X198126Y278547D03*
D87*
X108794Y279392D03*
D85*
X145205Y279392D03*
D89*
X155784Y279392D03*
X171024Y279392D03*
D90*
X192614Y279392D03*
D93*
X198545Y279392D03*
D105*
X110496Y280239D03*
D118*
X156622Y280239D03*
X170186Y280239D03*
D95*
X193465Y280239D03*
D118*
X198964Y280239D03*
D87*
X112172Y281087D03*
D89*
X156622Y281087D03*
X170186Y281087D03*
D85*
X194303Y281087D03*
X199383Y281087D03*
D102*
X113455Y281932D03*
D152*
X157054Y281932D03*
D89*
X169322Y281932D03*
D90*
X195154Y281932D03*
X200234Y281932D03*
D104*
X115563Y282779D03*
D118*
X157486Y282779D03*
D95*
X168903Y282779D03*
D91*
X195573Y282779D03*
X200653Y282779D03*
D97*
X117684Y283627D03*
D89*
X157486Y283627D03*
D85*
X168065Y283627D03*
D106*
X197694Y283627D03*
D160*
X120643Y284472D03*
D93*
X157905Y284472D03*
D90*
X167214Y284472D03*
D85*
X193465Y284472D03*
D102*
X199815Y284472D03*
D138*
X123615Y285319D03*
D118*
X158324Y285319D03*
D95*
X166363Y285319D03*
D147*
X192614Y285319D03*
X200234Y285319D03*
D100*
X127425Y286167D03*
D89*
X158324Y286167D03*
X165944Y286167D03*
D85*
X191763Y286167D03*
D116*
X132073Y287012D03*
D85*
X158743Y287012D03*
D93*
X165525Y287012D03*
D85*
X190925Y287012D03*
D205*
X142652Y287859D03*
D91*
X189655Y287859D03*
D87*
X129114Y288707D03*
D210*
X147745Y288707D03*
D86*
X188804Y288707D03*
D87*
X129952Y289552D03*
D90*
X187534Y289552D03*
D105*
X131654Y290399D03*
D95*
X186683Y290399D03*
D87*
X133356Y291247D03*
D92*
X185413Y291247D03*
D96*
X135464Y292092D03*
D86*
X183724Y292092D03*
D108*
X137153Y292939D03*
D105*
X182454Y292939D03*
D107*
X139274Y293787D03*
D87*
X180752Y293787D03*
D97*
X141382Y294632D03*
D87*
X179076Y294632D03*
D121*
X143922Y295479D03*
D108*
X176955Y295479D03*
D123*
X147313Y296327D03*
D97*
X174402Y296327D03*
D186*
X151974Y297172D03*
D135*
X169754Y297172D03*
D211*
X160864Y298019D03*
D212*
X160864Y298867D03*
M02*
