G04 EAGLE Gerber RS-274X export*
G75*
%MOMM*%
%FSLAX34Y34*%
%LPD*%
%INSoldermask Bottom*%
%IPPOS*%
%AMOC8*
5,1,8,0,0,1.08239X$1,22.5*%
G01*
%ADD10C,0.551600*%
%ADD11C,1.801600*%
%ADD12C,2.101600*%
%ADD13C,1.524000*%
%ADD14P,1.649562X8X112.500000*%
%ADD15P,1.525737X8X202.500000*%


D10*
X45720Y459740D03*
X515620Y538480D03*
X27940Y15240D03*
D11*
X215900Y340360D03*
X139700Y340360D03*
X236220Y363220D03*
X236220Y287020D03*
X281940Y287020D03*
X281940Y363220D03*
D12*
X163080Y508160D02*
X163080Y528160D01*
X102080Y528160D02*
X102080Y508160D01*
X122080Y470160D02*
X142080Y470160D01*
D13*
X480568Y337820D02*
X494792Y337820D01*
X494792Y363220D02*
X480568Y363220D01*
X139700Y45212D02*
X139700Y30988D01*
X165100Y30988D02*
X165100Y45212D01*
X190500Y45212D02*
X190500Y30988D01*
X254000Y30988D02*
X254000Y45212D01*
X228600Y45212D02*
X228600Y30988D01*
D14*
X355600Y91440D03*
X330200Y91440D03*
X355600Y116840D03*
X330200Y116840D03*
X355600Y142240D03*
X330200Y142240D03*
X330200Y167640D03*
X355600Y167640D03*
D13*
X57912Y38100D02*
X43688Y38100D01*
X43688Y63500D02*
X57912Y63500D01*
X81788Y63500D02*
X96012Y63500D01*
X96012Y38100D02*
X81788Y38100D01*
D15*
X317500Y38100D03*
X317500Y63500D03*
X342900Y38100D03*
X342900Y63500D03*
X292100Y63500D03*
X292100Y38100D03*
D13*
X465328Y40640D02*
X479552Y40640D01*
X479552Y66040D02*
X465328Y66040D01*
X465328Y91440D02*
X479552Y91440D01*
X500888Y40640D02*
X515112Y40640D01*
X515112Y66040D02*
X500888Y66040D01*
X500888Y91440D02*
X515112Y91440D01*
M02*
