G04 EAGLE Gerber RS-274X export*
G75*
%MOMM*%
%FSLAX34Y34*%
%LPD*%
%IN*%
%IPPOS*%
%AMOC8*
5,1,8,0,0,1.08239X$1,22.5*%
G01*
%ADD10C,0.254000*%


D10*
X0Y25400D02*
X97Y23186D01*
X386Y20989D01*
X865Y18826D01*
X1532Y16713D01*
X2380Y14666D01*
X3403Y12700D01*
X4594Y10831D01*
X5942Y9073D01*
X7440Y7440D01*
X9073Y5942D01*
X10831Y4594D01*
X12700Y3403D01*
X14666Y2380D01*
X16713Y1532D01*
X18826Y865D01*
X20989Y386D01*
X23186Y97D01*
X25400Y0D01*
X528120Y0D01*
X530334Y97D01*
X532531Y386D01*
X534694Y865D01*
X536807Y1532D01*
X538855Y2380D01*
X540820Y3403D01*
X542689Y4594D01*
X544447Y5942D01*
X546081Y7440D01*
X547578Y9073D01*
X548926Y10831D01*
X550117Y12700D01*
X551140Y14666D01*
X551988Y16713D01*
X552655Y18826D01*
X553134Y20989D01*
X553423Y23186D01*
X553520Y25400D01*
X553520Y476760D01*
X553423Y478974D01*
X553134Y481171D01*
X552655Y483334D01*
X551988Y485447D01*
X551140Y487495D01*
X550117Y489460D01*
X548926Y491329D01*
X547578Y493087D01*
X546081Y494721D01*
X544447Y496218D01*
X542689Y497566D01*
X540820Y498757D01*
X538855Y499780D01*
X536807Y500628D01*
X534694Y501295D01*
X532531Y501774D01*
X530334Y502063D01*
X528120Y502160D01*
X25400Y502160D01*
X23186Y502063D01*
X20989Y501774D01*
X18826Y501295D01*
X16713Y500628D01*
X14666Y499780D01*
X12700Y498757D01*
X10831Y497566D01*
X9073Y496218D01*
X7440Y494721D01*
X5942Y493087D01*
X4594Y491329D01*
X3403Y489460D01*
X2380Y487495D01*
X1532Y485447D01*
X865Y483334D01*
X386Y481171D01*
X97Y478974D01*
X0Y476760D01*
X0Y25400D01*
M02*
