M48
;GenerationSoftware,Autodesk,EAGLE,9.6.2*%
;CreationDate,2020-11-12T06:58:12Z*%
FMAT,2
ICI,OFF
METRIC,TZ,000.000
T3C0.381
T2C0.800
T1C0.914
%
G90
M71
T1
X3810Y44958
X35560Y9144
X48768Y33782
X48768Y36322
X13970Y3810
X16510Y3810
X19050Y3810
X25400Y3810
X22860Y3810
X33020Y9144
X35560Y11684
X33020Y11684
X35560Y14224
X33020Y14224
X33020Y16764
X35560Y16764
X5080Y3810
X5080Y6350
X8890Y6350
X8890Y3810
X47244Y4064
X47244Y6604
X47244Y9144
X51562Y4064
X51562Y6604
X51562Y9144
X3810Y47498
T2
X34290Y3810
X34290Y6350
X29210Y6350
X31750Y3810
X31750Y6350
X29210Y3810
T3
X20320Y16764
X51308Y26670
X45212Y28194
X33782Y38862
X13716Y42672
X34036Y26924
X34544Y19558
X44958Y18542
X19558Y23304
X14732Y15748
X9398Y34290
X14224Y34290
X24103Y12419
X40640Y39116
X41910Y32258
X6350Y41656
X10160Y24130
X14986Y16656
X46990Y19558
X29972Y25908
X29718Y22098
X45974Y16764
X41656Y29718
X23114Y15240
X31496Y35560
X23114Y17526
X31382Y36970
X30886Y36208
X23114Y19050
X46228Y12738
X10414Y13576
X7112Y14478
X11684Y12929
X6858Y18034
M30