G04 EAGLE Gerber RS-274X export*
G75*
%MOMM*%
%FSLAX34Y34*%
%LPD*%
%INSoldermask Bottom*%
%IPPOS*%
%AMOC8*
5,1,8,0,0,1.08239X$1,22.5*%
G01*
%ADD10C,1.524000*%
%ADD11P,1.649562X8X112.500000*%
%ADD12P,1.525737X8X202.500000*%


D10*
X480568Y337820D02*
X494792Y337820D01*
X494792Y363220D02*
X480568Y363220D01*
X139700Y45212D02*
X139700Y30988D01*
X165100Y30988D02*
X165100Y45212D01*
X190500Y45212D02*
X190500Y30988D01*
X254000Y30988D02*
X254000Y45212D01*
X228600Y45212D02*
X228600Y30988D01*
D11*
X355600Y91440D03*
X330200Y91440D03*
X355600Y116840D03*
X330200Y116840D03*
X355600Y142240D03*
X330200Y142240D03*
X330200Y167640D03*
X355600Y167640D03*
D10*
X57912Y38100D02*
X43688Y38100D01*
X43688Y63500D02*
X57912Y63500D01*
X81788Y63500D02*
X96012Y63500D01*
X96012Y38100D02*
X81788Y38100D01*
D12*
X317500Y38100D03*
X317500Y63500D03*
X342900Y38100D03*
X342900Y63500D03*
X292100Y63500D03*
X292100Y38100D03*
D10*
X465328Y40640D02*
X479552Y40640D01*
X479552Y66040D02*
X465328Y66040D01*
X465328Y91440D02*
X479552Y91440D01*
X508508Y40640D02*
X522732Y40640D01*
X522732Y66040D02*
X508508Y66040D01*
X508508Y91440D02*
X522732Y91440D01*
X45212Y474980D02*
X30988Y474980D01*
X30988Y449580D02*
X45212Y449580D01*
M02*
