G04 EAGLE Gerber RS-274X export*
G75*
%MOMM*%
%FSLAX34Y34*%
%LPD*%
%IN*%
%IPPOS*%
%AMOC8*
5,1,8,0,0,1.08239X$1,22.5*%
G01*
%ADD10C,0.254000*%


D10*
X0Y12700D02*
X48Y11593D01*
X193Y10495D01*
X433Y9413D01*
X766Y8356D01*
X1190Y7333D01*
X1701Y6350D01*
X2297Y5416D01*
X2971Y4537D01*
X3720Y3720D01*
X4537Y2971D01*
X5416Y2297D01*
X6350Y1701D01*
X7333Y1190D01*
X8356Y766D01*
X9413Y433D01*
X10495Y193D01*
X11593Y48D01*
X12700Y0D01*
X1104700Y0D01*
X1105807Y48D01*
X1106905Y193D01*
X1107987Y433D01*
X1109044Y766D01*
X1110067Y1190D01*
X1111050Y1701D01*
X1111984Y2297D01*
X1112863Y2971D01*
X1113680Y3720D01*
X1114429Y4537D01*
X1115103Y5416D01*
X1115699Y6350D01*
X1116210Y7333D01*
X1116634Y8356D01*
X1116967Y9413D01*
X1117207Y10495D01*
X1117352Y11593D01*
X1117400Y12700D01*
X1117400Y550431D01*
X1117019Y559146D01*
X1116856Y560843D01*
X1115775Y571170D01*
X1114489Y579799D01*
X1114151Y581469D01*
X1108628Y607555D01*
X1106451Y616003D01*
X1103545Y624229D01*
X1099934Y632170D01*
X1095645Y639766D01*
X1090709Y646960D01*
X1088678Y649569D01*
X1069496Y673386D01*
X1063733Y679936D01*
X1058770Y684756D01*
X1054909Y688256D01*
X1048195Y693827D01*
X1045333Y695920D01*
X1024669Y710473D01*
X1017324Y715181D01*
X1009597Y719230D01*
X1001546Y722590D01*
X993233Y725236D01*
X984721Y727148D01*
X982368Y727540D01*
X952711Y732126D01*
X944039Y733081D01*
X937431Y733300D01*
X12700Y733300D01*
X11593Y733252D01*
X10495Y733107D01*
X9413Y732867D01*
X8356Y732534D01*
X7333Y732110D01*
X6350Y731599D01*
X5416Y731003D01*
X4537Y730329D01*
X3720Y729580D01*
X2971Y728763D01*
X2297Y727884D01*
X1701Y726950D01*
X1190Y725967D01*
X766Y724944D01*
X433Y723887D01*
X193Y722805D01*
X48Y721707D01*
X0Y720600D01*
X0Y12700D01*
X130100Y621000D02*
X140100Y621000D01*
X140100Y649000D01*
X130100Y649000D01*
X130100Y621000D01*
X191100Y618500D02*
X201100Y618500D01*
X201100Y651500D01*
X191100Y651500D01*
X191100Y618500D01*
X151100Y582000D02*
X179100Y582000D01*
X179100Y592000D01*
X151100Y592000D01*
X151100Y582000D01*
X27650Y25223D02*
X27595Y24873D01*
X27485Y24536D01*
X27324Y24221D01*
X27116Y23934D01*
X26866Y23684D01*
X26579Y23476D01*
X26264Y23315D01*
X25927Y23205D01*
X25577Y23150D01*
X25223Y23150D01*
X24873Y23205D01*
X24536Y23315D01*
X24221Y23476D01*
X23934Y23684D01*
X23684Y23934D01*
X23476Y24221D01*
X23315Y24536D01*
X23205Y24873D01*
X23150Y25223D01*
X23150Y25577D01*
X23205Y25927D01*
X23315Y26264D01*
X23476Y26579D01*
X23684Y26866D01*
X23934Y27116D01*
X24221Y27324D01*
X24536Y27485D01*
X24873Y27595D01*
X25223Y27650D01*
X25577Y27650D01*
X25927Y27595D01*
X26264Y27485D01*
X26579Y27324D01*
X26866Y27116D01*
X27116Y26866D01*
X27324Y26579D01*
X27485Y26264D01*
X27595Y25927D01*
X27650Y25577D01*
X27650Y25223D01*
X27650Y711023D02*
X27595Y710673D01*
X27485Y710336D01*
X27324Y710021D01*
X27116Y709734D01*
X26866Y709484D01*
X26579Y709276D01*
X26264Y709115D01*
X25927Y709005D01*
X25577Y708950D01*
X25223Y708950D01*
X24873Y709005D01*
X24536Y709115D01*
X24221Y709276D01*
X23934Y709484D01*
X23684Y709734D01*
X23476Y710021D01*
X23315Y710336D01*
X23205Y710673D01*
X23150Y711023D01*
X23150Y711377D01*
X23205Y711727D01*
X23315Y712064D01*
X23476Y712379D01*
X23684Y712666D01*
X23934Y712916D01*
X24221Y713124D01*
X24536Y713285D01*
X24873Y713395D01*
X25223Y713450D01*
X25577Y713450D01*
X25927Y713395D01*
X26264Y713285D01*
X26579Y713124D01*
X26866Y712916D01*
X27116Y712666D01*
X27324Y712379D01*
X27485Y712064D01*
X27595Y711727D01*
X27650Y711377D01*
X27650Y711023D01*
X979900Y609403D02*
X979823Y609017D01*
X979672Y608653D01*
X979454Y608325D01*
X979175Y608047D01*
X978847Y607828D01*
X978483Y607677D01*
X978097Y607600D01*
X977703Y607600D01*
X977317Y607677D01*
X976953Y607828D01*
X976625Y608047D01*
X976347Y608325D01*
X976128Y608653D01*
X975977Y609017D01*
X975900Y609403D01*
X975900Y609797D01*
X975977Y610183D01*
X976128Y610547D01*
X976347Y610875D01*
X976625Y611154D01*
X976953Y611372D01*
X977317Y611523D01*
X977703Y611600D01*
X978097Y611600D01*
X978483Y611523D01*
X978847Y611372D01*
X979175Y611154D01*
X979454Y610875D01*
X979672Y610547D01*
X979823Y610183D01*
X979900Y609797D01*
X979900Y609403D01*
M02*
