G04 EAGLE Gerber RS-274X export*
G75*
%MOMM*%
%FSLAX34Y34*%
%LPD*%
%INSoldermask Bottom*%
%IPPOS*%
%AMOC8*
5,1,8,0,0,1.08239X$1,22.5*%
G01*
%ADD10C,0.551600*%
%ADD11C,0.501600*%
%ADD12C,1.801600*%
%ADD13C,2.101600*%
%ADD14C,1.524000*%
%ADD15P,1.649562X8X292.500000*%
%ADD16C,1.879600*%
%ADD17P,1.525737X8X202.500000*%


D10*
X25400Y25400D03*
X25400Y711200D03*
D11*
X977900Y609600D03*
D12*
X431800Y431800D03*
X355600Y431800D03*
X457200Y431800D03*
X533400Y431800D03*
X533400Y457200D03*
X457200Y457200D03*
D13*
X196100Y625000D02*
X196100Y645000D01*
X135100Y645000D02*
X135100Y625000D01*
X155100Y587000D02*
X175100Y587000D01*
D14*
X254000Y45212D02*
X254000Y30988D01*
X279400Y30988D02*
X279400Y45212D01*
X304800Y45212D02*
X304800Y30988D01*
X406400Y30988D02*
X406400Y45212D01*
X381000Y45212D02*
X381000Y30988D01*
D15*
X520700Y114300D03*
X546100Y114300D03*
X520700Y88900D03*
X546100Y88900D03*
X520700Y63500D03*
X546100Y63500D03*
X546100Y38100D03*
X520700Y38100D03*
D14*
X108712Y76200D02*
X94488Y76200D01*
X94488Y50800D02*
X108712Y50800D01*
X57912Y76200D02*
X43688Y76200D01*
X43688Y50800D02*
X57912Y50800D01*
X863600Y119888D02*
X863600Y134112D01*
X838200Y134112D02*
X838200Y119888D01*
X812800Y119888D02*
X812800Y134112D01*
X762000Y134112D02*
X762000Y119888D01*
X736600Y119888D02*
X736600Y134112D01*
X711200Y134112D02*
X711200Y119888D01*
D16*
X1003300Y88900D03*
X1054100Y139700D03*
X952500Y139700D03*
X952500Y38100D03*
X1054100Y38100D03*
D17*
X165100Y50800D03*
X165100Y76200D03*
X190500Y50800D03*
X190500Y76200D03*
X139700Y76200D03*
X139700Y50800D03*
M02*
