G04 EAGLE Gerber RS-274X export*
G75*
%MOMM*%
%FSLAX34Y34*%
%LPD*%
%INSoldermask Top*%
%IPPOS*%
%AMOC8*
5,1,8,0,0,1.08239X$1,22.5*%
G01*
%ADD10C,0.551600*%
%ADD11C,0.501600*%
%ADD12R,1.601600X1.401600*%
%ADD13R,1.401600X1.601600*%
%ADD14C,1.801600*%
%ADD15R,1.151600X0.421600*%
%ADD16R,5.901600X6.301600*%
%ADD17R,1.701600X3.101600*%
%ADD18R,1.601600X0.701600*%
%ADD19C,2.101600*%
%ADD20C,1.524000*%
%ADD21P,1.649562X8X292.500000*%
%ADD22R,0.351600X0.451600*%
%ADD23R,2.032000X5.435600*%
%ADD24R,1.601600X1.701600*%
%ADD25R,1.701600X0.651600*%
%ADD26R,0.651600X1.701600*%
%ADD27C,0.245375*%
%ADD28C,1.879600*%
%ADD29P,1.525737X8X202.500000*%


D10*
X25400Y25400D03*
X25400Y711200D03*
D11*
X977900Y609600D03*
D12*
X647700Y250800D03*
X647700Y231800D03*
D13*
X231800Y88900D03*
X250800Y88900D03*
X803300Y368300D03*
X822300Y368300D03*
D12*
X152400Y244500D03*
X152400Y263500D03*
X850900Y415900D03*
X850900Y396900D03*
X431800Y403200D03*
X431800Y384200D03*
X266700Y441300D03*
X266700Y422300D03*
X406400Y479400D03*
X406400Y460400D03*
X558800Y435000D03*
X558800Y454000D03*
X749300Y314300D03*
X749300Y295300D03*
D13*
X803300Y393700D03*
X822300Y393700D03*
X54000Y330200D03*
X73000Y330200D03*
X73000Y152400D03*
X54000Y152400D03*
D12*
X228600Y631800D03*
X228600Y612800D03*
X393700Y587400D03*
X393700Y606400D03*
X292100Y631800D03*
X292100Y612800D03*
X825500Y250800D03*
X825500Y231800D03*
X939800Y301600D03*
X939800Y282600D03*
D13*
X771500Y393700D03*
X752500Y393700D03*
D12*
X876300Y415900D03*
X876300Y396900D03*
D13*
X403200Y63500D03*
X384200Y63500D03*
X308000Y88900D03*
X327000Y88900D03*
X308000Y228600D03*
X327000Y228600D03*
D14*
X431800Y431800D03*
X355600Y431800D03*
X457200Y431800D03*
X533400Y431800D03*
X533400Y457200D03*
X457200Y457200D03*
D15*
X822100Y409100D03*
X822100Y414100D03*
X822100Y419100D03*
X822100Y424100D03*
X822100Y429100D03*
X778100Y429100D03*
X778100Y424100D03*
X778100Y419100D03*
X778100Y414100D03*
X778100Y409100D03*
D16*
X342900Y560400D03*
D17*
X365700Y632200D03*
X320100Y632200D03*
D18*
X726000Y260350D03*
X671000Y260350D03*
X726000Y247650D03*
X726000Y273050D03*
X726000Y285750D03*
X671000Y247650D03*
X671000Y273050D03*
X671000Y285750D03*
X903800Y260350D03*
X848800Y260350D03*
X903800Y247650D03*
X903800Y273050D03*
X903800Y285750D03*
X848800Y247650D03*
X848800Y273050D03*
X848800Y285750D03*
D19*
X196100Y625000D02*
X196100Y645000D01*
X135100Y645000D02*
X135100Y625000D01*
X155100Y587000D02*
X175100Y587000D01*
D20*
X254000Y45212D02*
X254000Y30988D01*
X279400Y30988D02*
X279400Y45212D01*
X304800Y45212D02*
X304800Y30988D01*
X406400Y30988D02*
X406400Y45212D01*
X381000Y45212D02*
X381000Y30988D01*
D21*
X520700Y114300D03*
X546100Y114300D03*
X520700Y88900D03*
X546100Y88900D03*
X520700Y63500D03*
X546100Y63500D03*
X546100Y38100D03*
X520700Y38100D03*
D20*
X108712Y76200D02*
X94488Y76200D01*
X94488Y50800D02*
X108712Y50800D01*
D22*
X302050Y482600D03*
X307550Y482600D03*
D20*
X57912Y76200D02*
X43688Y76200D01*
X43688Y50800D02*
X57912Y50800D01*
X863600Y119888D02*
X863600Y134112D01*
X838200Y134112D02*
X838200Y119888D01*
X812800Y119888D02*
X812800Y134112D01*
X762000Y134112D02*
X762000Y119888D01*
X736600Y119888D02*
X736600Y134112D01*
X711200Y134112D02*
X711200Y119888D01*
D23*
X76200Y289560D03*
X76200Y193040D03*
D24*
X801300Y495100D03*
X801300Y470100D03*
X824300Y470100D03*
X824300Y495100D03*
D12*
X381000Y460400D03*
X381000Y479400D03*
D13*
X384200Y406400D03*
X403200Y406400D03*
X403200Y381000D03*
X384200Y381000D03*
X460400Y50800D03*
X479400Y50800D03*
X593700Y139700D03*
X574700Y139700D03*
X327000Y63500D03*
X308000Y63500D03*
X898500Y215900D03*
X879500Y215900D03*
D12*
X927100Y231800D03*
X927100Y250800D03*
X952500Y250800D03*
X952500Y231800D03*
D13*
X231800Y63500D03*
X250800Y63500D03*
D12*
X977900Y244500D03*
X977900Y263500D03*
D13*
X593700Y88900D03*
X574700Y88900D03*
D12*
X457200Y111100D03*
X457200Y92100D03*
D13*
X358800Y88900D03*
X377800Y88900D03*
D12*
X482600Y117500D03*
X482600Y136500D03*
D13*
X574700Y114300D03*
X593700Y114300D03*
X460400Y25400D03*
X479400Y25400D03*
X593700Y63500D03*
X574700Y63500D03*
D12*
X749300Y244500D03*
X749300Y263500D03*
D13*
X689000Y228600D03*
X708000Y228600D03*
D25*
X186100Y269300D03*
X186100Y261300D03*
X186100Y253300D03*
X186100Y245300D03*
X186100Y237300D03*
X186100Y229300D03*
X186100Y221300D03*
X186100Y213300D03*
X271100Y213300D03*
X271100Y221300D03*
X271100Y229300D03*
X271100Y237300D03*
X271100Y245300D03*
X271100Y253300D03*
X271100Y261300D03*
X271100Y269300D03*
D26*
X200600Y198800D03*
X208600Y198800D03*
X216600Y198800D03*
X224600Y198800D03*
X232600Y198800D03*
X240600Y198800D03*
X248600Y198800D03*
X256600Y198800D03*
X256600Y283800D03*
X248600Y283800D03*
X240600Y283800D03*
X232600Y283800D03*
X224600Y283800D03*
X216600Y283800D03*
X208600Y283800D03*
X200600Y283800D03*
D27*
X312019Y437181D02*
X322681Y437181D01*
X322681Y432819D01*
X312019Y432819D01*
X312019Y437181D01*
X312019Y435150D02*
X322681Y435150D01*
X322681Y446681D02*
X312019Y446681D01*
X322681Y446681D02*
X322681Y442319D01*
X312019Y442319D01*
X312019Y446681D01*
X312019Y444650D02*
X322681Y444650D01*
X322681Y456181D02*
X312019Y456181D01*
X322681Y456181D02*
X322681Y451819D01*
X312019Y451819D01*
X312019Y456181D01*
X312019Y454150D02*
X322681Y454150D01*
X297581Y437181D02*
X286919Y437181D01*
X297581Y437181D02*
X297581Y432819D01*
X286919Y432819D01*
X286919Y437181D01*
X286919Y435150D02*
X297581Y435150D01*
X297581Y446681D02*
X286919Y446681D01*
X297581Y446681D02*
X297581Y442319D01*
X286919Y442319D01*
X286919Y446681D01*
X286919Y444650D02*
X297581Y444650D01*
X297581Y456181D02*
X286919Y456181D01*
X297581Y456181D02*
X297581Y451819D01*
X286919Y451819D01*
X286919Y456181D01*
X286919Y454150D02*
X297581Y454150D01*
D28*
X1003300Y88900D03*
X1054100Y139700D03*
X952500Y139700D03*
X952500Y38100D03*
X1054100Y38100D03*
D29*
X165100Y50800D03*
X165100Y76200D03*
X190500Y50800D03*
X190500Y76200D03*
X139700Y76200D03*
X139700Y50800D03*
D12*
X228600Y320700D03*
X228600Y339700D03*
X203200Y320700D03*
X203200Y339700D03*
M02*
