G04 EAGLE Gerber RS-274X export*
G75*
%MOMM*%
%FSLAX34Y34*%
%LPD*%
%INSolderpaste Top*%
%IPPOS*%
%AMOC8*
5,1,8,0,0,1.08239X$1,22.5*%
G01*
%ADD10R,1.500000X1.300000*%
%ADD11R,1.300000X1.500000*%
%ADD12R,1.050000X0.320000*%
%ADD13R,5.800000X6.200000*%
%ADD14R,1.600000X3.000000*%
%ADD15R,1.500000X0.600000*%
%ADD16R,0.250000X0.350000*%
%ADD17R,1.930400X5.334000*%
%ADD18R,1.500000X1.600000*%
%ADD19R,1.600000X0.550000*%
%ADD20R,0.550000X1.600000*%
%ADD21C,0.145000*%


D10*
X647700Y250800D03*
X647700Y231800D03*
D11*
X231800Y88900D03*
X250800Y88900D03*
X803300Y368300D03*
X822300Y368300D03*
D10*
X152400Y244500D03*
X152400Y263500D03*
X850900Y415900D03*
X850900Y396900D03*
X431800Y403200D03*
X431800Y384200D03*
X266700Y441300D03*
X266700Y422300D03*
X406400Y479400D03*
X406400Y460400D03*
X558800Y435000D03*
X558800Y454000D03*
X749300Y314300D03*
X749300Y295300D03*
D11*
X803300Y393700D03*
X822300Y393700D03*
X54000Y330200D03*
X73000Y330200D03*
X73000Y152400D03*
X54000Y152400D03*
D10*
X228600Y631800D03*
X228600Y612800D03*
X393700Y587400D03*
X393700Y606400D03*
X292100Y631800D03*
X292100Y612800D03*
X825500Y250800D03*
X825500Y231800D03*
X939800Y301600D03*
X939800Y282600D03*
D11*
X771500Y393700D03*
X752500Y393700D03*
D10*
X876300Y415900D03*
X876300Y396900D03*
D11*
X403200Y63500D03*
X384200Y63500D03*
X308000Y88900D03*
X327000Y88900D03*
X308000Y228600D03*
X327000Y228600D03*
D12*
X822100Y409100D03*
X822100Y414100D03*
X822100Y419100D03*
X822100Y424100D03*
X822100Y429100D03*
X778100Y429100D03*
X778100Y424100D03*
X778100Y419100D03*
X778100Y414100D03*
X778100Y409100D03*
D13*
X342900Y560400D03*
D14*
X365700Y632200D03*
X320100Y632200D03*
D15*
X726000Y260350D03*
X671000Y260350D03*
X726000Y247650D03*
X726000Y273050D03*
X726000Y285750D03*
X671000Y247650D03*
X671000Y273050D03*
X671000Y285750D03*
X903800Y260350D03*
X848800Y260350D03*
X903800Y247650D03*
X903800Y273050D03*
X903800Y285750D03*
X848800Y247650D03*
X848800Y273050D03*
X848800Y285750D03*
D16*
X302050Y482600D03*
X307550Y482600D03*
D17*
X76200Y289560D03*
X76200Y193040D03*
D18*
X801300Y495100D03*
X801300Y470100D03*
X824300Y470100D03*
X824300Y495100D03*
D10*
X381000Y460400D03*
X381000Y479400D03*
D11*
X384200Y406400D03*
X403200Y406400D03*
X403200Y381000D03*
X384200Y381000D03*
X460400Y50800D03*
X479400Y50800D03*
X593700Y139700D03*
X574700Y139700D03*
X327000Y63500D03*
X308000Y63500D03*
X898500Y215900D03*
X879500Y215900D03*
D10*
X927100Y231800D03*
X927100Y250800D03*
X952500Y250800D03*
X952500Y231800D03*
D11*
X231800Y63500D03*
X250800Y63500D03*
D10*
X977900Y244500D03*
X977900Y263500D03*
D11*
X593700Y88900D03*
X574700Y88900D03*
D10*
X457200Y111100D03*
X457200Y92100D03*
D11*
X358800Y88900D03*
X377800Y88900D03*
D10*
X482600Y117500D03*
X482600Y136500D03*
D11*
X574700Y114300D03*
X593700Y114300D03*
X460400Y25400D03*
X479400Y25400D03*
X593700Y63500D03*
X574700Y63500D03*
D10*
X749300Y244500D03*
X749300Y263500D03*
D11*
X689000Y228600D03*
X708000Y228600D03*
D19*
X186100Y269300D03*
X186100Y261300D03*
X186100Y253300D03*
X186100Y245300D03*
X186100Y237300D03*
X186100Y229300D03*
X186100Y221300D03*
X186100Y213300D03*
X271100Y213300D03*
X271100Y221300D03*
X271100Y229300D03*
X271100Y237300D03*
X271100Y245300D03*
X271100Y253300D03*
X271100Y261300D03*
X271100Y269300D03*
D20*
X200600Y198800D03*
X208600Y198800D03*
X216600Y198800D03*
X224600Y198800D03*
X232600Y198800D03*
X240600Y198800D03*
X248600Y198800D03*
X256600Y198800D03*
X256600Y283800D03*
X248600Y283800D03*
X240600Y283800D03*
X232600Y283800D03*
X224600Y283800D03*
X216600Y283800D03*
X208600Y283800D03*
X200600Y283800D03*
D21*
X312025Y437175D02*
X322675Y437175D01*
X322675Y432825D01*
X312025Y432825D01*
X312025Y437175D01*
X312025Y434202D02*
X322675Y434202D01*
X322675Y435579D02*
X312025Y435579D01*
X312025Y436956D02*
X322675Y436956D01*
X322675Y446675D02*
X312025Y446675D01*
X322675Y446675D02*
X322675Y442325D01*
X312025Y442325D01*
X312025Y446675D01*
X312025Y443702D02*
X322675Y443702D01*
X322675Y445079D02*
X312025Y445079D01*
X312025Y446456D02*
X322675Y446456D01*
X322675Y456175D02*
X312025Y456175D01*
X322675Y456175D02*
X322675Y451825D01*
X312025Y451825D01*
X312025Y456175D01*
X312025Y453202D02*
X322675Y453202D01*
X322675Y454579D02*
X312025Y454579D01*
X312025Y455956D02*
X322675Y455956D01*
X297575Y437175D02*
X286925Y437175D01*
X297575Y437175D02*
X297575Y432825D01*
X286925Y432825D01*
X286925Y437175D01*
X286925Y434202D02*
X297575Y434202D01*
X297575Y435579D02*
X286925Y435579D01*
X286925Y436956D02*
X297575Y436956D01*
X297575Y446675D02*
X286925Y446675D01*
X297575Y446675D02*
X297575Y442325D01*
X286925Y442325D01*
X286925Y446675D01*
X286925Y443702D02*
X297575Y443702D01*
X297575Y445079D02*
X286925Y445079D01*
X286925Y446456D02*
X297575Y446456D01*
X297575Y456175D02*
X286925Y456175D01*
X297575Y456175D02*
X297575Y451825D01*
X286925Y451825D01*
X286925Y456175D01*
X286925Y453202D02*
X297575Y453202D01*
X297575Y454579D02*
X286925Y454579D01*
X286925Y455956D02*
X297575Y455956D01*
D10*
X228600Y320700D03*
X228600Y339700D03*
X203200Y320700D03*
X203200Y339700D03*
M02*
